<svg width="109" height="15" viewBox="0 0 109 15" fill="none" xmlns="http://www.w3.org/2000/svg">
<path fill-rule="evenodd" clip-rule="evenodd" d="M107.193 5.61349C106.785 5.13659 106.155 4.87881 105.486 4.84475C104.739 4.80675 104.168 5.06779 103.788 5.52509C103.464 5.91449 103.238 6.45289 103.241 7.05689V9.18939H104.791C104.905 9.18509 105.019 9.18669 105.134 9.18829C105.307 9.19059 105.48 9.19299 105.652 9.17539C106.289 9.10419 106.824 8.87959 107.184 8.49209C107.519 8.13219 107.703 7.63139 107.681 6.98259C107.663 6.47389 107.498 5.96989 107.193 5.61349ZM95.1852 9.06449H94.367V4.01324H95.1852V9.06449ZM99.7526 13.2154C99.1728 13.8934 98.297 14.266 97.4253 14.266C95.7195 14.266 94.3555 13.1727 94.3555 11.0003L94.3468 10.1134H95.165L95.1735 11.1975C95.183 12.4049 95.9187 13.4406 97.3492 13.4406C98.4615 13.4406 99.5982 12.8355 99.5962 11.1372L99.595 10.1121H100.428L100.433 11.3075C100.433 11.3685 100.431 11.4284 100.428 11.4875C100.428 11.8432 100.429 12.1987 100.481 12.5514C100.51 12.7785 100.567 13.0046 100.674 13.2079L100.675 13.2099C100.724 13.2715 100.774 13.3349 100.845 13.3732C100.954 13.4375 101.083 13.4456 101.207 13.4535C101.216 13.454 101.225 13.4545 101.233 13.4551C101.232 13.6148 101.232 13.7746 101.232 13.9344C101.233 14.0451 101.233 14.1557 101.232 14.2663C100.911 14.2735 100.577 14.1989 100.317 14.0021C100.048 13.8029 99.8773 13.4965 99.7865 13.1785L99.7712 13.1971L99.7603 13.21C99.758 13.2127 99.7561 13.2143 99.7544 13.215C99.7538 13.2153 99.7532 13.2154 99.7526 13.2154ZM100.428 9.06449H99.5947V4.01324H100.428V9.06449ZM87.1157 14.2659H86.2975V10.1101H87.1157V14.2659ZM92.3717 7.16709C92.3717 5.37399 91.2325 4.01323 89.3645 4.01323C88.8428 4.01323 87.834 4.18032 87.1157 4.91051V0.0571289H86.2976V9.06619H87.1157V7.00339C87.1157 5.62869 88.2348 4.84149 89.3411 4.83862C90.5754 4.8354 91.5536 5.64949 91.5536 7.20329V9.06619H92.3717V7.34959H92.3687L92.3717 7.16709ZM92.3717 14.2659H91.5535V10.1101H92.3717V14.2659ZM103.239 10.3253L103.244 10.0095L105.069 10.0091C105.128 10.0079 105.187 10.0085 105.246 10.0091C105.363 10.0103 105.48 10.0114 105.596 9.99869C106.47 9.97039 107.241 9.62489 107.768 9.05189C108.246 8.53289 108.524 7.82749 108.498 7.00229C108.477 6.32889 108.268 5.64659 107.894 5.16309C107.317 4.41692 106.383 4.01856 105.361 4.01641C104.454 4.01444 103.689 4.36439 103.161 5.00189C102.554 5.73529 102.423 6.41589 102.423 7.36939V9.18929H101.232V10.0095H102.423L102.425 10.7511C102.425 10.8069 102.425 10.8628 102.425 10.9187C102.424 11.1165 102.423 11.3146 102.449 11.5111C102.488 11.8447 102.567 12.1748 102.692 12.4869C102.868 12.9259 103.141 13.3286 103.507 13.6328C104.017 14.0581 104.673 14.2569 105.332 14.2651C106.317 14.2773 107.349 13.8722 107.955 13.0425C107.838 12.9514 107.716 12.865 107.595 12.7786C107.495 12.7078 107.396 12.6369 107.298 12.5634C106.724 13.1882 106.157 13.4756 105.286 13.4475C104.839 13.4331 104.401 13.3019 104.053 13.0254C103.783 12.811 103.578 12.5163 103.433 12.1423C103.319 11.8487 103.243 11.4937 103.239 11.1792C103.239 11.0786 103.24 10.987 103.24 10.8985C103.241 10.7112 103.242 10.5383 103.239 10.3253ZM73.3682 3.93973C73.3682 3.17487 74.1308 2.82139 75.3593 2.82139C76.7072 2.82139 78.1727 3.11695 79.1682 3.53034L78.8178 0.470899C77.7028 0.235249 76.7072 0.0595088 74.8933 0.0595088C71.4368 0.0595088 69.0933 1.42747 69.0933 4.2932C69.0933 7.23049 71.4564 8.06759 73.3716 8.74609C74.6764 9.20829 75.7734 9.59689 75.7734 10.5259C75.7734 11.4066 75.1263 11.8759 73.5454 11.8759C72.1417 11.8759 69.9714 11.4066 68.6831 10.7596L69.153 13.9947C70.4413 14.466 72.1974 14.6997 73.6051 14.6997C77.1771 14.6997 80.106 13.5235 80.106 9.99469C80.106 7.21219 77.7454 6.38519 75.8187 5.71019C74.4903 5.24479 73.3682 4.85169 73.3682 3.93973ZM23.2283 0.353019H27.5051V14.4061H23.2283V8.87829H18.7762V14.4061H14.4993V0.353019H18.7762V5.93869H23.2283V0.353019ZM42.3826 0.353019V11.5823H46.4823L45.8391 14.4061H38.1057V0.353019H42.3826ZM34.944 0.353019H30.6671V14.4061H34.944V0.353019ZM48.0075 0.353019H52.2824V14.4061H48.0075V0.353019ZM67.805 5.40949C67.805 8.99609 65.2843 11.0551 61.3041 11.0551H59.7809V14.4061H55.504V0.353019C56.9675 0.177279 59.0183 0.0594592 60.7167 0.0594592C65.111 0.0594592 67.805 1.47135 67.805 5.40949ZM63.5879 5.46929C63.5879 7.29059 62.7098 8.52679 60.4818 8.52679H59.7809V2.71941C60.0298 2.70544 60.2628 2.70544 60.4818 2.70544C62.5904 2.70544 63.5879 3.70395 63.5879 5.46929ZM12.801 5.40949C12.801 8.99609 10.2822 11.0551 6.30006 11.0551H4.77687V14.4061H0.5V0.353019C1.96545 0.177279 4.01428 0.0594592 5.71468 0.0594592C10.107 0.0594592 12.801 1.47135 12.801 5.40949ZM8.58588 5.46929C8.58588 7.29059 7.70582 8.52679 5.47977 8.52679H4.77692V2.71941C5.0258 2.70544 5.26075 2.70544 5.47977 2.70544C7.58834 2.70544 8.58588 3.70395 8.58588 5.46929Z" fill="black"/>
</svg>
