<svg width="1440" height="896" viewBox="0 0 1440 896" fill="none" xmlns="http://www.w3.org/2000/svg">
<g clip-path="url(#clip0_2_1363)">
<rect width="1440" height="896" fill="#FFD2D2"/>
<path fill-rule="evenodd" clip-rule="evenodd" d="M8.07023 266.374C8.9325 265.995 9.84029 263.421 9.96645 261.648C10.0484 260.473 8.79334 259.029 7.57861 256.572C6.48874 259.679 5.38456 261.525 5.35205 263.427C5.33384 264.462 7.3094 266.706 8.07023 266.374Z" fill="white"/>
<path fill-rule="evenodd" clip-rule="evenodd" d="M0.733705 277.834C-0.853242 275.879 -2.21605 273.494 -2.64496 273.812C-3.81683 274.678 -4.74244 276.569 -5.41346 278.34C-5.56289 278.734 -4.09216 281.309 -3.65772 281.152C-2.33642 280.676 -1.15624 279.352 0.733705 277.834Z" fill="white"/>
<path fill-rule="evenodd" clip-rule="evenodd" d="M22.2857 276.87C20.0663 275.324 18.6938 273.531 17.5554 273.812C16.443 274.087 15.5675 276.476 14.5885 277.937C15.7731 279.1 16.9536 281.154 18.1396 281.159C19.2425 281.165 20.3522 278.991 22.2857 276.87Z" fill="white"/>
<path fill-rule="evenodd" clip-rule="evenodd" d="M14.5886 311.939C15.6902 313.257 16.817 315.646 17.8853 315.58C18.9205 315.518 20.5708 313.091 20.725 311.41C20.9136 309.366 19.82 307.018 18.9112 303.289C16.2709 308.575 15.4297 310.257 14.5886 311.939Z" fill="white"/>
<path fill-rule="evenodd" clip-rule="evenodd" d="M0.733707 311.891C-0.940282 310.121 -2.44326 307.892 -2.83256 308.243C-3.97126 309.277 -4.79157 311.249 -5.41862 313.083C-5.52985 313.407 -3.9087 315.78 -3.43319 315.568C-2.14016 314.994 -1.03205 313.539 0.733707 311.891Z" fill="white"/>
<path fill-rule="evenodd" clip-rule="evenodd" d="M40.7577 311.597C40.7126 310.342 39.2848 308.036 38.7881 308.216C37.5736 308.662 36.5431 310.273 34.6014 312.282C36.7352 313.937 37.9073 315.325 39.1789 315.58C39.6292 315.668 40.8067 312.955 40.7577 311.597Z" fill="white"/>
<path fill-rule="evenodd" clip-rule="evenodd" d="M11.5098 296.151C11.0752 295.072 10.6418 293.992 10.2084 292.912C9.50418 292.233 8.54229 290.706 8.14381 291.042C7.08321 291.93 6.26578 293.626 5.35205 295.001C6.15382 296.197 6.94837 298.347 7.76098 298.37C9.00458 298.402 10.259 296.963 11.5098 296.151Z" fill="white"/>
<path fill-rule="evenodd" clip-rule="evenodd" d="M31.5225 294.538C29.9837 292.727 29.0628 290.825 28.3613 291.007C27.2837 291.285 26.3562 292.998 25.3647 294.1C26.0649 295.618 26.8186 298.433 27.4574 298.37C28.6017 298.256 29.6754 296.413 31.5225 294.538Z" fill="white"/>
<path fill-rule="evenodd" clip-rule="evenodd" d="M36.1424 345.247C36.1714 346.872 37.4753 348.421 38.2072 350.004C39.0802 348.258 40.1561 346.706 40.7255 344.666C40.946 343.874 40.0251 341.98 39.6245 340.585C38.8825 339.627 38.1417 338.669 37.3997 337.71C36.9373 340.224 36.0996 342.764 36.1424 345.247Z" fill="white"/>
<path fill-rule="evenodd" clip-rule="evenodd" d="M14.5886 346.118C15.6378 347.517 16.696 350.032 17.7322 350.004C18.7503 349.975 19.7438 347.367 20.7464 345.889C19.8434 344.257 18.9405 342.625 17.5782 340.168C16.2949 342.722 15.4424 344.42 14.5886 346.118Z" fill="white"/>
<path fill-rule="evenodd" clip-rule="evenodd" d="M0.733712 377.973C-1.00563 376.224 -1.97265 374.427 -2.84232 374.602C-3.75222 374.79 -4.56738 376.869 -5.42407 378.123C-4.59204 380.225 -3.75871 382.325 -2.92539 384.426C-1.92851 382.664 -0.930343 380.905 0.733712 377.973Z" fill="white"/>
<path fill-rule="evenodd" clip-rule="evenodd" d="M17.9999 377.05C16.8294 377.103 15.7233 378.529 14.5885 379.356C15.6233 380.279 16.5772 381.814 17.7134 381.956C18.8414 382.095 20.1503 380.83 22.2857 379.701C20.2901 378.39 19.1114 377.002 17.9999 377.05Z" fill="white"/>
<path fill-rule="evenodd" clip-rule="evenodd" d="M36.1431 380.913C36.0686 381.854 37.8455 383.239 38.7814 384.426C39.4773 382.447 40.3567 380.572 40.7522 378.425C40.8652 377.813 39.5864 376.421 38.454 374.59C37.4308 377.178 36.3036 378.93 36.1431 380.913Z" fill="white"/>
<path fill-rule="evenodd" clip-rule="evenodd" d="M62.2868 379.264C62.4813 378.561 61.481 376.882 60.6359 374.59C59.3135 376.994 58.0668 378.398 57.7055 380.297C57.5376 381.171 59.0987 383.017 59.8743 384.426C60.713 382.733 61.75 381.204 62.2868 379.264Z" fill="white"/>
<path fill-rule="evenodd" clip-rule="evenodd" d="M82.3004 379.541C82.5079 378.73 81.31 376.793 80.4473 374.59C79.1631 376.443 77.6001 377.971 77.7114 378.676C78.0415 380.765 79.0293 382.533 79.7595 384.426C80.6486 382.83 81.8089 381.455 82.3004 379.541Z" fill="white"/>
<path fill-rule="evenodd" clip-rule="evenodd" d="M9.95959 362.278C9.57403 360.741 8.63351 359.449 7.55899 357.379C6.49712 359.449 5.1407 361.299 5.37962 361.783C6.04076 363.126 7.31501 364.04 8.47929 364.75C8.6727 364.868 10.1075 362.862 9.95959 362.278Z" fill="white"/>
<path fill-rule="evenodd" clip-rule="evenodd" d="M27.2804 364.736C28.361 363.899 29.4925 362.685 29.9692 361.252C30.1472 360.721 28.5733 359.195 27.2614 357.379C26.3842 359.746 25.6214 361.225 25.3672 362.843C25.2909 363.322 26.9944 364.956 27.2804 364.736Z" fill="white"/>
<path fill-rule="evenodd" clip-rule="evenodd" d="M51.5355 361.375C50.9508 359.956 50.2269 357.218 49.8125 357.387C48.8841 357.768 48.1114 359.599 46.9171 361.369C47.8393 363.043 48.5372 364.955 48.8394 364.739C49.8167 364.038 50.6475 362.556 51.5355 361.375Z" fill="white"/>
<path fill-rule="evenodd" clip-rule="evenodd" d="M73.0877 361.482C72.1237 360.31 71.1611 359.135 69.7196 357.379C68.5279 359.365 67.7296 360.698 66.9299 362.03C68.0259 363.017 69.1581 364.827 70.21 364.753C71.2128 364.683 72.1315 362.652 73.0877 361.482Z" fill="white"/>
<path fill-rule="evenodd" clip-rule="evenodd" d="M59.6094 349.97C60.7688 349.069 61.6577 347.14 62.3025 345.35C62.4412 344.968 60.9019 342.459 60.4567 342.636C59.1421 343.158 57.9869 344.54 56.1536 346.115C57.7719 347.983 59.1754 350.309 59.6094 349.97Z" fill="white"/>
<path fill-rule="evenodd" clip-rule="evenodd" d="M9.97011 327.978C9.98939 326.325 8.41419 324.632 7.53571 322.958C6.46722 324.325 5.4001 325.69 3.8125 327.722C5.34915 329.899 6.37083 331.346 7.39251 332.793C8.3178 331.188 9.95359 329.603 9.97011 327.978Z" fill="white"/>
<path fill-rule="evenodd" clip-rule="evenodd" d="M29.0148 322.958C28.2622 324.445 26.9652 325.853 26.9069 327.446C26.8423 329.136 27.952 331.003 28.5485 332.793C29.4 331.563 30.2515 330.338 31.5225 328.501C30.4482 326.125 29.7321 324.542 29.0148 322.958Z" fill="white"/>
<path fill-rule="evenodd" clip-rule="evenodd" d="M51.5329 327.435C51.4737 325.847 50.1735 324.445 49.418 322.958C48.7051 324.544 47.9901 326.13 46.9171 328.516C48.1883 330.345 49.0392 331.568 49.8891 332.793C50.4879 330.999 51.5962 329.131 51.5329 327.435Z" fill="white"/>
<path fill-rule="evenodd" clip-rule="evenodd" d="M0.73371 412.094C-0.697271 409.72 -1.65172 408.137 -2.60617 406.554C-3.61048 408.039 -5.34484 409.45 -5.42103 411.032C-5.49999 412.733 -4.02052 414.597 -3.22261 416.389C-2.07976 415.148 -0.936923 413.909 0.73371 412.094Z" fill="white"/>
<path fill-rule="evenodd" clip-rule="evenodd" d="M9.93637 462.643C10.1576 461.857 9.23847 459.969 8.8377 458.583C8.09935 457.631 7.36102 456.68 6.62268 455.729C6.15489 458.236 5.31288 460.763 5.35334 463.24C5.38115 464.871 6.68084 466.431 7.41159 468.022C8.28774 466.26 9.36111 464.692 9.93637 462.643Z" fill="white"/>
<path fill-rule="evenodd" clip-rule="evenodd" d="M49.0886 465.562C49.9111 465.549 50.7202 463.371 51.5355 462.16C50.7955 460.791 50.1889 458.8 49.2706 458.254C48.5961 457.854 47.5116 459.341 46.609 459.988C46.199 461.068 45.7877 462.144 45.3777 463.224C46.6151 464.078 47.8561 465.581 49.0886 465.562Z" fill="white"/>
<path fill-rule="evenodd" clip-rule="evenodd" d="M33.062 463.27C32.5336 462.167 32.0066 461.065 31.4782 459.963C30.3564 459.327 29.0065 457.851 28.1686 458.257C27.0286 458.811 26.2813 460.803 25.3648 462.178C26.3809 463.381 27.388 465.546 28.4162 465.562C29.9562 465.589 31.5129 464.111 33.062 463.27Z" fill="white"/>
<path fill-rule="evenodd" clip-rule="evenodd" d="M73.0877 462.283C72.1241 461.114 71.1619 459.942 69.7172 458.187C68.5247 460.172 67.7279 461.502 66.9299 462.833C68.0267 463.823 69.1584 465.634 70.2099 465.561C71.2123 465.49 72.1319 463.455 73.0877 462.283Z" fill="white"/>
<path fill-rule="evenodd" clip-rule="evenodd" d="M93.1004 463.152C92.2527 461.919 91.6122 460.536 91.3265 460.653C90.3135 461.063 89.4208 461.986 88.4821 462.715C89.0315 463.726 89.6762 465.641 90.1105 465.561C91.0555 465.391 91.8938 464.205 93.1004 463.152Z" fill="white"/>
<path fill-rule="evenodd" clip-rule="evenodd" d="M13.0492 444.799C15.1545 446.567 16.4294 448.509 17.5584 448.342C18.6956 448.171 19.6896 445.906 20.7464 444.558C19.6433 443.279 18.5784 441.091 17.4234 440.981C16.3012 440.875 15.0877 442.905 13.0492 444.799Z" fill="white"/>
<path fill-rule="evenodd" clip-rule="evenodd" d="M40.7512 443.542C40.8677 442.437 39.6881 440.969 38.5623 438.518C37.375 441.477 36.2184 443.185 36.1416 445.015C36.0993 446.024 37.8706 447.233 38.8236 448.351C39.5114 446.762 40.5693 445.275 40.7512 443.542Z" fill="white"/>
<path fill-rule="evenodd" clip-rule="evenodd" d="M62.3113 445.446C61.166 443.445 60.4745 441.5 59.575 440.992C59.1549 440.755 58.3333 443.296 57.693 444.581C58.5116 445.884 59.2605 447.502 60.1876 448.321C60.5083 448.604 61.2776 446.903 62.3113 445.446Z" fill="white"/>
<path fill-rule="evenodd" clip-rule="evenodd" d="M83.8636 444.67C82.1865 442.896 80.7092 440.652 80.2847 441.016C79.1472 441.992 78.3288 443.99 77.7115 445.815C77.5978 446.154 79.2194 448.55 79.7007 448.339C80.9935 447.775 82.1019 446.317 83.8636 444.67Z" fill="white"/>
<path fill-rule="evenodd" clip-rule="evenodd" d="M28.9719 433.6C29.6965 433.629 30.4466 431.446 31.5225 429.681C30.303 428.079 29.4336 426.058 28.7145 426.234C27.9843 426.413 26.8509 428.847 26.9061 430.134C26.9636 431.478 28.2207 433.57 28.9719 433.6Z" fill="white"/>
<path fill-rule="evenodd" clip-rule="evenodd" d="M9.96395 428.793C10.0832 428.444 8.48572 426.034 8.02671 426.236C6.70795 426.817 5.56808 428.25 3.8125 429.84C5.47517 431.647 6.94785 433.913 7.35555 433.563C8.4982 432.579 9.33715 430.612 9.96395 428.793Z" fill="white"/>
<path fill-rule="evenodd" clip-rule="evenodd" d="M51.5317 430.187C51.3081 428.227 50.2137 426.56 48.0274 421.307C47.4233 424.763 46.7359 426.555 46.9608 427.913C47.2995 429.967 48.2726 431.719 48.9765 433.6C49.8838 432.444 51.6265 431.01 51.5317 430.187Z" fill="white"/>
<path fill-rule="evenodd" clip-rule="evenodd" d="M74.627 429.914C72.5585 428.082 71.315 426.097 70.1887 426.231C69.0433 426.368 68.0111 428.59 66.9298 429.899C68.0138 431.217 69.0433 433.447 70.1968 433.592C71.3163 433.734 72.5626 431.743 74.627 429.914Z" fill="white"/>
<path fill-rule="evenodd" clip-rule="evenodd" d="M93.1004 429.973C92.2565 428.135 91.6147 426.06 91.3268 426.234C90.3133 426.851 89.4212 428.235 88.4821 429.331C89.0317 430.845 89.6641 433.706 90.1112 433.597C91.0441 433.372 91.8785 431.578 93.1004 429.973Z" fill="white"/>
<path fill-rule="evenodd" clip-rule="evenodd" d="M18.4773 409.014C17.4166 409.071 16.4002 410.902 14.5886 412.773C16.0104 414.343 17.1153 416.507 18.0911 416.385C19.0907 416.257 20.2829 414.083 20.7337 412.408C20.9071 411.754 19.2546 408.971 18.4773 409.014Z" fill="white"/>
<path fill-rule="evenodd" clip-rule="evenodd" d="M40.7561 411.018C40.6827 409.442 38.9496 408.035 37.9487 406.554C36.9921 408.137 36.0369 409.718 34.6014 412.094C36.2986 413.933 37.4337 415.161 38.5675 416.389C39.3621 414.592 40.835 412.725 40.7561 411.018Z" fill="white"/>
<path fill-rule="evenodd" clip-rule="evenodd" d="M62.3113 411.481C61.1369 409.365 60.355 407.959 59.5731 406.554C58.8973 408.194 57.6909 409.833 57.693 411.472C57.6951 413.113 58.9014 414.751 59.5803 416.389C60.3622 414.985 61.1431 413.581 62.3113 411.481Z" fill="white"/>
<path fill-rule="evenodd" clip-rule="evenodd" d="M82.3114 412.508C82.4576 411.039 81.3097 409.32 80.3092 406.554C79.0228 409.066 77.6846 410.532 77.706 411.956C77.73 413.454 79.0568 414.913 79.8128 416.389C80.6986 415.105 82.1703 413.934 82.3114 412.508Z" fill="white"/>
<path fill-rule="evenodd" clip-rule="evenodd" d="M28.6737 399.178C29.638 399.153 30.5739 396.979 31.5225 395.746C30.6853 394.344 29.9209 391.958 28.9937 391.809C28.0364 391.659 26.9206 393.686 25.3647 395.285C26.762 397.04 27.7321 399.202 28.6737 399.178Z" fill="white"/>
<path fill-rule="evenodd" clip-rule="evenodd" d="M5.35193 394.916C5.90056 396.426 6.54447 399.293 6.97688 399.174C7.91709 398.921 8.74946 397.145 9.97027 395.538C9.13057 393.711 8.48561 391.638 8.20292 391.812C7.18628 392.435 6.29214 393.82 5.35193 394.916Z" fill="white"/>
<path fill-rule="evenodd" clip-rule="evenodd" d="M51.5204 394.58C51.7058 393.807 50.1376 391.763 48.864 389.343C47.9637 392.478 47.1841 394.425 46.92 396.566C46.8387 397.22 48.5212 399.434 48.7967 399.153C49.8862 398.053 51.0633 396.478 51.5204 394.58Z" fill="white"/>
<path fill-rule="evenodd" clip-rule="evenodd" d="M73.0877 395.383C71.9826 394.104 70.9158 391.916 69.7602 391.806C68.6388 391.699 67.426 393.729 65.3905 395.626C67.4928 397.393 68.7684 399.34 69.8939 399.167C71.0358 398.995 72.0304 396.73 73.0877 395.383Z" fill="white"/>
<path fill-rule="evenodd" clip-rule="evenodd" d="M17.9187 878.632C16.759 878.746 15.6949 880.932 14.5885 882.212C15.6485 883.56 16.6458 885.837 17.7822 885.995C18.9228 886.157 20.2025 884.208 22.2857 882.454C20.2502 880.555 19.036 878.525 17.9187 878.632Z" fill="white"/>
<path fill-rule="evenodd" clip-rule="evenodd" d="M40.7248 880.652C40.9474 879.851 40.0314 877.96 39.6354 876.566C38.8965 875.616 38.1576 874.662 37.4175 873.712C36.9481 876.221 36.1029 878.753 36.1421 881.236C36.1674 882.86 37.4744 884.419 38.207 886.005C39.08 884.252 40.1567 882.696 40.7248 880.652Z" fill="white"/>
<path fill-rule="evenodd" clip-rule="evenodd" d="M166.974 880.691C167.15 880.009 166.088 878.368 165.18 876.17C163.926 878.609 162.713 880.078 162.385 881.998C162.235 882.876 163.83 884.643 164.634 886.005C165.45 884.261 166.461 882.669 166.974 880.691Z" fill="white"/>
<path fill-rule="evenodd" clip-rule="evenodd" d="M142.446 886C143.402 885.703 144.238 883.945 145.441 882.36C144.603 880.538 143.959 878.467 143.675 878.639C142.658 879.262 141.764 880.643 140.823 881.739C141.372 883.252 142.034 886.131 142.446 886Z" fill="white"/>
<path fill-rule="evenodd" clip-rule="evenodd" d="M119.271 881.998C120.297 883.44 121.324 886.005 122.35 886.005C123.376 886.005 124.402 883.44 125.429 881.998C124.549 880.335 123.67 878.668 122.35 876.17C121.031 878.668 120.151 880.335 119.271 881.998Z" fill="white"/>
<path fill-rule="evenodd" clip-rule="evenodd" d="M101.758 886.005C102.51 884.149 103.522 882.431 103.87 880.362C103.992 879.639 102.474 878.056 101.256 876.17C100.336 878.32 99.0856 880.208 99.2782 880.995C99.753 882.934 100.889 884.368 101.758 886.005Z" fill="white"/>
<path fill-rule="evenodd" clip-rule="evenodd" d="M60.5099 878.677C59.4438 879.572 58.6155 881.265 57.693 882.641C58.4984 883.836 59.2977 885.989 60.1115 886.005C61.3527 886.029 62.6036 884.576 63.8508 883.748C63.4234 882.678 62.9972 881.606 62.571 880.538C61.8671 879.862 60.9108 878.342 60.5099 878.677Z" fill="white"/>
<path fill-rule="evenodd" clip-rule="evenodd" d="M77.7259 881C78.1977 882.937 79.3356 884.368 80.2046 886.005C80.9552 884.149 81.9686 882.429 82.3172 880.362C82.4392 879.639 80.9241 878.059 79.7041 876.17C78.7816 878.324 77.5317 880.207 77.7259 881Z" fill="white"/>
<path fill-rule="evenodd" clip-rule="evenodd" d="M9.95492 863.672C9.52962 862.161 8.53263 860.935 7.40186 858.959C6.42001 861.12 5.12771 863.089 5.38516 863.562C6.09946 864.867 7.41701 865.685 8.60709 866.331C8.78629 866.429 10.1278 864.29 9.95492 863.672Z" fill="white"/>
<path fill-rule="evenodd" clip-rule="evenodd" d="M31.5225 862.984C29.9401 861.048 28.592 858.668 28.1441 858.988C26.9735 859.824 26.0346 861.708 25.3758 863.469C25.2219 863.884 26.7142 866.488 27.1524 866.328C28.4728 865.852 29.6461 864.512 31.5225 862.984Z" fill="white"/>
<path fill-rule="evenodd" clip-rule="evenodd" d="M69.5598 866.335C70.7394 866.327 71.9122 864.279 73.0876 863.118C72.111 861.655 71.2406 859.261 70.1292 858.988C68.9932 858.708 67.6256 860.505 65.3904 862.07C67.3437 864.188 68.4538 866.344 69.5598 866.335Z" fill="white"/>
<path fill-rule="evenodd" clip-rule="evenodd" d="M51.5355 862.511C50.8847 861.246 50.0318 858.721 49.6252 858.978C48.7232 859.544 48.0459 861.508 46.9171 863.554C47.9734 864.952 48.7508 866.6 49.0807 866.299C49.9981 865.469 50.7305 863.83 51.5355 862.511Z" fill="white"/>
<path fill-rule="evenodd" clip-rule="evenodd" d="M93.0901 862.822C93.2219 861.982 92.0684 860.842 90.9853 858.959C89.7639 861.137 88.5937 862.382 88.4836 863.755C88.4234 864.504 90.1595 865.469 91.0851 866.336C91.7983 865.175 92.8878 864.102 93.0901 862.822Z" fill="white"/>
<path fill-rule="evenodd" clip-rule="evenodd" d="M114.652 863.658C113.523 861.548 112.864 859.571 111.969 858.98C111.565 858.711 110.693 861.195 110.034 862.429C110.83 863.774 111.549 865.434 112.462 866.296C112.789 866.608 113.583 865.004 114.652 863.658Z" fill="white"/>
<path fill-rule="evenodd" clip-rule="evenodd" d="M132.132 866.307C133.069 865.501 133.833 863.913 134.665 862.629C134.035 861.323 133.221 858.746 132.811 858.973C131.903 859.476 131.196 861.391 130.047 863.345C131.061 864.84 131.819 866.576 132.132 866.307Z" fill="white"/>
<path fill-rule="evenodd" clip-rule="evenodd" d="M157.757 862.497C156.03 860.8 154.488 858.62 154.074 859.004C152.954 860.037 152.189 862.076 151.604 863.932C151.5 864.255 153.184 866.552 153.676 866.319C154.958 865.71 156.037 864.202 157.757 862.497Z" fill="white"/>
<path fill-rule="evenodd" clip-rule="evenodd" d="M179.309 862.209C177.137 860.588 175.798 858.735 174.666 858.981C173.538 859.224 172.621 861.572 171.612 862.997C172.773 864.196 173.923 866.311 175.093 866.335C176.223 866.36 177.372 864.225 179.309 862.209Z" fill="white"/>
<path fill-rule="evenodd" clip-rule="evenodd" d="M145.417 846.421C145.612 845.717 144.608 844.032 143.763 841.748C142.44 844.152 141.194 845.554 140.835 847.45C140.67 848.333 142.224 850.175 142.997 851.582C143.838 849.892 144.878 848.362 145.417 846.421Z" fill="white"/>
<path fill-rule="evenodd" clip-rule="evenodd" d="M166.969 846.418C167.165 845.712 166.171 844.027 165.338 841.748C164.006 844.155 162.769 845.557 162.388 847.464C162.218 848.308 163.78 850.176 164.555 851.582C165.395 849.889 166.431 848.359 166.969 846.418Z" fill="white"/>
<path fill-rule="evenodd" clip-rule="evenodd" d="M119.271 847.931C120.372 849.252 121.497 851.646 122.566 851.582C123.602 851.52 125.253 849.092 125.407 847.412C125.596 845.371 124.502 843.026 123.59 839.289C120.95 844.574 120.11 846.254 119.271 847.931Z" fill="white"/>
<path fill-rule="evenodd" clip-rule="evenodd" d="M20.7464 848.066C19.9768 846.255 19.2073 844.446 18.06 841.748C16.574 844.037 15.5819 845.561 14.5886 847.086C15.5199 848.689 16.4032 851.456 17.394 851.577C18.4584 851.706 19.625 849.341 20.7464 848.066Z" fill="white"/>
<path fill-rule="evenodd" clip-rule="evenodd" d="M38.8105 844.217C37.5092 844.775 36.3841 846.204 34.6014 847.822C36.262 849.628 37.734 851.898 38.1432 851.547C39.2878 850.566 40.1243 848.6 40.7528 846.778C40.8721 846.433 39.2781 844.018 38.8105 844.217Z" fill="white"/>
<path fill-rule="evenodd" clip-rule="evenodd" d="M62.3042 845.583C62.4184 844.969 61.1418 843.575 60.0127 841.748C58.9876 844.339 57.8688 846.087 57.6956 848.082C57.616 849.001 59.393 850.401 60.3283 851.582C61.0263 849.604 61.9039 847.728 62.3042 845.583Z" fill="white"/>
<path fill-rule="evenodd" clip-rule="evenodd" d="M80.2647 844.206C79.5383 844.176 78.7854 846.345 77.7058 848.097C78.9256 849.715 79.7911 851.743 80.5131 851.572C81.2406 851.403 82.3722 848.975 82.3225 847.672C82.2728 846.342 81.0154 844.24 80.2647 844.206Z" fill="white"/>
<path fill-rule="evenodd" clip-rule="evenodd" d="M99.2613 846.439C99.8203 848.328 100.527 850.419 101.627 851.532C102.023 851.935 103.643 849.819 105.416 848.204C103.735 846.434 102.689 844.88 101.42 844.229C100.915 843.968 99.176 846.147 99.2613 846.439Z" fill="white"/>
<path fill-rule="evenodd" clip-rule="evenodd" d="M29.9787 831.172C29.8909 829.701 28.4962 828.381 27.6721 826.995C26.8494 828.383 25.4459 829.709 25.3681 831.173C25.2904 832.633 26.5408 834.229 27.6734 836.83C28.8172 834.2 30.0665 832.606 29.9787 831.172Z" fill="white"/>
<path fill-rule="evenodd" clip-rule="evenodd" d="M93.0965 831.159C93.0125 829.696 91.616 828.378 90.7949 826.995C89.9687 828.383 88.566 829.709 88.4857 831.175C88.4055 832.63 89.6566 834.229 90.7861 836.83C91.9331 834.193 93.1792 832.603 93.0965 831.159Z" fill="white"/>
<path fill-rule="evenodd" clip-rule="evenodd" d="M111.915 826.995C110.937 828.15 109.96 829.305 108.495 831.037C110.154 832.462 111.262 833.417 112.373 834.371C113.199 833.056 114.711 831.7 114.651 830.44C114.594 829.241 112.893 828.14 111.915 826.995Z" fill="white"/>
<path fill-rule="evenodd" clip-rule="evenodd" d="M134.656 830.386C134.783 828.936 133.594 827.265 132.531 824.537C131.303 827.078 130.001 828.586 130.048 830.006C130.099 831.504 131.439 832.921 132.214 834.371C133.083 833.052 134.53 831.83 134.656 830.386Z" fill="white"/>
<path fill-rule="evenodd" clip-rule="evenodd" d="M156.216 830.434C156.177 829.239 154.898 828.137 154.163 826.995C153.431 828.15 152.698 829.303 151.599 831.036C152.839 832.461 153.671 833.417 154.502 834.371C155.124 833.055 156.259 831.7 156.216 830.434Z" fill="white"/>
<path fill-rule="evenodd" clip-rule="evenodd" d="M7.6611 824.537C6.51673 827.176 5.27084 828.768 5.35607 830.207C5.44381 831.673 6.83886 832.991 7.6611 834.371C8.48334 832.991 9.87964 831.673 9.96612 830.207C10.0514 828.768 8.80546 827.176 7.6611 824.537Z" fill="white"/>
<path fill-rule="evenodd" clip-rule="evenodd" d="M70.2653 834.352C70.847 834.631 73.1289 831.958 73.0871 830.713C73.0303 829.011 71.4975 827.388 69.9468 824.537C68.6503 826.783 66.8364 828.56 66.9336 830.14C67.0308 831.732 68.8686 833.682 70.2653 834.352Z" fill="white"/>
<path fill-rule="evenodd" clip-rule="evenodd" d="M51.5349 830.943C51.565 829.658 50.3655 828.313 49.7041 826.995C48.8525 828.009 48.001 829.025 45.3777 832.152C47.2407 833.246 48.4198 834.564 49.4506 834.348C50.2882 834.169 51.507 832.18 51.5349 830.943Z" fill="white"/>
<path fill-rule="evenodd" clip-rule="evenodd" d="M125.429 813.413C124.327 812.103 123.201 809.716 122.134 809.787C121.097 809.855 119.444 812.277 119.291 813.954C119.107 815.999 120.203 818.347 121.115 822.079C123.747 816.796 124.588 815.104 125.429 813.413Z" fill="white"/>
<path fill-rule="evenodd" clip-rule="evenodd" d="M99.2623 815.092C99.1686 815.6 100.802 817.336 101.064 817.146C102.168 816.344 103.362 815.211 103.86 813.801C104.056 813.241 102.528 811.642 101.303 809.784C100.368 812.07 99.5535 813.499 99.2623 815.092Z" fill="white"/>
<path fill-rule="evenodd" clip-rule="evenodd" d="M57.7007 813.266C57.5674 814.149 59.2006 815.837 60.0318 817.16C60.8224 815.366 61.8046 813.712 62.2957 811.698C62.4568 811.035 61.3439 809.443 60.3833 807.325C59.1841 809.795 57.9951 811.329 57.7007 813.266Z" fill="white"/>
<path fill-rule="evenodd" clip-rule="evenodd" d="M17.4212 809.788C16.2977 809.684 15.0826 811.717 13.0492 813.614C15.1497 815.376 16.425 817.317 17.5539 817.15C18.6938 816.983 19.6886 814.72 20.7464 813.375C19.6421 812.092 18.5775 809.901 17.4212 809.788Z" fill="white"/>
<path fill-rule="evenodd" clip-rule="evenodd" d="M36.1406 813.926C37.3306 815.077 38.4434 816.649 39.7532 817.152C40.2049 817.324 41.1429 814.836 42.2984 812.787C40.917 811.404 39.6967 809.486 39.1954 809.823C37.9972 810.624 37.1364 812.49 36.1406 813.926Z" fill="white"/>
<path fill-rule="evenodd" clip-rule="evenodd" d="M145.434 812.33C145.55 811.227 144.346 809.751 143.213 807.325C142.048 810.259 140.899 811.976 140.824 813.809C140.783 814.823 142.538 816.037 143.483 817.16C144.179 815.561 145.248 814.073 145.434 812.33Z" fill="white"/>
<path fill-rule="evenodd" clip-rule="evenodd" d="M164.581 817.114C165.688 816.008 166.421 813.954 166.99 812.076C167.082 811.776 165.357 809.553 164.855 809.803C163.582 810.442 162.526 811.983 160.836 813.724C162.596 815.376 164.193 817.503 164.581 817.114Z" fill="white"/>
<path fill-rule="evenodd" clip-rule="evenodd" d="M9.9506 797.069C10.1282 796.394 9.06911 794.763 8.16098 792.573C6.9028 795.014 5.6852 796.483 5.36178 798.4C5.21212 799.286 6.80514 801.045 7.60799 802.409C8.4248 800.657 9.43439 799.053 9.9506 797.069Z" fill="white"/>
<path fill-rule="evenodd" clip-rule="evenodd" d="M66.9299 798.903C68.0538 800.176 69.223 802.54 70.2836 802.404C71.2782 802.278 72.1564 799.507 73.0876 797.902C72.0943 796.379 71.101 794.856 69.6123 792.573C68.4664 795.279 67.6981 797.09 66.9299 798.903Z" fill="white"/>
<path fill-rule="evenodd" clip-rule="evenodd" d="M28.9283 795.041C28.0691 794.912 27.1115 796.268 25.3647 797.611C27.0636 799.823 28.0575 801.117 29.0501 802.409C29.8742 800.824 30.6984 799.24 31.5225 797.659C30.6621 796.726 29.8405 795.178 28.9283 795.041Z" fill="white"/>
<path fill-rule="evenodd" clip-rule="evenodd" d="M46.9368 797.408C47.4078 799.345 48.5479 800.776 49.4177 802.409C50.1691 800.554 51.1821 798.836 51.5285 796.769C51.6506 796.041 50.1367 794.461 48.923 792.573C47.9984 794.731 46.7449 796.617 46.9368 797.408Z" fill="white"/>
<path fill-rule="evenodd" clip-rule="evenodd" d="M134.627 796.972C134.858 795.383 134.002 793.278 133.373 790.115C131.232 794.492 129.898 796.279 130.06 797.069C130.473 799.088 131.552 800.66 132.365 802.409C133.159 800.615 134.332 799.004 134.627 796.972Z" fill="white"/>
<path fill-rule="evenodd" clip-rule="evenodd" d="M156.211 796.776C156.332 796.055 154.818 794.476 153.588 792.573C152.671 794.726 151.426 796.611 151.619 797.402C152.092 799.339 153.229 800.773 154.099 802.409C154.85 800.556 155.862 798.841 156.211 796.776Z" fill="white"/>
<path fill-rule="evenodd" clip-rule="evenodd" d="M57.7266 779.958C58.4488 781.262 59.7672 782.079 60.9596 782.737C61.1297 782.829 62.4708 780.692 62.2956 780.085C61.8545 778.56 60.8549 777.321 59.7332 775.363C58.7538 777.524 57.4682 779.491 57.7266 779.958Z" fill="white"/>
<path fill-rule="evenodd" clip-rule="evenodd" d="M17.7092 775.383C16.5714 775.144 15.2307 776.987 13.0492 778.613C15.0222 780.657 16.1681 782.777 17.2814 782.738C18.4545 782.698 19.5923 780.597 20.7464 779.395C19.7422 777.972 18.8279 775.621 17.7092 775.383Z" fill="white"/>
<path fill-rule="evenodd" clip-rule="evenodd" d="M36.1406 778.749C37.169 780.137 38.0693 781.946 39.2849 782.708C39.775 783.015 40.9562 781.021 42.2984 779.554C41.1159 777.594 40.1247 775.179 39.6869 775.374C38.3873 775.946 37.3066 777.549 36.1406 778.749Z" fill="white"/>
<path fill-rule="evenodd" clip-rule="evenodd" d="M82.2998 779.697C82.5253 779.22 81.1337 777.399 80.0331 775.363C78.9966 777.45 78.0748 778.764 77.7146 780.309C77.5786 780.893 79.0458 782.863 79.2548 782.733C80.4071 782.011 81.6563 781.052 82.2998 779.697Z" fill="white"/>
<path fill-rule="evenodd" clip-rule="evenodd" d="M103.858 779.454C104.06 778.94 102.579 777.282 101.374 775.363C100.414 777.586 99.5676 778.982 99.2631 780.56C99.1608 781.095 100.756 782.904 101.008 782.727C102.121 781.949 103.31 780.852 103.858 779.454Z" fill="white"/>
<path fill-rule="evenodd" clip-rule="evenodd" d="M146.981 778.348C145.601 776.974 144.385 775.064 143.879 775.403C142.682 776.204 141.82 778.071 140.823 779.507C142.013 780.66 143.125 782.24 144.432 782.73C144.892 782.903 145.824 780.406 146.981 778.348Z" fill="white"/>
<path fill-rule="evenodd" clip-rule="evenodd" d="M122.367 775.363C121.035 777.247 120.153 778.496 119.271 779.745C120.297 780.822 121.326 782.746 122.348 782.738C123.379 782.732 124.403 780.81 125.429 779.728C124.556 778.48 123.681 777.236 122.367 775.363Z" fill="white"/>
<path fill-rule="evenodd" clip-rule="evenodd" d="M28.6738 767.985C29.6357 767.965 30.5734 765.784 31.5225 764.547C30.6831 763.148 29.9179 760.774 28.983 760.618C28.0325 760.461 26.9152 762.486 25.3647 764.074C26.7613 765.837 27.7304 768.009 28.6738 767.985Z" fill="white"/>
<path fill-rule="evenodd" clip-rule="evenodd" d="M11.5098 765.769L10.204 762.506C9.50128 761.836 8.54626 760.322 8.14503 760.658C7.0855 761.547 6.26622 763.24 5.35205 764.612C6.1545 765.812 6.94615 767.963 7.76062 767.985C9.00275 768.019 10.2593 766.582 11.5098 765.769Z" fill="white"/>
<path fill-rule="evenodd" clip-rule="evenodd" d="M51.5332 764.536C51.3678 762.522 50.2638 760.747 49.2649 758.152C48.1211 759.937 46.8145 761.321 46.9235 761.924C47.3133 764.087 48.1814 765.986 48.8713 767.985C49.8163 766.821 51.6076 765.444 51.5332 764.536Z" fill="white"/>
<path fill-rule="evenodd" clip-rule="evenodd" d="M65.3904 763.68C67.3311 765.812 68.441 767.989 69.5495 767.985C70.7303 767.984 71.9083 765.922 73.0876 764.759C72.1071 763.301 71.2328 760.918 70.1174 760.64C68.9803 760.356 67.6075 762.142 65.3904 763.68Z" fill="white"/>
<path fill-rule="evenodd" clip-rule="evenodd" d="M132.911 760.61C131.931 760.659 131 762.815 130.047 764.05C130.883 765.449 131.637 767.799 132.579 767.976C133.508 768.15 134.627 766.123 136.205 764.504C134.808 762.744 133.836 760.567 132.911 760.61Z" fill="white"/>
<path fill-rule="evenodd" clip-rule="evenodd" d="M157.757 763.619C155.793 762.232 154.557 761.014 153.205 760.613C152.8 760.495 151.432 763.213 151.616 763.67C152.316 765.398 153.333 767.227 154.533 767.965C154.993 768.247 156.267 765.697 157.757 763.619Z" fill="white"/>
<path fill-rule="evenodd" clip-rule="evenodd" d="M17.2946 743.399C16.3336 744.774 14.916 745.999 14.5983 747.582C14.4355 748.396 16.3603 750.913 17.1211 750.77C18.3585 750.537 19.4156 748.749 20.7464 747.42C19.4503 745.91 18.3718 744.654 17.2946 743.399Z" fill="white"/>
<path fill-rule="evenodd" clip-rule="evenodd" d="M40.759 747.163C40.7782 745.926 39.2093 744.654 38.3347 743.399C37.2663 744.421 36.1978 745.446 34.6014 746.973C36.1428 748.607 37.1673 749.692 38.1903 750.775C39.1116 749.573 40.7384 748.384 40.759 747.163Z" fill="white"/>
<path fill-rule="evenodd" clip-rule="evenodd" d="M59.8773 743.399C58.813 744.423 57.7514 745.443 56.1536 746.981C57.695 748.61 58.7195 749.693 59.744 750.775C60.6653 749.575 62.2989 748.384 62.3113 747.171C62.3236 745.924 60.7533 744.657 59.8773 743.399Z" fill="white"/>
<path fill-rule="evenodd" clip-rule="evenodd" d="M145.44 746.842C145.388 745.646 143.688 744.544 142.713 743.399C141.736 744.557 140.761 745.713 139.284 747.465C140.942 748.885 142.049 749.829 143.156 750.775C143.982 749.46 145.495 748.107 145.44 746.842Z" fill="white"/>
<path fill-rule="evenodd" clip-rule="evenodd" d="M66.9299 730.055C68.052 731.328 69.2232 733.693 70.2845 733.559C71.2784 733.433 72.1572 730.663 73.0877 729.057C72.0938 727.535 71.0998 726.012 69.6076 723.729C68.4635 726.432 67.6974 728.242 66.9299 730.055Z" fill="white"/>
<path fill-rule="evenodd" clip-rule="evenodd" d="M9.97027 729.333C8.99549 727.769 8.25874 725.964 7.95271 726.21C6.99854 726.979 6.20615 728.523 5.35193 729.767C5.96606 731.117 6.74609 733.758 7.15928 733.552C8.07327 733.1 8.80383 731.216 9.97027 729.333Z" fill="white"/>
<path fill-rule="evenodd" clip-rule="evenodd" d="M28.9894 726.198C28.0579 726.025 26.9392 728.055 25.3647 729.673C26.762 731.428 27.7321 733.589 28.6737 733.564C29.638 733.538 30.5739 731.366 31.5225 730.134C30.6853 728.732 29.9309 726.373 28.9894 726.198Z" fill="white"/>
<path fill-rule="evenodd" clip-rule="evenodd" d="M46.9281 730.727C46.7745 731.136 48.2562 733.717 48.6795 733.557C50.0173 733.057 51.2099 731.73 53.0748 730.224C51.4893 728.28 50.128 725.897 49.6908 726.217C48.5191 727.071 47.5894 728.959 46.9281 730.727Z" fill="white"/>
<path fill-rule="evenodd" clip-rule="evenodd" d="M93.1001 729.058C93.121 727.707 92.1856 726.314 91.2181 723.729C89.9659 726.573 89.224 728.258 88.4821 729.941C89.5481 731.149 90.6154 732.356 91.6827 733.564C92.193 732.064 93.0779 730.579 93.1001 729.058Z" fill="white"/>
<path fill-rule="evenodd" clip-rule="evenodd" d="M114.637 728.098C114.799 727.435 113.688 725.845 112.728 723.729C111.526 726.202 110.337 727.734 110.042 729.672C109.908 730.552 111.541 732.241 112.373 733.564C113.164 731.767 114.145 730.111 114.637 728.098Z" fill="white"/>
<path fill-rule="evenodd" clip-rule="evenodd" d="M134.665 730.278C134.659 729.066 133.749 727.873 133.025 726.188C132.361 728.119 131.519 729.505 131.591 730.662C131.663 731.827 132.675 733.647 133.212 733.56C133.774 733.471 134.672 731.443 134.665 730.278Z" fill="white"/>
<path fill-rule="evenodd" clip-rule="evenodd" d="M20.7464 714.395C19.6443 713.326 18.5168 711.381 17.4507 711.437C16.4099 711.489 14.7474 713.468 14.606 714.821C14.4338 716.455 15.576 718.319 16.5354 721.27C19.0665 717.137 19.9071 715.765 20.7464 714.395Z" fill="white"/>
<path fill-rule="evenodd" clip-rule="evenodd" d="M145.426 713.35C145.586 712.689 144.475 711.1 143.509 708.977C142.309 711.453 141.117 712.984 140.831 714.917C140.698 715.811 142.33 717.49 143.161 718.812C143.951 717.019 144.934 715.362 145.426 713.35Z" fill="white"/>
<path fill-rule="evenodd" clip-rule="evenodd" d="M119.271 714.803C120.293 716.246 121.321 718.822 122.339 718.812C123.374 718.801 124.399 716.239 125.429 714.795C124.54 713.13 123.65 711.462 122.325 708.977C121.021 711.464 120.147 713.134 119.271 714.803Z" fill="white"/>
<path fill-rule="evenodd" clip-rule="evenodd" d="M77.7058 713.553C79.4876 714.909 80.4886 716.161 81.6468 716.349C82.239 716.444 83.1168 714.625 83.8636 713.673C82.9307 712.885 82.0831 711.687 81.0362 711.449C80.3222 711.288 79.3265 712.47 77.7058 713.553Z" fill="white"/>
<path fill-rule="evenodd" clip-rule="evenodd" d="M98.9493 713.224L97.7189 716.466C98.9566 717.324 100.195 718.828 101.428 718.811C102.25 718.801 103.061 716.623 103.877 715.415C103.134 714.043 102.526 712.055 101.607 711.504C100.933 711.101 99.8496 712.583 98.9493 713.224Z" fill="white"/>
<path fill-rule="evenodd" clip-rule="evenodd" d="M38.6277 711.456C37.3553 712.096 36.2989 713.633 34.6014 715.385C36.3671 717.03 37.9559 719.159 38.3587 718.763C39.4639 717.674 40.1858 715.596 40.7558 713.716C40.845 713.42 39.1294 711.204 38.6277 711.456Z" fill="white"/>
<path fill-rule="evenodd" clip-rule="evenodd" d="M57.6947 715.407C57.6304 716.343 59.4378 717.664 60.3968 718.812C61.0729 716.789 61.9291 714.859 62.3057 712.679C62.4085 712.077 61.0832 710.729 59.916 708.977C58.9339 711.596 57.8297 713.403 57.6947 715.407Z" fill="white"/>
<path fill-rule="evenodd" clip-rule="evenodd" d="M9.96702 697.141C9.69269 695.545 8.89763 694.101 7.97303 691.766C6.70424 693.633 5.17763 695.194 5.36814 695.735C5.86346 697.15 7.02683 698.31 8.12036 699.126C8.38961 699.327 10.0534 697.637 9.96702 697.141Z" fill="white"/>
<path fill-rule="evenodd" clip-rule="evenodd" d="M29.9571 696.101C30.1907 695.59 28.7955 693.78 27.7159 691.766C26.6691 693.862 25.7461 695.183 25.3736 696.729C25.2373 697.3 26.7045 699.265 26.9116 699.135C28.0644 698.409 29.3334 697.459 29.9571 696.101Z" fill="white"/>
<path fill-rule="evenodd" clip-rule="evenodd" d="M69.8916 699.131C71.0342 698.955 72.0282 696.697 73.0877 695.35C71.9832 694.069 70.9169 691.873 69.7647 691.769C68.6412 691.669 67.429 693.708 65.3905 695.62C67.4917 697.372 68.7666 699.305 69.8916 699.131Z" fill="white"/>
<path fill-rule="evenodd" clip-rule="evenodd" d="M51.5138 695.964C51.7288 695.464 50.2977 693.739 49.1447 691.766C48.1409 693.942 47.2623 695.304 46.9235 696.869C46.8059 697.412 48.3458 699.289 48.5784 699.132C49.7086 698.377 50.9222 697.34 51.5138 695.964Z" fill="white"/>
<path fill-rule="evenodd" clip-rule="evenodd" d="M93.0971 695.96C93.1611 694.935 92.2879 693.819 91.4085 691.766C90.0611 693.835 89.2728 695.05 88.4821 696.264C89.4957 697.222 90.5094 698.184 91.5218 699.142C92.0847 698.085 93.0306 697.066 93.0971 695.96Z" fill="white"/>
<path fill-rule="evenodd" clip-rule="evenodd" d="M131.825 699.072C132.85 698.53 133.726 696.981 134.665 695.861C134.085 694.408 133.39 691.632 132.949 691.771C131.986 692.075 131.152 693.854 128.508 697.361C130.26 698.339 131.149 699.431 131.825 699.072Z" fill="white"/>
<path fill-rule="evenodd" clip-rule="evenodd" d="M112.232 691.766C111.179 693.836 109.821 695.686 110.062 696.189C110.708 697.527 111.991 698.441 113.153 699.136C113.358 699.26 114.79 697.251 114.642 696.676C114.248 695.133 113.308 693.835 112.232 691.766Z" fill="white"/>
<path fill-rule="evenodd" clip-rule="evenodd" d="M20.7464 680.502C19.8954 678.804 19.0456 677.104 17.7677 674.555C16.4006 677.017 15.4953 678.649 14.5886 680.278C15.5936 681.755 16.5856 684.36 17.6035 684.389C18.6382 684.418 19.6988 681.904 20.7464 680.502Z" fill="white"/>
<path fill-rule="evenodd" clip-rule="evenodd" d="M40.7468 678.759C40.8917 678.111 39.73 676.581 38.7169 674.555C37.5716 677.073 36.4149 678.673 36.1467 680.639C36.0285 681.508 37.7115 683.118 38.5771 684.389C39.3372 682.538 40.2854 680.811 40.7468 678.759Z" fill="white"/>
<path fill-rule="evenodd" clip-rule="evenodd" d="M80.8824 684.386C81.4396 684.268 82.3241 681.567 82.3241 679.992C82.3241 678.4 81.4177 676.806 80.6982 674.555C80.0225 677.162 79.1776 679.008 79.2495 680.548C79.3215 682.094 80.3419 684.501 80.8824 684.386Z" fill="white"/>
<path fill-rule="evenodd" clip-rule="evenodd" d="M62.3055 678.266C62.4097 677.663 61.0902 676.312 59.9237 674.555C58.9398 677.18 57.8414 678.983 57.6948 680.993C57.6279 681.912 59.4388 683.245 60.3995 684.389C61.0734 682.369 61.93 680.446 62.3055 678.266Z" fill="white"/>
<path fill-rule="evenodd" clip-rule="evenodd" d="M103.874 680.928C103.675 678.978 102.563 677.298 100.413 672.096C99.7867 675.501 99.0808 677.291 99.2988 678.641C99.6321 680.715 100.604 682.488 101.305 684.389C102.216 683.22 103.961 681.8 103.874 680.928Z" fill="white"/>
<path fill-rule="evenodd" clip-rule="evenodd" d="M126.968 680.859C124.922 678.946 123.707 676.908 122.59 677.018C121.434 677.132 120.374 679.328 119.271 680.613C120.329 681.953 121.319 684.202 122.458 684.379C123.581 684.549 124.855 682.621 126.968 680.859Z" fill="white"/>
<path fill-rule="evenodd" clip-rule="evenodd" d="M134.663 663.166C134.601 661.972 133.3 660.918 132.545 659.803C131.831 660.989 131.118 662.179 130.047 663.96C131.318 665.337 132.168 666.258 133.019 667.178C133.616 665.835 134.728 664.433 134.663 663.166Z" fill="white"/>
<path fill-rule="evenodd" clip-rule="evenodd" d="M110.041 663.099C110.148 664.556 111.567 665.827 112.411 667.178C113.212 665.765 114.594 664.398 114.651 662.928C114.708 661.472 113.431 659.913 112.26 657.343C111.152 660.031 109.934 661.66 110.041 663.099Z" fill="white"/>
<path fill-rule="evenodd" clip-rule="evenodd" d="M88.4821 662.657C88.4833 664.166 89.7753 665.672 90.5026 667.178C91.4152 665.926 92.9077 664.807 93.0816 663.382C93.2594 661.93 92.1413 660.176 91.1795 657.343C89.8447 659.823 88.4821 661.24 88.4821 662.657Z" fill="white"/>
<path fill-rule="evenodd" clip-rule="evenodd" d="M7.47169 657.343C6.41481 660.084 5.23212 661.759 5.36171 663.205C5.49256 664.647 6.93947 665.864 7.80888 667.178C8.58392 665.731 9.92514 664.316 9.96918 662.826C10.0132 661.401 8.70848 659.898 7.47169 657.343Z" fill="white"/>
<path fill-rule="evenodd" clip-rule="evenodd" d="M26.9041 662.67C26.9075 664.177 27.7634 665.675 28.2469 667.178C28.8577 665.931 29.8593 664.816 29.9714 663.399C30.0859 661.94 29.3353 660.188 28.6833 657.343C27.8005 659.838 26.9016 661.258 26.9041 662.67Z" fill="white"/>
<path fill-rule="evenodd" clip-rule="evenodd" d="M69.8075 667.178C71.0416 667.177 72.2729 665.349 74.627 663.361C72.8536 661.786 71.5153 659.675 70.3383 659.809C69.1213 659.949 68.0598 662.272 66.9298 663.639C67.8886 664.904 68.8502 667.18 69.8075 667.178Z" fill="white"/>
<path fill-rule="evenodd" clip-rule="evenodd" d="M51.5266 663.198C51.6498 661.735 50.4607 660.06 49.4048 657.343C48.1729 659.9 46.8718 661.406 46.9183 662.829C46.9674 664.321 48.3074 665.731 49.0842 667.178C49.9528 665.861 51.4047 664.636 51.5266 663.198Z" fill="white"/>
<path fill-rule="evenodd" clip-rule="evenodd" d="M18.8353 637.674C16.2724 642.865 15.4305 644.572 14.5886 646.276C15.6899 647.61 16.819 650.033 17.8884 649.966C18.9244 649.902 20.5816 647.436 20.7279 645.743C20.9048 643.702 19.7757 641.362 18.8353 637.674Z" fill="white"/>
<path fill-rule="evenodd" clip-rule="evenodd" d="M40.7518 645.166C40.8643 644.05 39.6698 642.584 38.5316 640.132C37.3615 643.084 36.2066 644.802 36.1414 646.628C36.1043 647.653 37.8692 648.848 38.8207 649.967C39.51 648.38 40.5766 646.891 40.7518 645.166Z" fill="white"/>
<path fill-rule="evenodd" clip-rule="evenodd" d="M62.2957 644.508C62.4568 643.841 61.3407 642.247 60.3793 640.132C59.1833 642.601 57.9949 644.131 57.7007 646.073C57.5675 646.954 59.2049 648.643 60.0394 649.967C60.8283 648.172 61.8087 646.521 62.2957 644.508Z" fill="white"/>
<path fill-rule="evenodd" clip-rule="evenodd" d="M80.2598 642.592C79.5252 642.579 78.7795 644.754 77.7058 646.518C78.918 648.11 79.7922 650.138 80.5092 649.956C81.2449 649.768 82.3629 647.361 82.3231 646.032C82.2821 644.727 81.0034 642.605 80.2598 642.592Z" fill="white"/>
<path fill-rule="evenodd" clip-rule="evenodd" d="M105.416 646.113C103.688 644.419 102.145 642.255 101.739 642.635C100.619 643.689 99.8548 645.724 99.2625 647.583C99.1624 647.893 100.843 650.186 101.326 649.95C102.623 649.312 103.716 647.802 105.416 646.113Z" fill="white"/>
<path fill-rule="evenodd" clip-rule="evenodd" d="M126.968 646.296C124.901 644.457 123.657 642.462 122.533 642.598C121.384 642.734 120.354 644.965 119.271 646.281C120.354 647.596 121.39 649.833 122.536 649.961C123.674 650.09 124.925 648.1 126.968 646.296Z" fill="white"/>
<path fill-rule="evenodd" clip-rule="evenodd" d="M7.83578 627.86C6.56167 628.51 5.50387 630.052 3.8125 631.808C5.56946 633.442 7.16174 635.561 7.55668 635.168C8.66472 634.069 9.39457 632.006 9.96673 630.129C10.0588 629.83 8.33398 627.607 7.83578 627.86Z" fill="white"/>
<path fill-rule="evenodd" clip-rule="evenodd" d="M25.3647 630.081C26.1154 631.033 26.9821 632.843 27.5933 632.753C28.7375 632.586 29.7358 631.319 31.5225 629.954C29.8961 628.867 28.903 627.69 28.1967 627.855C27.1463 628.099 26.2992 629.291 25.3647 630.081Z" fill="white"/>
<path fill-rule="evenodd" clip-rule="evenodd" d="M53.0748 630.399C51.3377 629.077 50.369 627.721 49.4966 627.847C48.5891 627.981 47.7725 629.549 46.917 630.492C47.7504 632.063 48.5852 633.641 49.4186 635.216C50.4093 633.91 51.4027 632.601 53.0748 630.399Z" fill="white"/>
<path fill-rule="evenodd" clip-rule="evenodd" d="M69.9111 625.381C68.6327 627.932 67.7813 629.629 66.9299 631.329C67.9793 632.728 69.0377 635.242 70.0729 635.215C71.0899 635.187 72.0849 632.579 73.0877 631.103C72.182 629.473 71.2762 627.842 69.9111 625.381Z" fill="white"/>
<path fill-rule="evenodd" clip-rule="evenodd" d="M93.096 628.942C93.1887 628.355 91.801 627.072 90.5581 625.381C89.6352 628.05 88.5373 629.936 88.4824 631.913C88.4524 632.932 90.2762 634.109 91.2605 635.216C91.9119 633.143 92.7461 631.155 93.096 628.942Z" fill="white"/>
<path fill-rule="evenodd" clip-rule="evenodd" d="M116.192 633.054C115.75 631.951 115.305 630.85 114.862 629.747C114.162 629.072 113.209 627.551 112.811 627.887C111.758 628.775 110.944 630.468 110.034 631.84C110.832 633.039 111.617 635.184 112.431 635.214C113.675 635.262 114.938 633.849 116.192 633.054Z" fill="white"/>
<path fill-rule="evenodd" clip-rule="evenodd" d="M17.4821 608.176C16.3558 608.039 15.1107 610.031 13.0492 611.855C15.1093 613.682 16.3558 615.675 17.4835 615.539C18.6303 615.403 19.6624 613.172 20.7464 611.858C19.6624 610.543 18.6303 608.315 17.4821 608.176Z" fill="white"/>
<path fill-rule="evenodd" clip-rule="evenodd" d="M40.7488 612.043C40.8805 611.205 39.7321 610.066 38.6463 608.168C37.4212 610.358 36.2523 611.604 36.1423 612.974C36.0834 613.72 37.824 614.682 38.7512 615.546C39.4622 614.389 40.5493 613.321 40.7488 612.043Z" fill="white"/>
<path fill-rule="evenodd" clip-rule="evenodd" d="M101.024 615.477C102.053 614.936 102.933 613.393 103.877 612.275C103.295 610.818 102.585 608.03 102.156 608.175C101.183 608.506 100.349 610.28 97.7189 613.784C99.4527 614.744 100.346 615.832 101.024 615.477Z" fill="white"/>
<path fill-rule="evenodd" clip-rule="evenodd" d="M126.968 611.27C124.742 609.713 123.368 607.913 122.239 608.199C121.122 608.481 120.251 610.872 119.271 612.338C120.453 613.495 121.639 615.553 122.819 615.546C123.937 615.539 125.05 613.369 126.968 611.27Z" fill="white"/>
<path fill-rule="evenodd" clip-rule="evenodd" d="M60.2212 608.168C59.0048 610.069 57.512 611.701 57.711 612.222C58.247 613.624 59.4293 614.741 60.5368 615.531C60.7927 615.717 62.4058 613.945 62.307 613.433C62.0041 611.845 61.1754 610.43 60.2212 608.168Z" fill="white"/>
<path fill-rule="evenodd" clip-rule="evenodd" d="M77.7096 613.481C77.6159 613.985 79.2504 615.723 79.514 615.531C80.6151 614.73 81.7897 613.597 82.3067 612.19C82.5031 611.657 80.9978 610.056 79.7611 608.168C78.8184 610.462 78.0036 611.89 77.7096 613.481Z" fill="white"/>
<path fill-rule="evenodd" clip-rule="evenodd" d="M90.1067 600.789C91.0463 600.545 91.8801 598.767 93.1004 597.167C92.2593 595.33 91.6151 593.254 91.3333 593.427C90.3162 594.053 89.4227 595.437 88.4821 596.535C89.0299 598.046 89.6699 600.904 90.1067 600.789Z" fill="white"/>
<path fill-rule="evenodd" clip-rule="evenodd" d="M66.9299 597.295C68.0526 598.566 69.2258 600.922 70.2862 600.788C71.2819 600.66 72.1582 597.892 73.0877 596.287C72.0986 594.773 71.1107 593.256 69.6095 590.958C68.4571 593.682 67.6935 595.49 66.9299 597.295Z" fill="white"/>
<path fill-rule="evenodd" clip-rule="evenodd" d="M49.7069 600.78C50.1246 600.996 50.9139 598.384 51.5355 597.052C50.6937 595.792 49.9158 594.221 48.9711 593.443C48.6562 593.184 47.9122 594.958 46.9171 596.492C48.0789 598.412 48.7972 600.319 49.7069 600.78Z" fill="white"/>
<path fill-rule="evenodd" clip-rule="evenodd" d="M8.19044 593.428C7.17788 594.038 6.28901 595.431 5.35193 596.525C5.90118 598.041 6.53219 600.895 6.98292 600.791C7.91476 600.571 8.75017 598.776 9.97027 597.175C9.12542 595.337 8.47974 593.251 8.19044 593.428Z" fill="white"/>
<path fill-rule="evenodd" clip-rule="evenodd" d="M26.9043 596.402C26.9165 598.003 27.7984 600.711 28.3434 600.791C28.8989 600.874 29.9024 598.483 29.9785 596.918C30.0528 595.394 29.2016 593.543 28.5271 590.958C27.7966 593.254 26.8912 594.855 26.9043 596.402Z" fill="white"/>
<path fill-rule="evenodd" clip-rule="evenodd" d="M114.627 595.64C114.824 594.933 113.823 593.254 112.98 590.958C111.651 593.379 110.411 594.786 110.047 596.686C109.879 597.557 111.434 599.394 112.209 600.793C113.051 599.105 114.091 597.578 114.627 595.64Z" fill="white"/>
<path fill-rule="evenodd" clip-rule="evenodd" d="M82.3215 578.227C82.2624 576.637 80.9627 575.232 80.2097 573.747C79.495 575.334 78.7803 576.925 77.7058 579.316C78.9753 581.14 79.8269 582.36 80.6775 583.582C81.2749 581.79 82.3848 579.923 82.3215 578.227Z" fill="white"/>
<path fill-rule="evenodd" clip-rule="evenodd" d="M106.955 580.463C103.749 576.447 102.67 575.096 101.591 573.747C100.747 575.511 99.2193 577.313 99.2588 579.028C99.2957 580.678 100.86 583.331 101.927 583.555C103.203 583.826 104.664 581.993 106.955 580.463Z" fill="white"/>
<path fill-rule="evenodd" clip-rule="evenodd" d="M57.6933 579.145C57.7172 580.645 59.0317 582.104 59.7821 583.582C60.6748 582.296 62.1479 581.127 62.2978 579.691C62.4501 578.243 61.2905 576.529 60.2744 573.747C58.9977 576.26 57.6694 577.723 57.6933 579.145Z" fill="white"/>
<path fill-rule="evenodd" clip-rule="evenodd" d="M38.56 583.582C39.3584 581.79 40.8415 579.921 40.7556 578.228C40.6766 576.637 38.9398 575.234 37.9307 573.747C36.9799 575.336 36.0277 576.926 34.6014 579.308C36.291 581.132 37.4248 582.355 38.56 583.582Z" fill="white"/>
<path fill-rule="evenodd" clip-rule="evenodd" d="M20.7459 579.944C20.6976 578.243 19.1728 576.61 17.6343 573.747C16.3163 576.003 14.4971 577.767 14.5922 579.341C14.6858 580.932 16.5186 582.863 17.9182 583.561C18.4783 583.841 20.7837 581.189 20.7459 579.944Z" fill="white"/>
<path fill-rule="evenodd" clip-rule="evenodd" d="M8.14481 559.043C7.08565 559.928 6.26573 561.621 5.35205 562.993C6.15513 564.194 6.94739 566.345 7.7625 566.369C9.0044 566.404 10.2595 564.962 11.5098 564.149C11.0758 563.068 10.6418 561.983 10.2066 560.899C9.50332 560.225 8.54635 558.705 8.14481 559.043Z" fill="white"/>
<path fill-rule="evenodd" clip-rule="evenodd" d="M26.9043 563.078C26.9174 564.277 27.7979 566.307 28.3443 566.369C28.8978 566.432 29.9024 564.638 29.9785 563.466C30.0528 562.321 29.2021 560.936 28.5271 558.994C27.7961 560.717 26.8912 561.918 26.9043 563.078Z" fill="white"/>
<path fill-rule="evenodd" clip-rule="evenodd" d="M70.4038 566.37C71.5141 566.411 72.6584 564.288 74.627 562.246C72.45 560.62 71.1108 558.773 69.9773 559.016C68.8548 559.256 67.9379 561.604 66.9298 563.028C68.0878 564.228 69.2281 566.328 70.4038 566.37Z" fill="white"/>
<path fill-rule="evenodd" clip-rule="evenodd" d="M51.5355 563.091C50.9521 561.636 50.2502 558.86 49.8081 559C48.8431 559.302 48.0096 561.085 45.3777 564.574C47.0996 565.55 47.9935 566.657 48.6706 566.304C49.7046 565.759 50.5877 564.21 51.5355 563.091Z" fill="white"/>
<path fill-rule="evenodd" clip-rule="evenodd" d="M93.0913 562.368C93.1957 560.966 92.3808 559.364 91.6114 556.536C90.1829 559.139 89.3337 560.688 88.4821 562.241C89.4429 563.617 90.4014 564.994 91.361 566.371C91.9758 565.045 92.9846 563.804 93.0913 562.368Z" fill="white"/>
<path fill-rule="evenodd" clip-rule="evenodd" d="M114.633 561.056C114.81 560.372 113.752 558.735 112.845 556.536C111.586 558.974 110.371 560.445 110.044 562.364C109.895 563.242 111.491 565.009 112.295 566.371C113.111 564.627 114.12 563.033 114.633 561.056Z" fill="white"/>
<path fill-rule="evenodd" clip-rule="evenodd" d="M103.86 546.503C104.039 545.726 102.744 543.896 101.769 541.785C100.597 543.736 99.1339 545.373 99.2668 546.102C99.6408 548.143 100.674 549.806 101.447 551.618C102.296 549.943 103.409 548.461 103.86 546.503Z" fill="white"/>
<path fill-rule="evenodd" clip-rule="evenodd" d="M77.7225 546.501C78.1685 548.459 79.2833 549.944 80.1291 551.618C80.9039 549.81 81.9391 548.148 82.3153 546.111C82.451 545.381 80.9936 543.744 79.8215 541.785C78.8399 543.899 77.5432 545.722 77.7225 546.501Z" fill="white"/>
<path fill-rule="evenodd" clip-rule="evenodd" d="M59.6032 549.138C60.7647 548.532 61.6525 547.245 62.3027 546.052C62.4402 545.8 60.9036 544.129 60.4674 544.249C59.1475 544.607 57.9875 545.525 56.1536 546.573C57.7624 547.81 59.1725 549.361 59.6032 549.138Z" fill="white"/>
<path fill-rule="evenodd" clip-rule="evenodd" d="M17.6336 544.263C16.5104 544.508 15.5958 546.856 14.5885 548.279C15.7444 549.478 16.8852 551.574 18.0616 551.618C19.1697 551.66 20.3147 549.539 22.2857 547.494C20.1048 545.868 18.7663 544.022 17.6336 544.263Z" fill="white"/>
<path fill-rule="evenodd" clip-rule="evenodd" d="M34.6014 546.563C36.2231 547.812 37.6458 549.361 38.062 549.138C39.2202 548.521 40.1111 547.247 40.7501 546.052C40.8907 545.792 39.3553 544.131 38.9181 544.249C37.5985 544.603 36.4403 545.517 34.6014 546.563Z" fill="white"/>
<path fill-rule="evenodd" clip-rule="evenodd" d="M73.0877 528.196C71.9858 526.886 70.8587 524.514 69.7874 524.574C68.7547 524.631 67.1046 527.049 66.9515 528.715C66.7625 530.756 67.8511 533.098 68.764 536.865C71.4149 531.552 72.2507 529.875 73.0877 528.196Z" fill="white"/>
<path fill-rule="evenodd" clip-rule="evenodd" d="M9.96383 530.617C9.58216 528.461 8.71086 526.565 8.0259 524.574C7.07877 525.741 5.27963 527.126 5.35417 528.035C5.52509 530.058 6.63284 531.846 7.62109 534.407C8.76869 532.609 10.0731 531.235 9.96383 530.617Z" fill="white"/>
<path fill-rule="evenodd" clip-rule="evenodd" d="M28.2518 524.58C27.3279 524.936 26.5528 526.775 25.3647 528.523C26.2865 530.21 26.9908 532.149 27.2936 531.932C28.2695 531.235 29.0977 529.744 29.983 528.559C29.3973 527.142 28.6794 524.416 28.2518 524.58Z" fill="white"/>
<path fill-rule="evenodd" clip-rule="evenodd" d="M46.928 529.113C46.7757 529.518 48.2528 532.099 48.6862 531.941C50.0097 531.462 51.1906 530.137 53.0748 528.614C51.4896 526.669 50.1329 524.281 49.6913 524.602C48.5186 525.449 47.5897 527.343 46.928 529.113Z" fill="white"/>
<path fill-rule="evenodd" clip-rule="evenodd" d="M91.9822 532.403C92.3829 530.966 93.3114 529.236 93.0569 528.163C92.7104 526.703 91.4619 525.746 90.6001 524.574C89.8467 525.874 88.4898 527.163 88.4822 528.474C88.4684 530.445 89.3994 532.429 89.9311 534.407C90.614 533.74 91.2981 533.071 91.9822 532.403Z" fill="white"/>
<path fill-rule="evenodd" clip-rule="evenodd" d="M17.8551 509.827C16.7035 509.971 15.6719 512.199 14.5885 513.513C15.6719 514.825 16.7035 517.05 17.8538 517.19C18.9781 517.327 20.2226 515.337 22.2857 513.51C20.2226 511.682 18.9768 509.69 17.8551 509.827Z" fill="white"/>
<path fill-rule="evenodd" clip-rule="evenodd" d="M34.6014 513.435C36.262 515.243 37.734 517.513 38.1432 517.16C39.2878 516.182 40.1243 514.213 40.7528 512.392C40.8721 512.046 39.2781 509.631 38.8105 509.832C37.5092 510.388 36.3841 511.817 34.6014 513.435Z" fill="white"/>
<path fill-rule="evenodd" clip-rule="evenodd" d="M62.2988 511.563C62.4452 510.917 61.2806 509.387 60.2674 507.361C59.1218 509.875 57.9597 511.474 57.6988 513.432C57.5817 514.318 59.2631 515.92 60.1261 517.197C60.8873 515.344 61.8368 513.617 62.2988 511.563Z" fill="white"/>
<path fill-rule="evenodd" clip-rule="evenodd" d="M80.8707 507.361C80.1386 509.658 79.2314 511.263 79.2454 512.804C79.2611 514.408 80.1377 517.093 80.6921 517.193C81.2377 517.296 82.2614 514.866 82.3209 513.335C82.3822 511.752 81.5363 509.917 80.8707 507.361Z" fill="white"/>
<path fill-rule="evenodd" clip-rule="evenodd" d="M105.416 513.21C103.554 511.672 102.384 510.327 101.063 509.829C100.624 509.663 99.1227 512.204 99.2681 512.601C99.9217 514.382 100.83 516.316 101.997 517.166C102.451 517.495 103.835 515.107 105.416 513.21Z" fill="white"/>
<path fill-rule="evenodd" clip-rule="evenodd" d="M28.2701 499.986C28.8905 498.235 30.0294 496.429 29.9816 494.753C29.9369 493.148 28.6619 491.679 27.9262 490.15C27.1936 491.698 26.461 493.244 25.3647 495.558C26.6023 497.446 27.4367 498.716 28.2701 499.986Z" fill="white"/>
<path fill-rule="evenodd" clip-rule="evenodd" d="M11.5098 496.933C8.90976 492.843 8.05463 491.495 7.19842 490.15C6.53188 491.912 5.32017 493.712 5.35269 495.424C5.38303 497.077 6.61966 499.725 7.46612 499.957C8.49032 500.235 9.66301 498.433 11.5098 496.933Z" fill="white"/>
<path fill-rule="evenodd" clip-rule="evenodd" d="M51.5291 495.9C51.6346 494.461 50.4176 492.834 49.3124 490.15C48.1256 492.746 46.8496 494.297 46.9199 495.72C46.9927 497.207 48.3604 498.569 49.1629 499.986C50.0057 498.631 51.421 497.36 51.5291 495.9Z" fill="white"/>
<path fill-rule="evenodd" clip-rule="evenodd" d="M70.0877 490.15C68.8384 492.263 67.2721 493.865 66.9402 495.9C66.7647 496.975 68.8812 500.169 69.6983 499.978C71.0228 499.669 73.0995 497.349 73.0877 495.903C73.0744 494.078 71.2883 492.281 70.0877 490.15Z" fill="white"/>
<path fill-rule="evenodd" clip-rule="evenodd" d="M90.4784 499.952C91.5358 499.706 93.0578 497.061 93.0996 495.403C93.1413 493.704 91.6341 491.906 90.8057 490.15C89.743 491.506 88.6803 492.861 85.4032 497.036C87.7186 498.487 89.1961 500.251 90.4784 499.952Z" fill="white"/>
<path fill-rule="evenodd" clip-rule="evenodd" d="M17.3405 475.399C16.2239 475.332 15.0443 477.421 13.0492 479.397C15.1907 481.078 16.5016 482.965 17.636 482.759C18.765 482.551 19.7174 480.245 20.7464 478.86C19.612 477.617 18.5063 475.469 17.3405 475.399Z" fill="white"/>
<path fill-rule="evenodd" clip-rule="evenodd" d="M34.6014 479.023C36.6279 480.889 37.7159 482.407 38.9506 482.768C39.4292 482.909 40.7485 480.438 40.7591 479.138C40.7697 477.825 39.4913 475.278 39.026 475.402C37.7794 475.739 36.665 477.212 34.6014 479.023Z" fill="white"/>
<path fill-rule="evenodd" clip-rule="evenodd" d="M62.2871 477.614C62.4808 476.907 61.4758 475.222 60.6316 472.939C59.3115 475.343 58.0674 476.745 57.7054 478.646C57.5384 479.521 59.0989 481.369 59.8748 482.775C60.7139 481.082 61.7517 479.555 62.2871 477.614Z" fill="white"/>
<path fill-rule="evenodd" clip-rule="evenodd" d="M82.3232 479.32C82.3609 477.991 81.2306 475.557 80.507 475.407C79.7679 475.249 78.9014 477.279 77.7058 478.863C78.7828 480.62 79.5319 482.792 80.2666 482.775C81.0101 482.757 82.2855 480.628 82.3232 479.32Z" fill="white"/>
<path fill-rule="evenodd" clip-rule="evenodd" d="M5.3559 897.805C5.25848 898.543 6.97523 899.758 7.86966 900.758C8.59204 899.197 9.5801 897.749 9.93306 896.037C10.1481 894.987 9.38906 893.531 8.72868 890.923C6.70071 894.839 5.5659 896.2 5.3559 897.805Z" fill="white"/>
<path fill-rule="evenodd" clip-rule="evenodd" d="M29.9794 897.715C30.0451 896.575 29.1969 895.235 28.5325 893.381C27.7989 895.048 26.8903 896.209 26.9043 897.329C26.9166 898.491 27.8217 899.616 28.3373 900.758C28.922 899.752 29.9155 898.833 29.9794 897.715Z" fill="white"/>
<path fill-rule="evenodd" clip-rule="evenodd" d="M70.1251 900.747C71.2516 900.916 72.5267 898.971 74.627 897.201C72.5935 895.309 71.3798 893.277 70.2601 893.386C69.1022 893.496 68.0358 895.684 66.9297 896.962C67.9894 898.311 68.9836 900.574 70.1251 900.747Z" fill="white"/>
<path fill-rule="evenodd" clip-rule="evenodd" d="M53.0748 897.413C51.4913 895.471 50.1335 893.093 49.6948 893.409C48.5224 894.262 47.5909 896.15 46.9279 897.918C46.7757 898.322 48.2567 900.908 48.6885 900.75C50.0117 900.269 51.191 898.94 53.0748 897.413Z" fill="white"/>
<path fill-rule="evenodd" clip-rule="evenodd" d="M93.1001 896.263C93.1198 894.906 92.174 893.512 91.1975 890.923C89.9554 893.772 89.2187 895.459 88.4821 897.148C89.5459 898.351 90.6085 899.554 91.671 900.758C92.1851 899.261 93.0804 897.779 93.1001 896.263Z" fill="white"/>
<path fill-rule="evenodd" clip-rule="evenodd" d="M157.757 897.046C156.084 895.288 154.6 893.056 154.182 893.421C153.044 894.412 152.227 896.407 151.605 898.238C151.492 898.57 153.108 900.954 153.575 900.745C154.873 900.157 155.987 898.702 157.757 897.046Z" fill="white"/>
<path fill-rule="evenodd" clip-rule="evenodd" d="M177.77 897.068C176.688 895.754 175.653 893.508 174.512 893.387C173.367 893.264 172.116 895.259 170.073 897.068C172.138 898.899 173.384 900.887 174.51 900.751C175.658 900.613 176.688 898.383 177.77 897.068Z" fill="white"/>
<path fill-rule="evenodd" clip-rule="evenodd" d="M132.849 900.747C133.581 900.573 134.709 898.156 134.664 896.842C134.62 895.519 133.356 893.411 132.607 893.382C131.878 893.352 131.127 895.522 130.047 897.275C131.265 898.889 132.131 900.922 132.849 900.747Z" fill="white"/>
<path fill-rule="evenodd" clip-rule="evenodd" d="M114.652 897.11C113.812 895.288 113.168 893.216 112.883 893.392C111.867 894.013 110.973 895.398 110.034 896.492C110.581 898.006 111.227 900.873 111.658 900.755C112.597 900.496 113.43 898.722 114.652 897.11Z" fill="white"/>
<path fill-rule="evenodd" clip-rule="evenodd" d="M75.4717 252.271C72.307 243.361 68.4471 235.45 63.4337 228.959C61.4124 226.341 59.7344 223.026 57.9817 219.91C57.7584 219.512 57.84 217.983 58.0992 217.68C61.2502 213.976 64.5582 210.601 67.6239 206.728C69.8085 203.97 71.7703 200.709 73.6463 197.399C74.1229 196.561 73.8933 194.688 73.9881 193.29C73.0422 193.528 71.6002 193.22 71.2289 194.089C68.061 201.511 62.8386 204.462 58.5932 209.504C58.2224 209.945 57.6568 209.961 57.1817 210.175C57.1206 209.538 57.0284 208.904 57.0053 208.263C56.9747 207.422 56.9979 206.575 56.9979 205.732C57.0932 205.73 57.1891 205.729 57.2849 205.727C57.2849 198.158 57.2839 190.588 57.287 183.019C57.287 182.316 57.4382 181.543 57.3044 180.922C56.9047 179.071 56.398 177.28 55.933 175.466C55.3763 177.02 54.413 178.523 54.3335 180.137C53.9633 187.62 53.85 195.136 53.6193 202.638C53.5372 205.291 53.4124 207.944 53.2528 210.589C53.0969 213.166 52.3148 213.266 51.1646 211.858C47.7207 207.647 44.339 203.285 40.774 199.354C39.5332 197.986 37.8289 197.701 36.3358 196.922C37.0289 199.11 37.4054 201.886 38.4761 203.374C41.2991 207.299 44.379 210.768 47.4426 214.222C49.6467 216.706 49.7773 219.164 47.8055 221.892C42.9423 228.622 38.0258 235.271 33.3728 242.364C31.5911 245.078 30.3386 248.792 29.1226 252.3C28.755 253.362 29.318 255.256 29.4549 256.769C30.2554 256.227 31.2851 256.024 31.8186 255.09C35.6379 248.404 39.2345 241.382 43.154 234.857C45.3112 231.267 47.9398 228.398 50.4046 225.303C50.7474 224.872 51.5248 224.663 51.8208 224.995C52.1183 225.33 52.2074 226.496 52.1457 227.249C51.6133 233.701 50.8975 240.12 50.491 246.59C50.0717 253.266 49.8374 259.987 49.7668 266.693C49.7536 267.963 50.886 269.263 51.49 270.549C52.0141 269.127 52.8968 267.773 53.0058 266.273C53.8232 255.015 54.4757 243.728 55.2193 232.455C55.301 231.217 55.4453 229.751 55.9167 228.897C56.2716 228.253 57.4977 227.867 57.8195 228.315C60.4291 231.975 63.1177 235.573 65.3882 239.745C67.9799 244.504 70.1187 249.893 72.563 254.871C73.156 256.082 74.4126 257.794 74.9519 257.476C76.573 256.518 76.2238 254.39 75.4717 252.271Z" fill="white"/>
<path fill-rule="evenodd" clip-rule="evenodd" d="M50.764 434.467C52.392 432.166 53.6858 425.699 52.8225 423.338C51.8289 420.615 48.1489 418.759 45.8494 419.234C36.7487 421.109 27.6885 423.706 18.704 426.732C14.5847 428.119 13.1507 425.575 13.2197 419.777C13.3336 409.978 13.9559 400.181 13.8441 390.399C13.7828 384.953 12.5656 379.561 12.0507 374.102C11.2039 365.145 10.8369 356.03 9.5737 347.238C9.09604 343.914 6.69132 341.307 5.16523 338.375C4.00395 340.985 2.31133 343.339 1.77123 346.247C-1.27329 362.629 -4.03405 379.147 -6.90767 395.61C-7.25277 397.58 -7.61868 399.557 -8.10291 401.443C-10.4934 410.758 -10.9382 410.357 -15.8583 404.253C-21.8629 396.803 -28.434 390.527 -34.798 383.838C-37.4876 381.011 -40.118 377.714 -43.0825 376.021C-44.716 375.087 -47.6641 376.025 -48.7827 377.962C-49.9187 379.934 -50.3646 384.764 -49.6657 387.318C-46.8326 397.683 -43.478 407.686 -40.2484 417.768C-36.7514 428.678 -33.2544 439.589 -29.6227 450.385C-25.9044 461.435 -29.2381 471.302 -31.8685 480.807C-35.3863 493.519 -39.9164 505.501 -43.5394 518.145C-44.3304 520.91 -43.8045 525.987 -42.6301 528.444C-41.7011 530.387 -38.5426 531.275 -36.9081 530.306C-33.0342 528.011 -29.4627 524.372 -25.7949 521.197C-22.976 518.754 -20.9975 519.206 -20.1221 524.799C-17.2452 543.157 -14.3146 561.49 -11.4125 579.84C-11.3238 580.402 -11.3797 581.025 -11.2811 581.581C-10.2173 587.64 -10.0771 596.07 -5.10442 596.203C-0.369473 596.329 -0.0495758 588.365 0.84877 582.405C1.90926 575.374 3.09573 568.388 4.47612 559.842C4.47612 551.649 4.33809 542.115 4.51775 532.598C4.68646 523.684 6.94986 521.796 11.8886 525.903C21.3837 533.797 30.8251 541.874 40.4462 549.354C42.0643 550.612 44.8612 550.264 46.3796 548.751C47.4478 547.688 47.8246 543.222 47.5113 540.584C47.1257 537.345 45.9129 534.179 44.6859 531.41C37.5616 515.325 30.2653 499.438 23.1639 483.327C20.504 477.293 20.5061 473.04 25.1984 467.843C34.2147 457.853 42.5211 446.128 50.764 434.467Z" fill="white"/>
<path fill-rule="evenodd" clip-rule="evenodd" d="M1429.9 265.117C1448.77 253.543 1468.68 247.901 1489.16 252.991C1489.67 253.118 1490.2 253.33 1490.73 253.543C1491.91 254.017 1493.09 254.491 1494.1 254.009C1495.58 253.295 1496.92 251.872 1498.27 250.45C1498.84 249.844 1499.42 249.237 1500 248.686C1499.46 247.668 1498.95 246.43 1498.44 245.191C1497.34 242.498 1496.23 239.804 1494.84 239.376C1488.89 237.534 1482.83 236.487 1476.78 235.439C1474.54 235.051 1472.3 234.663 1470.06 234.235C1452.11 234.161 1435.88 242.58 1419.21 252.84C1388.77 271.593 1360.37 296.081 1333.26 324.219C1316.44 341.667 1302.39 364.96 1290.44 391.188C1285.47 402.077 1279.66 412.021 1273.89 421.915C1273.24 423.027 1272.59 424.139 1271.94 425.25C1271.24 426.459 1269.78 426.538 1268.31 426.616C1267.61 426.653 1266.92 426.691 1266.3 426.849C1262.03 427.94 1257.74 428.908 1253.45 429.876C1243.67 432.08 1233.9 434.285 1224.35 437.964C1209.34 443.742 1194.48 451.166 1180.11 460.159C1175.76 462.886 1171.78 467.164 1167.81 471.441C1163.8 475.759 1159.79 480.076 1155.39 482.794C1147.23 487.831 1140.9 496.212 1134.53 504.633C1132.54 507.262 1130.55 509.894 1128.5 512.431C1126.25 515.213 1123.86 517.733 1121.48 520.25C1118.02 523.9 1114.57 527.544 1111.56 531.969C1101.76 546.372 1092.49 561.691 1083.29 577.085C1082.41 578.557 1082.31 581.22 1082.21 583.884C1082.17 585.117 1082.12 586.35 1082 587.466C1082.72 587.535 1083.44 587.653 1084.16 587.77C1085.87 588.051 1087.58 588.33 1089.23 587.955C1090.75 587.612 1092.23 585.623 1093.5 583.922L1093.52 583.885C1097.12 579.065 1100.65 574.13 1104.19 569.196C1111.61 558.839 1119.03 548.485 1126.95 539.2C1136.66 527.818 1147.1 517.987 1157.51 508.184C1159.11 506.671 1160.72 505.16 1162.32 503.645C1169.99 496.386 1177.78 489.058 1186.04 483.898C1202.37 473.703 1218.94 464.328 1235.67 455.952C1241.23 453.172 1247.08 451.896 1252.93 450.619C1255.41 450.08 1257.88 449.54 1260.34 448.885C1266.82 447.158 1265.62 453.121 1264.49 458.76C1264.44 458.988 1264.4 459.218 1264.35 459.445C1259.67 482.954 1258.8 506.67 1262.84 530.617C1273.5 593.856 1309.84 631.492 1349.37 600.181C1368.24 585.232 1375.35 558.625 1375.63 530.871C1376.03 492.132 1363.31 469.67 1344.26 449.388C1332.63 436.994 1320.15 434.311 1307.64 431.621C1303.6 430.752 1299.56 429.884 1295.54 428.684C1288 426.437 1288.33 422.422 1292.09 415.607C1307.71 387.232 1323.79 359.592 1343.89 338.825C1347.31 335.288 1350.64 331.514 1353.97 327.741C1358.11 323.049 1362.25 318.358 1366.57 314.124C1370.09 310.671 1373.9 307.957 1377.7 305.241C1379.68 303.827 1381.67 302.412 1383.61 300.892C1388.44 297.116 1393.22 293.153 1398 289.191C1408.48 280.51 1418.95 271.831 1429.9 265.117ZM1278.65 542.388C1269.87 513.285 1272.3 486.386 1278.14 458.532C1280.32 448.144 1285.56 444.945 1292.44 447.967C1294.94 449.064 1297.54 449.637 1300.13 450.211C1302.26 450.682 1304.38 451.151 1306.46 451.912C1309.58 453.047 1312.76 453.97 1315.95 454.897C1324.11 457.26 1332.29 459.631 1339.27 465.551C1347.09 472.187 1353.25 484.604 1359.08 496.336C1359.69 497.561 1360.29 498.78 1360.9 499.982C1362.96 504.105 1363.82 509.754 1364.78 515.979C1365.24 518.976 1365.72 522.106 1366.36 525.265C1365.5 528.971 1364.68 532.742 1363.86 536.53C1362.03 544.993 1360.18 553.54 1357.73 561.623C1352.02 580.472 1330.54 597.009 1317.85 592.477C1299.79 586.027 1287.11 570.428 1278.65 542.388Z" fill="white"/>
<path fill-rule="evenodd" clip-rule="evenodd" d="M-33.2626 0.128644C-24.0901 3.42754 -15.0486 7.74198 -6.05177 12.1707C6.11382 18.1562 18.2835 24.174 30.2788 30.9593C40.5553 36.7723 50.6575 43.4154 60.7097 50.177C65.2175 53.2096 69.83 56.0045 74.445 58.8009L74.4453 58.8011C85.8559 65.7151 97.2816 72.6384 107.176 83.1854C111.923 88.2458 116.796 93.0863 121.677 97.9354C138.057 114.208 154.535 130.578 166.699 155.681C167.418 157.165 169.596 157.656 170.984 157.348C172.48 157.016 173.997 156.334 175.504 155.657C178.081 154.498 180.633 153.351 183.021 153.978C183.749 154.169 184.478 154.359 185.207 154.549C195.945 157.349 206.846 160.191 216.927 166.206C222.609 169.595 227.669 175.662 232.723 181.722C234.855 184.277 236.986 186.833 239.163 189.185C240.571 190.707 241.995 192.202 243.419 193.696L243.421 193.697C247.597 198.08 251.778 202.466 255.574 207.573C258.376 211.341 260.902 215.623 263.429 219.907C265.57 223.535 267.712 227.164 270.023 230.486C279.337 243.87 285.77 260.5 292.206 277.14L292.207 277.143C294.295 282.54 296.383 287.94 298.571 293.23C299.276 294.937 299.854 296.879 300.436 298.836C302.123 304.507 303.842 310.288 308.808 310.763C323.708 312.193 334.685 326.484 345.297 340.475C358.451 357.814 368.334 379.837 378.268 401.973C378.623 402.766 378.979 403.558 379.334 404.352C379.579 404.896 379.824 405.441 380.069 405.985C389.607 427.197 396.097 450.57 402.56 473.848C403.186 476.1 403.811 478.351 404.438 480.599C411.288 505.146 416.392 531.336 420.136 557.574C422.584 574.716 423.692 592.344 424.8 609.973V609.975C425.287 617.729 425.775 625.483 426.376 633.196L426.092 633.298C425.307 633.581 424.522 633.863 423.736 634.146C418.621 626.523 416.335 616.705 415.858 605.432C415.769 603.329 415.744 601.189 415.72 599.047C415.662 593.96 415.604 588.864 414.682 584.21C412.706 574.219 410.992 564.095 409.278 553.969C405.619 532.35 401.959 510.73 395.74 490.415C394.749 487.178 393.746 483.947 392.743 480.714L392.737 480.695C388.565 467.252 384.387 453.79 381.043 439.832C379.117 431.794 375.968 425.199 372.851 418.672C370.618 413.997 368.402 409.355 366.663 404.241C357.261 376.598 342.787 357.133 327.811 338.367C324.848 334.654 321.235 332.258 317.409 329.72C315.587 328.513 313.716 327.272 311.844 325.842C312.863 331.442 313.754 336.789 314.61 341.929C316.434 352.879 318.101 362.891 320.521 372.418C323.648 384.726 323.155 397.169 322.665 409.56C322.436 415.33 322.208 421.088 322.346 426.817C322.562 435.779 320.065 445.066 317.634 454.104C316.983 456.526 316.337 458.928 315.749 461.301C311.739 477.491 302.122 482.573 293.252 472.623C291.935 471.146 290.59 469.731 289.243 468.316C283.765 462.555 278.274 456.78 274.696 446.799C274.443 446.095 274.19 445.39 273.938 444.686C265.55 421.326 257.295 398.337 261.568 369.599C265.305 344.458 272.899 324.37 289.16 315.692C293.776 313.233 294.026 309.749 291.401 303.814C286.756 293.326 282.173 282.738 277.962 271.801C270.613 252.698 261.971 235.19 250.884 221.566C239.914 208.086 228.481 195.298 216.517 184.225C204.417 173.027 191.438 164.128 177.192 170.992C178.936 175.725 180.717 180.403 182.494 185.068L182.495 185.071C186.521 195.639 190.521 206.141 194.002 217.065C194.187 217.645 194.372 218.226 194.558 218.808C199.608 234.626 204.71 250.607 202.394 269.851C200.504 285.533 195.093 291.812 185.33 289.164C174.138 286.127 166.091 274.971 158.112 263.911C157.534 263.111 156.957 262.311 156.379 261.514C153.006 256.868 150.115 249.698 148.981 242.846C144.705 216.987 146.22 192.26 157.412 170.791C159.222 167.32 160.244 164.77 157.333 161.339C153.808 157.183 150.34 152.902 146.873 148.622L146.872 148.621C143.646 144.639 140.42 140.656 137.148 136.774C134.801 133.99 132.471 131.157 130.141 128.324L130.14 128.323C123.336 120.051 116.527 111.773 109.275 104.656C102.691 98.1944 95.6646 92.8743 88.64 87.5556C85.8015 85.4065 82.9632 83.2576 80.1547 81.0335C78.7304 79.9055 77.3142 78.7384 75.8976 77.5709L75.8975 77.5708C71.9502 74.3175 67.9992 71.0614 63.8595 68.64C59.7163 66.216 55.4372 64.22 51.1636 62.2268L51.1635 62.2266C43.4785 58.6422 35.8115 55.0661 28.9843 49.0235C20.005 41.0755 10.4824 37.1744 0.956478 33.2721C-2.97861 31.6599 -6.91424 30.0478 -10.8123 28.1499C-13.3733 26.9025 -15.9474 25.712 -18.5214 24.5217C-24.6328 21.6952 -30.7433 18.8692 -36.6745 15.2842C-38.073 14.4404 -38.9243 11.2904 -39.7753 8.14167C-40.166 6.69615 -40.5566 5.2509 -41 4.02911C-40.1837 3.58475 -39.3407 2.95278 -38.4978 2.32075C-36.6615 0.944034 -34.8249 -0.432896 -33.2626 0.128644ZM158.001 201.721C157.377 204.933 157.401 208.466 157.426 211.999C157.437 213.567 157.448 215.134 157.402 216.674C156.425 237.472 163.27 251.326 173.479 261.945C175.143 263.675 176.964 265.016 178.787 266.36H178.788C180.034 267.278 181.28 268.196 182.479 269.241C190.118 275.895 192.451 274.495 192.861 260.929C193.406 242.925 188.632 227.351 182.409 212.865C180.881 209.305 179.297 205.805 177.712 202.308C175.267 196.906 172.822 191.508 170.587 185.892C168.1 179.639 165.346 180.705 163.279 185.063C160.953 189.966 159.144 195.833 158.001 201.721ZM270.613 388.736C269.336 367.563 275.007 350.277 284.093 336.554C287.675 331.143 294.133 329.774 299.449 328.728C300.271 328.567 301.477 333.106 302.639 337.474C303.107 339.236 303.568 340.969 303.993 342.357C304.361 343.555 304.655 344.808 304.95 346.064C305.206 347.159 305.463 348.255 305.769 349.312C314.11 378.154 316.166 407.873 310.813 438.687C310.1 442.801 309.478 446.978 309.038 451.186C308.151 459.656 304.16 463.523 299.375 459.832C285.886 449.423 268.765 414.513 270.613 388.736Z" fill="white"/>
</g>
<defs>
<clipPath id="clip0_2_1363">
<rect width="1440" height="896" fill="white"/>
</clipPath>
</defs>
</svg>
