<svg width="25" height="14" viewBox="0 0 25 14" fill="none" xmlns="http://www.w3.org/2000/svg">
<path d="M16.2333 0.858088C16.5878 0.434619 17.2185 0.378734 17.642 0.733266C18.7389 1.65163 19.5172 2.26881 20.5109 3.00149L21.3049 3.57918L22.8944 4.71004C24.4242 5.79841 24.8079 6.16333 24.9657 6.91548C25.15 7.79411 24.7933 8.3383 23.6915 9.27393L23.3186 9.58325L21.8048 10.7919L20.9592 11.4779C20.2694 12.0463 19.6021 12.6173 18.8995 13.2455C18.4878 13.6136 17.8556 13.5783 17.4875 13.1665C17.1194 12.7548 17.1547 12.1226 17.5665 11.7545C18.4708 10.946 19.3184 10.2293 20.2235 9.49669L21.584 8.41101C19.7048 8.36554 17.7625 8.3789 14.9407 8.441L9.6485 8.56832C6.46702 8.63455 4.40072 8.63456 2.18334 8.55209L0.951266 8.49883C-0.348383 8.43537 -0.301164 6.50002 1.00003 6.50002L21.956 6.5L21.8765 6.4417L20.781 5.66333C19.1539 4.50547 18.224 3.80823 16.9354 2.74652L16.3581 2.26678C15.9346 1.91225 15.8787 1.28156 16.2333 0.858088Z" fill="white"/>
</svg>
