<svg width="143" height="58" viewBox="0 0 143 58" fill="none" xmlns="http://www.w3.org/2000/svg">
<path fill-rule="evenodd" clip-rule="evenodd" d="M134.827 15.0772V0H142.625V43.8529H135.305V40.7876H135.186C134.986 41.0711 134.695 41.428 134.317 41.8681C133.936 42.3129 133.016 42.9045 131.557 43.6427C130.097 44.3809 128.508 44.7524 126.79 44.7524C122.59 44.7524 119.241 43.232 116.742 40.1862C114.243 37.1454 112.993 33.0583 112.993 27.9348C112.993 22.7674 114.036 18.6705 116.755 15.6492C119.474 12.623 122.99 11.1124 126.668 11.1124C128.35 11.1124 129.858 11.4448 131.198 12.1048C132.538 12.7648 133.448 13.415 133.927 14.0554L134.707 15.0772H134.827ZM132.997 35.713C134.217 34.3735 134.827 32.7407 134.827 30.8193V24.9918C134.827 23.0656 134.217 21.4474 132.997 20.1225C131.776 18.8026 130.107 18.1425 127.988 18.1425C125.709 18.1425 123.94 18.9638 122.68 20.6065C121.421 22.2491 120.791 24.6887 120.791 27.9349C120.791 31.1371 121.421 33.5717 122.68 35.2339C123.94 36.8961 125.709 37.7272 127.988 37.7272C130.107 37.7272 131.776 37.0575 132.997 35.713ZM101.464 43.8529H109.262V12.0118H101.464V43.8529ZM109.262 0H101.464V7.38705H109.262V0ZM87.67 36.6761C86.4912 37.5757 84.7217 38.0254 82.3617 38.0254C79.2426 38.0254 77.683 36.945 77.683 34.7841C77.683 33.9384 77.993 33.1904 78.6129 32.5303C79.2327 31.8704 80.541 31.2984 82.5423 30.8193C82.8956 30.7301 83.2287 30.6426 83.5522 30.5557L83.5516 30.5563C83.5516 30.5563 86.8014 29.7714 89.4394 28.4202V33.3419C89.4394 34.6619 88.8488 35.7716 87.67 36.6761ZM83.6821 11.1123C87.5602 11.1123 90.7379 12.1341 93.2175 14.1777C95.6972 16.2212 96.937 19.3843 96.937 23.6668V43.8529H90.3986V40.7876H90.279C90.1985 40.9098 90.0984 41.0613 89.9789 41.2373C89.8592 41.4183 89.5591 41.7311 89.0807 42.171C88.5999 42.6111 88.0605 43.012 87.4601 43.3738C86.8597 43.7307 86.0397 44.0533 85 44.332C83.9603 44.6155 82.8424 44.7524 81.6417 44.7524C77.8026 44.7524 74.9349 43.843 73.0361 42.0195C71.1348 40.2009 70.1855 37.9667 70.1855 35.3218C70.1855 32.5597 71.0055 30.4574 72.6456 29.0153C74.2832 27.5731 77.0631 26.3704 80.9827 25.4122C84.6217 24.5273 86.8988 23.8282 87.8213 23.31C88.739 22.7869 89.2003 22.0438 89.2003 21.0855C89.2003 20.1224 88.7488 19.3207 87.8506 18.6803C86.95 18.0398 85.6004 17.7221 83.8016 17.7221C81.6808 17.7221 80.1627 18.1914 79.2425 19.13C78.3224 20.0735 77.6025 21.3447 77.0826 22.9482L70.6052 20.2447C71.3643 17.5607 72.8457 15.3705 75.0447 13.6643C77.2437 11.963 80.1212 11.1123 83.6821 11.1123ZM52.6649 37.7272C50.5854 37.7272 48.9258 37.0965 47.686 35.8352C46.4462 34.5739 45.8262 33.0192 45.8262 31.1761V24.6301C45.8262 22.826 46.4462 21.2959 47.686 20.0346C48.9258 18.7732 50.5854 18.1425 52.6649 18.1425C54.9834 18.1425 56.8627 18.9835 58.3026 20.6652C59.7427 22.3469 60.4626 24.7718 60.4626 27.9349C60.4626 31.098 59.7329 33.5179 58.2734 35.2046C56.8114 36.8863 54.9443 37.7272 52.6649 37.7272ZM50.8953 11.5328C51.9155 11.2541 53.004 11.1123 54.1633 11.1123C57.9219 11.1123 61.2118 12.623 64.0307 15.6491C66.8496 18.6705 68.2603 22.7673 68.2603 27.9348C68.2603 33.1414 66.8984 37.2431 64.1796 40.2498C61.4607 43.2515 58.161 44.7524 54.2828 44.7524C53.1236 44.7524 52.0546 44.6155 51.0759 44.332C50.0948 44.0533 49.3064 43.7257 48.7061 43.3444C48.1057 42.9631 47.5858 42.5817 47.1465 42.2004C46.7047 41.8191 46.3851 41.4916 46.1874 41.208L45.9457 40.7876H45.8262V57.3705H38.0284V12.0118H45.4674V15.0772H45.5869C45.6248 15.0197 45.6669 14.957 45.7134 14.8878C45.7658 14.8096 45.8237 14.7233 45.8872 14.6273C46.0067 14.4465 46.3167 14.1385 46.8171 13.6936C47.3149 13.2537 47.8665 12.8527 48.4669 12.4958C49.0649 12.1341 49.8751 11.8114 50.8953 11.5328ZM19.8178 25.6328H14.119L14.5998 17.2826H20.2962L19.8178 25.6328ZM21.1382 4.24412H26.776L26.2952 11.9979H34.0929V17.2826H25.9364L25.4555 25.6328H31.933V30.9176H25.0968L24.6771 38.6664H19.0368L19.4566 30.9176H13.7601L13.3404 38.6664H7.70254L8.12233 30.9176H0.624756V25.6328H8.54211L9.02051 17.2826H2.72367V11.9979H9.38168L9.86007 4.24412H15.4394L14.9585 11.9979H20.6573L21.1382 4.24412Z" fill="black"/>
</svg>
