<svg width="1440" height="840" viewBox="0 0 1440 840" fill="none" xmlns="http://www.w3.org/2000/svg">
<g clip-path="url(#clip0_2_1033)">
<rect width="1440" height="840" fill="#AAD5D2"/>
<rect width="1440" height="840" fill="url(#paint0_linear_2_1033)"/>
<path fill-rule="evenodd" clip-rule="evenodd" d="M153.895 428.66C152.759 428.138 147.025 428.718 140.389 428.859C143.19 431.505 143.958 433.668 147.496 434.934C149.113 435.514 156.195 434.327 160.798 433.942C158.625 432.149 157.183 430.183 153.895 428.66Z" fill="white"/>
<path fill-rule="evenodd" clip-rule="evenodd" d="M116.037 461.438C117.313 460.12 115.155 458.295 114.117 456.094C108.438 456.317 102.607 456.187 102.413 456.617C101.725 458.156 102.945 459.882 103.44 461.539C107.856 461.536 115.49 462.007 116.037 461.438Z" fill="white"/>
<path fill-rule="evenodd" clip-rule="evenodd" d="M60.5457 488.365C65.7685 487.738 73.4489 487.615 75.5185 486.344C77.5886 485.072 74.0479 482.651 72.9648 480.733C67.5517 481.078 62.1322 481.42 54.0081 481.938C56.8102 484.691 58.6826 486.529 60.5457 488.365Z" fill="white"/>
<path fill-rule="evenodd" clip-rule="evenodd" d="M33.9865 511.863C31.4432 510.1 29.7265 508.077 25.9025 506.717C24.5674 506.244 18.0424 507.414 11.4633 508.08C14.3071 510.182 15.9172 512.579 18.0259 512.692C23.226 512.972 28.6547 512.207 33.9865 511.863Z" fill="white"/>
<path fill-rule="evenodd" clip-rule="evenodd" d="M11.1136 485.872C4.22199 486.326 -1.43147 486.258 -4.53002 487.101C-5.93203 487.482 -2.2598 489.676 -0.885532 491.045C3.66008 490.662 8.73988 490.514 12.4673 489.769C13.8073 489.502 11.9016 487.801 11.1136 485.872Z" fill="white"/>
<path fill-rule="evenodd" clip-rule="evenodd" d="M52.1631 465.397C52.2878 463.873 50.3581 462.216 49.2274 460.609C45.099 460.805 37.8243 460.659 37.4904 461.27C36.7589 462.621 39.5242 464.354 41.4765 466.654C46.7928 466.067 52.1187 465.905 52.1631 465.397Z" fill="white"/>
<path fill-rule="evenodd" clip-rule="evenodd" d="M95.5091 431.933C88.3147 433.313 80.4375 434.247 80.4403 434.933C80.4439 436.783 83.3611 438.646 86.239 440.201C86.7352 440.475 95.1545 439.417 95.6382 438.702C96.893 436.841 95.7701 434.828 95.5091 431.933Z" fill="white"/>
<path fill-rule="evenodd" clip-rule="evenodd" d="M138.349 405.095C130.42 407.059 123.669 407.891 121.924 409.403C120.182 410.909 123.464 413.098 124.546 414.986C129.51 414.086 136.458 413.606 138.87 412.168C141.2 410.78 138.848 408.399 138.349 405.095Z" fill="white"/>
<path fill-rule="evenodd" clip-rule="evenodd" d="M35.4619 440.024C34.312 439.467 28.6044 439.957 21.9033 439.98C24.4927 442.697 25.0474 444.868 28.4716 446.163C30.0693 446.764 37.2278 445.664 41.8685 445.336C39.8668 443.536 38.619 441.561 35.4619 440.024Z" fill="white"/>
<path fill-rule="evenodd" clip-rule="evenodd" d="M78.9201 413.314C77.7717 412.755 72.0819 413.231 65.418 413.243C67.9971 415.972 68.5686 418.133 71.9702 419.459C73.4723 420.047 80.7118 418.95 85.3497 418.618C83.3397 416.819 82.0836 414.85 78.9201 413.314Z" fill="white"/>
<path fill-rule="evenodd" clip-rule="evenodd" d="M-13.9647 473.103C-8.85791 472.33 -1.35274 472.008 0.663519 470.655C2.61732 469.344 0.636002 466.21 -2.72675 465.266C-6.8077 464.118 -14.1439 464.423 -24.1569 463.879C-17.9226 469.518 -15.9427 471.312 -13.9647 473.103Z" fill="white"/>
<path fill-rule="evenodd" clip-rule="evenodd" d="M22.2722 419.478C19.5802 418.993 14.5908 420.084 10.6119 420.482C11.659 421.908 12.7061 423.333 14.2785 425.471C19.8965 424.572 23.6655 423.97 27.429 423.367C25.8022 422.006 25.1299 419.993 22.2722 419.478Z" fill="white"/>
<path fill-rule="evenodd" clip-rule="evenodd" d="M10.0099 403.146C9.82738 401.278 6.81229 399.449 3.85083 397.902C3.38001 397.653 -4.9634 398.797 -5.42473 399.531C-6.59347 401.394 -5.35418 403.393 -4.95437 406.268C2.20735 404.826 10.0797 403.8 10.0099 403.146Z" fill="white"/>
<path fill-rule="evenodd" clip-rule="evenodd" d="M45.4951 553.964C48.8059 554.636 54.697 553.713 59.4591 553.487C58.5644 551.796 59.142 549.439 56.3758 548.592C53.5345 547.724 47.4385 548.33 39.2798 548.264C42.0242 551.017 42.3933 553.335 45.4951 553.964Z" fill="white"/>
<path fill-rule="evenodd" clip-rule="evenodd" d="M19.1326 578.268C18.3757 576.581 19.0767 574.018 16.4461 573.451C13.7707 572.874 7.81243 574.258 3.29108 574.785C3.38262 576.559 3.47693 578.334 3.61624 580.998C10.2824 579.825 14.7095 579.048 19.1326 578.268Z" fill="white"/>
<path fill-rule="evenodd" clip-rule="evenodd" d="M265.881 418.499C262.724 417.862 256.856 418.911 248.935 419.435C253.146 421.906 254.705 424.096 258.252 424.539C261.694 424.968 267.182 423.605 271.772 423.027C269.915 421.451 269.195 419.17 265.881 418.499Z" fill="white"/>
<path fill-rule="evenodd" clip-rule="evenodd" d="M230.117 448.58C231.857 447.195 230.607 444.4 227.975 443.805C225.231 443.184 219.245 444.45 214.677 444.891C214.746 446.667 214.812 448.441 215.024 453.869C222.11 451.494 227.992 450.269 230.117 448.58Z" fill="white"/>
<path fill-rule="evenodd" clip-rule="evenodd" d="M173.784 475.937C177.183 476.455 182.819 475.267 187.474 474.825C186.004 473.2 185.791 470.892 182.704 470.147C179.697 469.425 173.742 470.303 165.655 470.609C169.306 473.185 170.417 475.421 173.784 475.937Z" fill="white"/>
<path fill-rule="evenodd" clip-rule="evenodd" d="M145.016 500.915C147.498 499.355 146 497.01 146.405 493.233C139.359 494.73 132.032 495.441 129.963 496.959C127.819 498.529 130.773 500.886 131.496 502.898C136.192 502.274 143.14 502.094 145.016 500.915Z" fill="white"/>
<path fill-rule="evenodd" clip-rule="evenodd" d="M102.984 519.95C96.4034 521.239 92.0209 522.099 87.6379 522.955C88.6165 524.609 88.2188 527.128 90.9669 527.665C93.6577 528.19 99.5613 526.694 104.056 526.085C103.75 524.333 103.444 522.584 102.984 519.95Z" fill="white"/>
<path fill-rule="evenodd" clip-rule="evenodd" d="M2.43212 557.67C5.07248 556.349 3.38966 553.898 3.75688 550.502C-4.4846 552.175 -11.3757 552.769 -13.397 554.204C-15.4909 555.689 -12.8566 557.99 -12.2933 559.934C-7.20427 559.225 -0.247252 559.008 2.43212 557.67Z" fill="white"/>
<path fill-rule="evenodd" clip-rule="evenodd" d="M38.9597 527.188C36.0317 526.557 31.0747 527.104 23.4425 527.154C27.1683 529.97 29.3729 531.638 31.5821 533.308C36.359 532.529 41.1336 531.751 45.9078 530.973C43.6724 529.667 42.2376 527.892 38.9597 527.188Z" fill="white"/>
<path fill-rule="evenodd" clip-rule="evenodd" d="M171.076 447.411C163.857 448.696 155.983 449.536 155.936 450.217C155.81 452.072 158.525 453.978 161.274 455.569C161.773 455.857 170.248 454.922 170.73 454.25C172.063 452.379 171.13 450.346 171.076 447.411Z" fill="white"/>
<path fill-rule="evenodd" clip-rule="evenodd" d="M211.488 422.619C206.427 423.371 199.432 423.648 196.863 425.007C194.286 426.372 196.126 428.815 195.963 432.158C204.131 430.419 210.994 429.765 212.967 428.308C214.98 426.823 212.177 424.549 211.488 422.619Z" fill="white"/>
<path fill-rule="evenodd" clip-rule="evenodd" d="M128.936 479.936C130.03 478.952 127.019 476.47 124.055 475.938C121.075 475.4 113.913 476.022 112.337 476.937C110.805 477.827 114.035 479.73 115.689 481.854C121.679 481.068 127.872 480.905 128.936 479.936Z" fill="white"/>
<path fill-rule="evenodd" clip-rule="evenodd" d="M84.2832 500.859C78.6002 501.082 72.7704 500.953 72.5813 501.386C71.8915 502.922 73.1145 504.651 73.6139 506.304C78.0311 506.305 85.6022 506.789 86.2121 506.201C87.5436 504.922 85.342 503.094 84.2832 500.859Z" fill="white"/>
<path fill-rule="evenodd" clip-rule="evenodd" d="M156.224 515.634C155.076 515.077 149.401 515.564 142.658 515.581C145.273 518.31 145.853 520.477 149.271 521.78C150.835 522.377 157.993 521.274 162.616 520.94C160.617 519.141 159.368 517.169 156.224 515.634Z" fill="white"/>
<path fill-rule="evenodd" clip-rule="evenodd" d="M197.915 491.065C194.65 490.38 189.449 490.82 183.081 490.742C187.233 492.692 189.475 494.543 192.84 495.105C196.328 495.684 200.913 495.01 205.018 494.886C202.728 493.567 201.271 491.766 197.915 491.065Z" fill="white"/>
<path fill-rule="evenodd" clip-rule="evenodd" d="M35.8483 620.667C37.3588 621.073 42.9729 619.348 46.7338 618.585C45.6327 617.187 45.4826 615.367 43.0992 614.539C41.5438 614.004 36.7456 614.914 30.3871 615.411C32.6987 617.911 33.0687 619.916 35.8483 620.667Z" fill="white"/>
<path fill-rule="evenodd" clip-rule="evenodd" d="M-14.1415 648.586C-5.70709 647.063 1.25272 646.595 3.41678 645.2C5.69851 643.726 3.39996 641.371 3.1016 639.399C-2.04043 640.008 -9.02373 640.091 -11.8051 641.375C-14.6254 642.676 -13.2938 645.164 -14.1415 648.586Z" fill="white"/>
<path fill-rule="evenodd" clip-rule="evenodd" d="M67.7966 640.887C66.9286 639.074 66.065 637.261 64.5999 634.189C58.2107 635.757 53.3082 636.352 51.8428 637.488C50.3133 638.679 52.0869 640.386 52.4168 641.869C57.5411 641.543 62.6723 641.215 67.7966 640.887Z" fill="white"/>
<path fill-rule="evenodd" clip-rule="evenodd" d="M14.9582 667.262C16.8758 667.761 23.4097 666.113 27.8488 665.435C24.7921 663.693 22.3068 661.77 18.3105 660.33C17.1966 659.93 11.5857 660.963 5.37494 661.621C9.13233 664.021 10.8551 666.196 14.9582 667.262Z" fill="white"/>
<path fill-rule="evenodd" clip-rule="evenodd" d="M104.344 609.288C102.99 608.717 96.3658 609.507 89.7495 609.774C91.6711 612.094 92.3157 614.634 94.1873 614.797C99.3951 615.246 105.119 614.71 110.639 614.562C108.696 612.764 107.72 610.717 104.344 609.288Z" fill="white"/>
<path fill-rule="evenodd" clip-rule="evenodd" d="M195.512 562.409C192.455 560.672 189.979 558.749 185.979 557.311C184.858 556.909 179.253 557.94 173.038 558.596C176.803 560.997 178.534 563.163 182.64 564.245C184.526 564.738 191.08 563.088 195.512 562.409Z" fill="white"/>
<path fill-rule="evenodd" clip-rule="evenodd" d="M150.512 583.105C145.074 583.399 139.639 583.693 131.471 584.136C134.105 586.928 135.846 588.78 137.585 590.632C142.838 590.049 150.544 589.988 152.66 588.74C154.815 587.471 151.46 585.031 150.512 583.105Z" fill="white"/>
<path fill-rule="evenodd" clip-rule="evenodd" d="M229.833 530.733C227.406 529.88 221.889 530.009 213.424 529.372C220.04 534.068 221.479 536.236 225.447 537.398C227.268 537.929 234.057 536.484 238.593 535.936C235.776 534.167 233.81 532.131 229.833 530.733Z" fill="white"/>
<path fill-rule="evenodd" clip-rule="evenodd" d="M34.8349 681.512C30.5623 681.601 23.0081 681.313 22.6597 681.858C21.7794 683.246 24.1391 685.009 25.6139 687.255C31.0699 686.855 36.6215 686.835 36.7499 686.372C37.167 684.838 35.6265 683.143 34.8349 681.512Z" fill="white"/>
<path fill-rule="evenodd" clip-rule="evenodd" d="M203.23 578.65C200.965 578.059 196.312 578.508 190.84 578.498C193.02 580.158 193.733 581.797 196.224 582.293C198.759 582.797 203.047 582.177 206.569 582.05C205.553 580.872 205.558 579.255 203.23 578.65Z" fill="white"/>
<path fill-rule="evenodd" clip-rule="evenodd" d="M291.847 529.619C293.386 528.387 289.862 526.497 288.58 524.898C284.085 525.833 279.589 526.767 272.695 528.198C275.655 530.371 277.604 531.794 279.547 533.223C283.836 532.048 289.984 531.11 291.847 529.619Z" fill="white"/>
<path fill-rule="evenodd" clip-rule="evenodd" d="M246.14 551.849C245.44 551.369 238.811 552.458 232.194 553.088C235.132 555.28 236.502 556.95 239.334 558.046C240.271 558.41 247.413 557.246 247.531 556.86C248.068 555.126 248.072 553.165 246.14 551.849Z" fill="white"/>
<path fill-rule="evenodd" clip-rule="evenodd" d="M76.6871 654.472C71.2982 654.862 65.9068 655.256 57.7892 655.85C60.7793 658.573 62.7759 660.387 64.7673 662.205C69.9566 661.534 77.6059 661.35 79.6231 660.057C81.6161 658.78 77.8996 656.378 76.6871 654.472Z" fill="white"/>
<path fill-rule="evenodd" clip-rule="evenodd" d="M165.101 607.53C167.673 606.012 167.03 603.811 167.757 601.901C164.536 601.952 161.32 602.005 158.106 602.057C155.193 602.629 149.907 603.133 149.829 603.784C149.623 605.494 151.682 607.27 152.845 609.021C157.087 608.558 163.403 608.535 165.101 607.53Z" fill="white"/>
<path fill-rule="evenodd" clip-rule="evenodd" d="M118.864 630.047C116.002 629.343 107.666 629.486 106.889 630.087C104.72 631.759 105.227 633.855 104.268 637.228C112.731 635.806 118.384 635.313 121.92 634.043C123.367 633.522 121.455 630.683 118.864 630.047Z" fill="white"/>
<path fill-rule="evenodd" clip-rule="evenodd" d="M327.811 499.903C325.697 499.153 319.87 499.684 312.055 499.608C315.306 502.526 316.095 504.71 319.627 505.81C321.48 506.387 328.141 505.06 332.622 504.594C331.154 502.984 330.841 500.975 327.811 499.903Z" fill="white"/>
<path fill-rule="evenodd" clip-rule="evenodd" d="M372.15 473.374C371.377 472.894 366.571 473.578 361.128 473.86C362.403 476.299 362.191 478.313 364.583 479.395C365.695 479.898 371.871 478.584 375.755 478.09C374.671 476.483 374.262 474.683 372.15 473.374Z" fill="white"/>
<path fill-rule="evenodd" clip-rule="evenodd" d="M413.82 448.8C411.17 448.27 405.818 449.421 399.948 450.007C402.178 452.126 402.661 454.32 405.39 454.692C408.186 455.074 415.164 454.002 416.66 452.95C418.169 451.89 416.394 449.316 413.82 448.8Z" fill="white"/>
<path fill-rule="evenodd" clip-rule="evenodd" d="M271.087 506.066C269.787 505.578 263.251 506.653 256.63 507.228C259.275 509.388 260.652 511.813 262.727 511.944C267.899 512.27 273.4 511.551 278.761 511.252C276.356 509.479 274.79 507.453 271.087 506.066Z" fill="white"/>
<path fill-rule="evenodd" clip-rule="evenodd" d="M396.732 427.501C395.639 427.124 390.015 428.278 383.832 429.067C387.796 431.391 389.717 433.602 393.926 434.55C396.132 435.044 402.361 433.317 406.774 432.594C403.547 430.854 400.874 428.929 396.732 427.501Z" fill="white"/>
<path fill-rule="evenodd" clip-rule="evenodd" d="M305.057 487.572C313.12 486.276 319.29 485.892 322.152 484.584C323.679 483.886 319.484 481.593 317.873 480.022C313.403 480.65 307.776 480.896 304.869 482.037C302.898 482.805 304.771 484.829 305.057 487.572Z" fill="white"/>
<path fill-rule="evenodd" clip-rule="evenodd" d="M349.196 461.001C354.377 460.33 362.022 460.145 364.039 458.85C366.03 457.577 362.33 455.176 361.119 453.268C355.711 453.667 350.294 454.065 342.172 454.665C345.168 457.369 347.18 459.185 349.196 461.001Z" fill="white"/>
<path fill-rule="evenodd" clip-rule="evenodd" d="M91.3791 588.81C85.8583 588.323 79.9491 588.544 74.1874 588.497C74.8292 590.194 74.208 593.031 76.3809 593.355C81.0724 594.056 87.1926 593.469 94.9117 593.385C93.3064 591.168 92.9264 588.947 91.3791 588.81Z" fill="white"/>
<path fill-rule="evenodd" clip-rule="evenodd" d="M113.106 564.582C116.43 566.761 118.045 568.382 121.015 569.427C121.923 569.748 128.951 568.402 129.051 567.969C129.436 566.252 129.182 564.291 127.042 563.06C126.211 562.584 119.742 563.812 113.106 564.582Z" fill="white"/>
<path fill-rule="evenodd" clip-rule="evenodd" d="M171.11 536.485C170.377 535.97 163.695 537.005 157.101 537.549C159.842 539.762 161.057 541.462 163.808 542.574C164.774 542.966 171.958 541.896 172.086 541.542C172.715 539.801 172.984 537.802 171.11 536.485Z" fill="white"/>
<path fill-rule="evenodd" clip-rule="evenodd" d="M300.755 458.717C296.684 458.381 291.934 458.772 285.03 458.938C286.744 461.312 287.332 463.89 288.831 463.87C293.009 463.813 297.811 462.853 301.787 461.835C302.689 461.605 302.08 458.826 300.755 458.717Z" fill="white"/>
<path fill-rule="evenodd" clip-rule="evenodd" d="M338.159 433.327C337.338 432.855 330.839 434.088 324.208 434.864C327.535 437.033 329.161 438.652 332.138 439.696C333.051 440.017 340.071 438.678 340.168 438.241C340.553 436.522 340.293 434.563 338.159 433.327Z" fill="white"/>
<path fill-rule="evenodd" clip-rule="evenodd" d="M259.318 487.923C260.805 487.436 258.073 485.116 256.791 482.774C250.49 483.631 243.505 484.027 243.096 484.743C242.062 486.573 243.948 488.547 244.659 490.464C249.673 489.671 255.413 489.195 259.318 487.923Z" fill="white"/>
<path fill-rule="evenodd" clip-rule="evenodd" d="M214.997 509.826C210.487 510.357 205.98 510.887 199.187 511.687C200.646 514.162 201.615 515.809 202.585 517.459C207.007 516.669 213.27 516.257 215.327 514.986C217.398 513.711 215.281 511.581 214.997 509.826Z" fill="white"/>
<path fill-rule="evenodd" clip-rule="evenodd" d="M242.909 464.679C238.102 464.149 232.316 464.924 224.525 465.274C227.091 467.419 228.239 469.526 230.012 469.634C235.396 469.956 241.025 469.507 246.562 469.357C245.404 467.718 245.126 464.924 242.909 464.679Z" fill="white"/>
<path fill-rule="evenodd" clip-rule="evenodd" d="M287.136 438.114C281.622 438.255 276.107 438.394 267.933 438.602C269.908 441.469 271.233 443.384 272.554 445.302C277.951 444.867 285.792 445.015 288.071 443.841C290.496 442.586 287.668 440.076 287.136 438.114Z" fill="white"/>
<path fill-rule="evenodd" clip-rule="evenodd" d="M118.563 547.95C118.897 546.106 116.486 544.144 113.862 542.544C113.301 542.205 104.748 542.982 104.231 543.613C102.718 545.478 103.389 547.525 103.115 550.503C110.5 549.334 118.441 548.626 118.563 547.95Z" fill="white"/>
<path fill-rule="evenodd" clip-rule="evenodd" d="M62.3383 575.22C67.5747 574.636 75.2817 574.57 77.3675 573.324C79.5134 572.046 76.1671 569.612 75.222 567.684C69.813 567.977 64.4063 568.274 56.1818 568.719C58.8476 571.528 60.5893 573.374 62.3383 575.22Z" fill="white"/>
<path fill-rule="evenodd" clip-rule="evenodd" d="M36.7877 598.22C38.3247 597.782 35.3569 595.085 33.8072 592.27C26.7979 594.086 21.6375 595.069 18.0508 596.562C16.962 597.015 20.1722 599.926 21.5154 599.899C26.7195 599.801 32.738 599.366 36.7877 598.22Z" fill="white"/>
<path fill-rule="evenodd" clip-rule="evenodd" d="M40.3942 708.066C43.8203 708.519 49.3355 707.216 53.9371 706.682C52.2329 705.092 51.704 702.817 48.4816 702.114C45.4382 701.446 39.5769 702.426 31.4445 702.88C35.5134 705.41 36.9247 707.606 40.3942 708.066Z" fill="white"/>
<path fill-rule="evenodd" clip-rule="evenodd" d="M93.0885 675.658C90.1851 674.819 84.1028 675.486 76.0082 675.496C78.9301 678.212 79.4505 680.517 82.6056 681.12C85.9369 681.761 91.7824 680.782 96.5272 680.51C95.5155 678.832 95.9233 676.476 93.0885 675.658Z" fill="white"/>
<path fill-rule="evenodd" clip-rule="evenodd" d="M97.7223 701.975C102.847 702.107 108.081 701.424 113.267 701.065C111.748 699.513 111.457 697.189 108.431 696.585C103.836 695.667 97.35 695.944 86.4758 695.499C94.0909 700.003 95.7858 701.927 97.7223 701.975Z" fill="white"/>
<path fill-rule="evenodd" clip-rule="evenodd" d="M323.756 593.152C327.886 592.283 332.018 591.414 336.148 590.546C334.854 589.391 334.382 587.777 332.022 587.216C329.883 586.706 325.693 587.345 319.439 587.595C321.427 590.146 322.59 591.65 323.756 593.152Z" fill="white"/>
<path fill-rule="evenodd" clip-rule="evenodd" d="M279.255 619.65C283.734 618.99 290.042 618.761 292.188 617.555C294.466 616.272 292.799 614.064 292.854 612.26C288.309 612.652 283.766 613.043 277.087 613.619C278.017 616.208 278.634 617.931 279.255 619.65Z" fill="white"/>
<path fill-rule="evenodd" clip-rule="evenodd" d="M249.427 643.713C250.332 642.191 248.728 640.402 248.191 638.725C243.832 638.795 236.324 638.424 235.757 639.027C234.49 640.37 236.681 642.201 238.996 647.016C244.604 645.323 248.835 644.711 249.427 643.713Z" fill="white"/>
<path fill-rule="evenodd" clip-rule="evenodd" d="M198.39 671.764C199.288 672.074 206.303 670.693 206.394 670.24C206.743 668.524 206.429 666.551 204.203 665.35C203.321 664.874 196.806 666.163 190.268 666.969C193.674 669.117 195.37 670.725 198.39 671.764Z" fill="white"/>
<path fill-rule="evenodd" clip-rule="evenodd" d="M150.921 697.658C158.092 696.24 163.525 695.534 167.422 694.198C168.872 693.7 167.054 690.617 166.13 690.607C160.873 690.536 154.875 690.627 150.35 691.569C148.733 691.905 150.526 694.777 150.921 697.658Z" fill="white"/>
<path fill-rule="evenodd" clip-rule="evenodd" d="M583.014 430.039C580.078 431.98 577.141 433.921 574.205 435.864L588.682 435.368C586.782 433.593 584.886 431.817 583.014 430.039Z" fill="white"/>
<path fill-rule="evenodd" clip-rule="evenodd" d="M529.573 458.541C529.517 460.017 532.288 461.651 533.921 463.223C538.237 462.631 543.364 462.302 546.442 461.309C547.507 460.967 543.481 458.981 540.734 456.989C535.632 457.653 529.593 457.927 529.573 458.541Z" fill="white"/>
<path fill-rule="evenodd" clip-rule="evenodd" d="M490.362 489.916C494.848 489.258 501.164 489.032 503.302 487.828C505.585 486.542 503.911 484.332 503.964 482.526C499.446 482.918 494.932 483.309 488.204 483.893C489.128 486.474 489.745 488.195 490.362 489.916Z" fill="white"/>
<path fill-rule="evenodd" clip-rule="evenodd" d="M378.29 561.086C374.164 560.729 369.369 561.068 362.425 561.182C363.988 563.564 364.308 566.137 365.963 566.159C369.988 566.207 374.899 565.27 378.848 564.275C379.865 564.019 379.511 561.19 378.29 561.086Z" fill="white"/>
<path fill-rule="evenodd" clip-rule="evenodd" d="M459.977 514.448C460.905 512.683 461.663 510.691 460.211 509.227C459.703 508.714 452.801 509.475 446.073 509.78C448.247 512.051 449.026 513.817 451.523 515.007C452.519 515.48 459.836 514.723 459.977 514.448Z" fill="white"/>
<path fill-rule="evenodd" clip-rule="evenodd" d="M417.697 533.537C410.465 534.93 402.633 535.866 402.646 536.547C402.679 538.4 405.604 540.259 408.48 541.817C408.968 542.083 417.354 541.037 417.83 540.323C419.08 538.467 417.959 536.459 417.697 533.537Z" fill="white"/>
<path fill-rule="evenodd" clip-rule="evenodd" d="M531.59 437.321C526.661 436.774 520.792 437.471 513.12 437.74C515.411 439.902 516.351 442.036 518.041 442.148C523.478 442.513 529.194 442.133 534.805 442.039C533.792 440.388 533.679 437.554 531.59 437.321Z" fill="white"/>
<path fill-rule="evenodd" clip-rule="evenodd" d="M494.263 466.951C495.771 466.021 492.524 464.121 490.879 462.04C484.889 462.829 478.705 462.997 477.644 463.965C476.567 464.954 479.597 467.439 482.553 467.963C485.558 468.494 492.783 467.866 494.263 466.951Z" fill="white"/>
<path fill-rule="evenodd" clip-rule="evenodd" d="M437.26 494.273C438.692 494.885 446.102 493.914 450.793 493.662C449.014 491.855 448.042 489.876 445.057 488.323C443.891 487.717 438.208 488.066 431.484 487.904C433.747 490.726 434.025 492.891 437.26 494.273Z" fill="white"/>
<path fill-rule="evenodd" clip-rule="evenodd" d="M408.02 519.944C410.61 518.425 410.001 516.222 410.755 514.31C407.512 514.368 404.265 514.423 401.025 514.481C398.109 515.049 392.815 515.554 392.739 516.202C392.535 517.907 394.601 519.672 395.764 521.414C400.01 520.959 406.322 520.945 408.02 519.944Z" fill="white"/>
<path fill-rule="evenodd" clip-rule="evenodd" d="M347.955 543.19C349.621 544.878 351.288 546.57 352.953 548.258C357.665 547.364 364.467 546.846 366.472 545.472C368.368 544.173 366.83 541.233 363.87 540.363C360.131 539.263 353.424 539.526 348.002 539.203C347.983 540.531 347.969 541.86 347.955 543.19Z" fill="white"/>
<path fill-rule="evenodd" clip-rule="evenodd" d="M151.841 669.901C147.74 668.749 140.401 669.048 130.415 668.5C136.647 674.144 138.638 675.942 140.621 677.741C145.72 676.966 153.205 676.636 155.226 675.281C157.176 673.972 155.203 670.841 151.841 669.901Z" fill="white"/>
<path fill-rule="evenodd" clip-rule="evenodd" d="M180.973 646.279C179.831 648.148 181.073 650.149 181.507 653.048C188.634 651.591 196.451 650.579 196.395 649.895C196.247 648.038 193.158 646.209 190.201 644.659C189.74 644.417 181.419 645.549 180.973 646.279Z" fill="white"/>
<path fill-rule="evenodd" clip-rule="evenodd" d="M240.03 623.074C239.759 621.214 236.475 619.428 233.416 617.897C232.974 617.678 224.69 618.924 224.287 619.674C223.271 621.573 224.674 623.576 225.306 626.407C232.34 624.868 240.125 623.767 240.03 623.074Z" fill="white"/>
<path fill-rule="evenodd" clip-rule="evenodd" d="M264.734 594.776C263.276 595.652 266.568 597.518 268.332 599.607C274.19 598.863 280.339 598.721 281.315 597.782C282.326 596.806 278.323 595.061 276.515 593.651C272.394 593.986 266.206 593.889 264.734 594.776Z" fill="white"/>
<path fill-rule="evenodd" clip-rule="evenodd" d="M309.962 572.492C315.129 572.408 321.125 571.958 325.172 570.815C326.709 570.38 323.803 567.693 322.297 564.874C315.213 566.689 310.051 567.66 306.454 569.147C305.374 569.592 308.576 572.518 309.962 572.492Z" fill="white"/>
<path fill-rule="evenodd" clip-rule="evenodd" d="M471.695 442.865C468.807 442.058 462.785 442.767 454.616 442.847C457.739 445.546 458.4 447.834 461.595 448.408C464.959 449.014 470.739 447.98 475.462 447.664C474.337 446.001 474.583 443.675 471.695 442.865Z" fill="white"/>
<path fill-rule="evenodd" clip-rule="evenodd" d="M433.19 473.604C434.63 471.588 434.009 468.319 430.653 467.514C427.273 466.701 419.581 468.252 412.211 468.905C415.035 471.772 415.543 474.417 419.274 475.351C421.868 475.998 432.557 474.49 433.19 473.604Z" fill="white"/>
<path fill-rule="evenodd" clip-rule="evenodd" d="M378.351 500.03C381.748 500.551 387.387 499.362 392.044 498.923C390.572 497.299 390.36 494.99 387.267 494.241C384.273 493.518 378.317 494.395 370.238 494.698C373.884 497.276 374.986 499.514 378.351 500.03Z" fill="white"/>
<path fill-rule="evenodd" clip-rule="evenodd" d="M335.109 526.78C338.545 527.261 344.11 526.02 348.74 525.529C347.141 523.922 346.767 521.6 343.605 520.906C340.463 520.219 334.513 521.169 326.514 521.564C330.392 524.088 331.686 526.299 335.109 526.78Z" fill="white"/>
<path fill-rule="evenodd" clip-rule="evenodd" d="M311.03 544.759C298.774 546.625 294.871 547.219 290.966 547.815C292.521 549.221 293.061 551.309 295.927 551.839C298.703 552.357 305.484 551.738 307.576 550.781C310.131 549.609 309.64 547.566 311.03 544.759Z" fill="white"/>
<path fill-rule="evenodd" clip-rule="evenodd" d="M248.576 580.297C255.22 579.121 259.654 578.336 264.081 577.552C263.313 575.868 263.998 573.316 261.367 572.743C258.703 572.166 252.759 573.543 248.248 574.063C248.341 575.844 248.438 577.624 248.576 580.297Z" fill="white"/>
<path fill-rule="evenodd" clip-rule="evenodd" d="M223.619 602.414C225.52 601.278 223.061 598.393 220.026 597.356C218.311 596.769 208.718 598.04 207.671 599.013C205.828 600.716 207.843 602.834 208.311 605.119C214.264 604.16 221.324 603.793 223.619 602.414Z" fill="white"/>
<path fill-rule="evenodd" clip-rule="evenodd" d="M123.314 650.833C124.733 652.209 125.128 654.24 127.869 654.779C130.557 655.31 135.625 654.33 139.653 654.011C138.824 652.573 137.993 651.13 136.748 648.967C130.988 649.768 127.15 650.302 123.314 650.833Z" fill="white"/>
<path fill-rule="evenodd" clip-rule="evenodd" d="M167.823 629.894C173.726 629.193 177.641 628.728 181.556 628.264C180.323 626.868 180.191 624.816 177.554 624.257C174.861 623.685 169.707 624.578 165.633 624.83C166.26 626.279 166.887 627.729 167.823 629.894Z" fill="white"/>
<path fill-rule="evenodd" clip-rule="evenodd" d="M426.47 563.317C431.645 562.65 439.317 562.471 441.293 561.182C443.274 559.888 439.579 557.492 438.373 555.579C432.964 555.983 427.551 556.388 419.431 556.992C422.432 559.688 424.453 561.501 426.47 563.317Z" fill="white"/>
<path fill-rule="evenodd" clip-rule="evenodd" d="M170.915 717.007C176.135 717.543 182.003 717.115 187.612 717.065C185.926 715.242 185.243 713.184 182.062 711.708C180.731 711.089 174.063 711.712 167.5 711.801C168.964 714.218 169.131 716.825 170.915 717.007Z" fill="white"/>
<path fill-rule="evenodd" clip-rule="evenodd" d="M213.441 687.981C210.942 689.331 212.941 691.751 212.978 695.106C221.051 693.302 227.896 692.591 229.819 691.111C231.753 689.626 228.791 687.375 227.977 685.46C222.95 686.256 216.004 686.598 213.441 687.981Z" fill="white"/>
<path fill-rule="evenodd" clip-rule="evenodd" d="M259.649 666.506C261.556 667.02 268.172 665.439 272.656 664.808C269.729 663.061 267.403 661.13 263.51 659.681C262.39 659.263 256.761 660.226 250.482 660.81C254.075 663.238 255.632 665.42 259.649 666.506Z" fill="white"/>
<path fill-rule="evenodd" clip-rule="evenodd" d="M307.763 633.14C306.64 632.67 300.951 633.427 294.477 633.775C297.663 636.321 298.811 638.479 302.575 639.679C304.273 640.222 311.166 638.855 315.7 638.357C313.183 636.581 311.324 634.634 307.763 633.14Z" fill="white"/>
<path fill-rule="evenodd" clip-rule="evenodd" d="M341.971 614.69C350.017 613.395 356.144 612.995 359.091 611.685C360.602 611.016 356.404 608.705 354.778 607.138C350.314 607.765 344.679 608.013 341.787 609.149C339.821 609.926 341.689 611.955 341.971 614.69Z" fill="white"/>
<path fill-rule="evenodd" clip-rule="evenodd" d="M384.293 587.745C389.418 587.419 394.537 587.091 399.662 586.765C398.791 584.938 397.92 583.112 396.467 580.064C390.082 581.632 385.175 582.226 383.716 583.362C382.184 584.553 383.96 586.263 384.293 587.745Z" fill="white"/>
<path fill-rule="evenodd" clip-rule="evenodd" d="M475.466 530.129C474.329 529.655 468.601 530.425 462.079 530.787C465.281 533.317 466.439 535.486 470.218 536.656C471.997 537.205 478.822 535.833 483.36 535.332C480.855 533.565 479.024 531.613 475.466 530.129Z" fill="white"/>
<path fill-rule="evenodd" clip-rule="evenodd" d="M607.244 478.243L622.084 476.525C620.418 475.17 619.74 473.364 616.82 472.589C613.964 471.831 608.822 472.124 601.081 471.808C603.896 474.746 605.57 476.495 607.244 478.243Z" fill="white"/>
<path fill-rule="evenodd" clip-rule="evenodd" d="M528.254 530.741C529.17 531.053 536.172 529.672 536.261 529.226C536.604 527.507 536.245 525.56 534.067 524.327C533.26 523.868 526.746 525.14 520.126 525.959C523.527 528.1 525.233 529.707 528.254 530.741Z" fill="white"/>
<path fill-rule="evenodd" clip-rule="evenodd" d="M273.75 684.66C276.386 685.184 282.594 684.998 283.869 684.348C285.135 683.7 283.225 681.645 280.814 681.027C278.444 680.42 273.694 680.848 268.127 680.806C270.397 682.486 271.181 684.151 273.75 684.66Z" fill="white"/>
<path fill-rule="evenodd" clip-rule="evenodd" d="M226.184 713.073C233.47 711.822 241.393 711.013 241.456 710.349C241.619 708.492 239.015 706.57 236.299 704.98C235.78 704.674 227.282 705.57 226.778 706.237C225.373 708.103 226.232 710.138 226.184 713.073Z" fill="white"/>
<path fill-rule="evenodd" clip-rule="evenodd" d="M325.47 658.739C325.611 657.219 323.673 655.562 322.556 653.956C318.415 654.152 311.127 654.001 310.793 654.616C310.053 655.96 312.841 657.694 314.819 660.004C320.116 659.416 325.423 659.253 325.47 658.739Z" fill="white"/>
<path fill-rule="evenodd" clip-rule="evenodd" d="M365.941 627.231C360.839 628.007 353.343 628.333 351.324 629.688C349.376 630.996 351.357 634.131 354.716 635.071C358.825 636.221 366.168 635.916 376.15 636.46C369.919 630.829 367.929 629.031 365.941 627.231Z" fill="white"/>
<path fill-rule="evenodd" clip-rule="evenodd" d="M410.222 600.689C403.68 601.353 396.48 601.58 396.051 602.226C394.799 604.09 396.271 606.124 396.679 608.088C401.76 607.389 407.516 607.022 411.59 605.825C413.171 605.357 410.969 603.01 410.222 600.689Z" fill="white"/>
<path fill-rule="evenodd" clip-rule="evenodd" d="M494.408 554.96C495.437 553.989 491.484 552.238 489.705 550.831C485.558 551.16 479.395 551.061 477.834 551.949C476.341 552.799 479.645 554.679 481.396 556.76C487.289 556.024 493.428 555.895 494.408 554.96Z" fill="white"/>
<path fill-rule="evenodd" clip-rule="evenodd" d="M449.966 575.762C444.282 575.984 438.45 575.854 438.256 576.283C437.57 577.823 438.789 579.55 439.289 581.206C443.701 581.204 451.273 581.689 451.89 581.1C453.229 579.822 451.018 577.994 449.966 575.762Z" fill="white"/>
<path fill-rule="evenodd" clip-rule="evenodd" d="M587.262 506.736C581.022 501.089 579.037 499.293 577.049 497.496C571.954 498.273 564.464 498.599 562.455 499.953C560.503 501.264 562.467 504.396 565.827 505.338C569.929 506.487 577.267 506.187 587.262 506.736Z" fill="white"/>
<path fill-rule="evenodd" clip-rule="evenodd" d="M659.209 445.655C658.427 445.307 653.566 446.421 648.294 447.203C650.477 449.346 651.094 451.318 654.014 452.206C655.349 452.613 661.238 450.881 665.062 450.117C663.223 448.59 661.92 446.87 659.209 445.655Z" fill="white"/>
<path fill-rule="evenodd" clip-rule="evenodd" d="M603.921 452.125C600.234 452.92 595.244 453.43 593.252 454.592C591.473 455.625 593.014 457.381 593.155 460.095C601.093 458.775 605.792 457.993 610.499 457.209C608.309 455.515 606.111 453.819 603.921 452.125Z" fill="white"/>
<path fill-rule="evenodd" clip-rule="evenodd" d="M511.196 505.032C509.788 506.895 510.647 508.93 510.591 511.865C517.888 510.614 525.818 509.81 525.878 509.143C526.04 507.287 523.43 505.365 520.711 503.772C520.191 503.469 511.704 504.363 511.196 505.032Z" fill="white"/>
<path fill-rule="evenodd" clip-rule="evenodd" d="M551.137 484.53C556.3 484.86 561.794 484.142 567.15 483.846C564.762 482.07 563.222 480.039 559.523 478.66C558.2 478.163 551.633 479.244 545.026 479.817C547.676 481.975 549.043 484.398 551.137 484.53Z" fill="white"/>
<path fill-rule="evenodd" clip-rule="evenodd" d="M583.16 524.17C586.568 524.658 592.139 523.412 596.761 522.926C595.164 521.314 594.789 519.016 591.622 518.29C588.589 517.596 582.66 518.539 574.592 518.927C578.452 521.463 579.727 523.679 583.16 524.17Z" fill="white"/>
<path fill-rule="evenodd" clip-rule="evenodd" d="M371.187 653.742C374.555 654.349 380.346 653.315 385.083 652.999C383.946 651.335 384.189 649.001 381.29 648.197C378.378 647.388 372.334 648.111 364.211 648.201C367.313 650.87 367.984 653.162 371.187 653.742Z" fill="white"/>
<path fill-rule="evenodd" clip-rule="evenodd" d="M326.089 685.205C333.202 682.828 339.086 681.606 341.211 679.918C342.951 678.534 341.691 675.744 339.057 675.144C336.33 674.521 330.344 675.782 325.784 676.22C325.845 678.005 325.904 679.79 326.089 685.205Z" fill="white"/>
<path fill-rule="evenodd" clip-rule="evenodd" d="M285.865 707.492C292.171 706.433 299.123 706.034 300.819 704.769C302.56 703.472 300.219 701.021 297.452 699.71C296.38 699.205 286.99 700.003 285.475 700.989C283.455 702.304 285.419 704.385 285.865 707.492Z" fill="white"/>
<path fill-rule="evenodd" clip-rule="evenodd" d="M403.853 623.84C407.701 626.388 408.968 628.615 412.389 629.097C415.821 629.581 421.396 628.327 426.034 627.833C424.429 626.229 424.03 623.944 420.863 623.22C417.838 622.526 411.933 623.46 403.853 623.84Z" fill="white"/>
<path fill-rule="evenodd" clip-rule="evenodd" d="M463.886 596.417C460.832 595.78 454.979 596.839 446.912 597.382C451.148 599.842 452.713 602.022 456.238 602.45C459.727 602.874 465.185 601.529 469.771 600.961C467.927 599.378 467.205 597.11 463.886 596.417Z" fill="white"/>
<path fill-rule="evenodd" clip-rule="evenodd" d="M489.479 571.226C492.315 574.092 492.835 576.732 496.566 577.671C499.148 578.321 509.829 576.808 510.458 575.925C511.898 573.905 511.297 570.635 507.949 569.833C504.565 569.019 496.877 570.57 489.479 571.226Z" fill="white"/>
<path fill-rule="evenodd" clip-rule="evenodd" d="M540.48 551.056C543.15 551.584 549.051 550.094 553.533 549.492C553.226 547.739 552.92 545.984 552.456 543.334C545.873 544.631 541.505 545.491 537.136 546.349C538.12 548.001 537.725 550.511 540.48 551.056Z" fill="white"/>
<path fill-rule="evenodd" clip-rule="evenodd" d="M636.274 491.821C629.704 493.12 625.319 493.986 620.943 494.85C621.927 496.497 621.531 499.013 624.278 499.538C626.997 500.062 632.882 498.578 637.371 497.974C637.057 496.217 636.742 494.459 636.274 491.821Z" fill="white"/>
<path fill-rule="evenodd" clip-rule="evenodd" d="M640.143 520.595C645.241 519.817 652.715 519.491 654.752 518.134C656.705 516.829 654.74 513.694 651.388 512.758C647.27 511.607 639.937 511.903 629.942 511.351C636.186 517.008 638.162 518.802 640.143 520.595Z" fill="white"/>
<path fill-rule="evenodd" clip-rule="evenodd" d="M595.672 544.532C601.073 544.849 606.704 544.407 612.246 544.257C611.096 542.621 610.83 539.834 608.616 539.585C603.82 539.052 598.02 539.825 590.214 540.17C592.784 542.327 593.925 544.427 595.672 544.532Z" fill="white"/>
<path fill-rule="evenodd" clip-rule="evenodd" d="M347.371 699.731C350.855 700.315 355.453 699.643 359.566 699.521C357.29 698.203 355.819 696.376 352.521 695.707C349.103 695.013 343.905 695.443 337.661 695.357C341.794 697.316 344.007 699.169 347.371 699.731Z" fill="white"/>
<path fill-rule="evenodd" clip-rule="evenodd" d="M301.652 721.972C301.753 723.516 304.024 725.16 305.437 726.763C309.464 726.434 315.652 726.537 317.003 725.674C319.049 724.368 317.733 722.389 317.939 719.149C306.614 721.048 301.617 721.393 301.652 721.972Z" fill="white"/>
<path fill-rule="evenodd" clip-rule="evenodd" d="M400.312 667.339C393.195 668.955 387.89 669.792 384.156 671.206C382.9 671.685 385.438 674.693 386.585 674.687C391.802 674.667 397.802 674.384 402.092 673.337C403.66 672.952 401.284 670.178 400.312 667.339Z" fill="white"/>
<path fill-rule="evenodd" clip-rule="evenodd" d="M484.259 622.842C484.602 621.002 482.166 619.043 479.536 617.443C478.979 617.107 470.44 617.875 469.904 618.519C468.359 620.366 469.033 622.411 468.73 625.391C476.188 624.219 484.134 623.519 484.259 622.842Z" fill="white"/>
<path fill-rule="evenodd" clip-rule="evenodd" d="M445.069 640.894C436.707 642.496 429.798 643.025 427.704 644.437C425.514 645.913 427.962 648.24 428.382 650.196C433.513 649.538 440.515 649.393 443.238 648.081C445.976 646.761 444.468 644.286 445.069 640.894Z" fill="white"/>
<path fill-rule="evenodd" clip-rule="evenodd" d="M570.647 569.808C571.519 569.058 567.453 566.782 563.972 566.043C560.644 565.334 555.296 565.739 548.801 565.616C553.113 567.617 555.429 569.489 558.95 570.095C562.463 570.703 569.825 570.526 570.647 569.808Z" fill="white"/>
<path fill-rule="evenodd" clip-rule="evenodd" d="M521.784 590.479C520.877 590.122 513.717 591.283 513.588 591.682C513.031 593.408 513.015 595.375 514.975 596.675C515.714 597.166 522.321 596.082 528.9 595.468C525.975 593.269 524.604 591.595 521.784 590.479Z" fill="white"/>
<path fill-rule="evenodd" clip-rule="evenodd" d="M778.548 462.456C783.057 461.838 789.374 461.675 791.581 460.486C793.936 459.215 792.415 456.971 792.585 455.155C788.067 455.497 783.55 455.841 776.813 456.349C777.556 458.972 778.056 460.714 778.548 462.456Z" fill="white"/>
<path fill-rule="evenodd" clip-rule="evenodd" d="M356.301 721.919C360.808 721.301 367.125 721.138 369.333 719.947C371.692 718.677 370.165 716.436 370.339 714.62C365.822 714.96 361.304 715.301 354.563 715.813C355.31 718.432 355.807 720.175 356.301 721.919Z" fill="white"/>
<path fill-rule="evenodd" clip-rule="evenodd" d="M415.059 692.538C412.627 691.386 410.61 689.451 407.669 689.269C403.716 689.023 396.974 689.716 395.312 690.773C393.799 691.735 396.226 694.467 399.153 695.084C403.555 696.012 409.904 695.776 415.426 696.035L415.059 692.538Z" fill="white"/>
<path fill-rule="evenodd" clip-rule="evenodd" d="M458.662 661.485C446.622 663.085 440.943 663.33 438.212 664.424C436.941 664.935 441.394 667.095 443.258 668.504C447.743 667.814 453.035 667.405 456.424 666.33C458.505 665.672 457.678 663.995 458.662 661.485Z" fill="white"/>
<path fill-rule="evenodd" clip-rule="evenodd" d="M740.85 487.794C741.786 488.157 748.925 486.997 749.05 486.606C749.591 484.875 749.635 482.891 747.658 481.598C746.908 481.104 740.249 482.214 733.706 482.838C736.643 485.026 738.014 486.696 740.85 487.794Z" fill="white"/>
<path fill-rule="evenodd" clip-rule="evenodd" d="M704.902 513.747C705.81 511.976 706.576 509.983 705.124 508.518C704.608 508 697.751 508.757 691.039 509.054C693.213 511.341 693.975 513.111 696.46 514.302C697.456 514.775 704.769 514.011 704.902 513.747Z" fill="white"/>
<path fill-rule="evenodd" clip-rule="evenodd" d="M655.72 538.994C660.048 538.673 664.477 537.397 668.35 536.211C668.874 536.052 666.926 533.45 665.215 533.389C661.061 533.238 656.374 533.918 649.742 534.43C652.489 536.624 654.204 539.107 655.72 538.994Z" fill="white"/>
<path fill-rule="evenodd" clip-rule="evenodd" d="M564.714 586.736C563.092 588.245 566.557 590.393 567.788 592.262C572.696 591.317 579.558 590.776 581.937 589.314C584.172 587.946 581.659 585.605 580.913 582.232C573.031 584.305 566.36 585.207 564.714 586.736Z" fill="white"/>
<path fill-rule="evenodd" clip-rule="evenodd" d="M610.29 565.356C614.92 564.779 620.696 564.586 623.802 563.5C626.11 562.691 624.956 560.725 625.593 558.315C614.517 559.473 607.986 559.66 607.736 560.279C607.107 561.868 609.253 563.65 610.29 565.356Z" fill="white"/>
<path fill-rule="evenodd" clip-rule="evenodd" d="M480.666 638.337C479.532 639.618 482.041 641.412 483.477 643.675C489.064 643.287 494.682 643.287 494.819 642.816C495.259 641.295 493.69 639.599 492.895 637.972C488.604 638.062 481.214 637.717 480.666 638.337Z" fill="white"/>
<path fill-rule="evenodd" clip-rule="evenodd" d="M529.888 617.56C530.832 617.908 537.955 616.657 538.068 616.242C538.548 614.522 538.419 612.56 536.374 611.292C535.603 610.812 529.049 611.971 522.422 612.668C525.519 614.846 526.984 616.498 529.888 617.56Z" fill="white"/>
<path fill-rule="evenodd" clip-rule="evenodd" d="M680.495 489.138C679.325 491.001 680.571 492.998 680.983 495.892C688.143 494.441 695.968 493.429 695.907 492.761C695.734 490.896 692.668 489.069 689.72 487.511C689.268 487.274 680.951 488.401 680.495 489.138Z" fill="white"/>
<path fill-rule="evenodd" clip-rule="evenodd" d="M739.381 466.045C739.208 464.181 736.138 462.358 733.186 460.802C732.734 460.56 724.417 461.695 723.965 462.424C722.811 464.292 724.042 466.294 724.453 469.184C731.597 467.734 739.442 466.717 739.381 466.045Z" fill="white"/>
<path fill-rule="evenodd" clip-rule="evenodd" d="M680.696 471.309C681.999 470.183 680.124 467.78 677.474 467.192C674.727 466.579 669.354 467.465 665.135 467.695C665.639 469.207 666.147 470.719 667.708 475.366C673.843 473.551 679.107 472.68 680.696 471.309Z" fill="white"/>
<path fill-rule="evenodd" clip-rule="evenodd" d="M718.83 440.05C713.002 440.608 707.173 441.167 700.018 441.854C702.567 444.208 703.317 446.816 707.238 447.846C709.843 448.529 720.674 447.251 721.371 446.323C722.811 444.42 719.931 442.162 718.83 440.05Z" fill="white"/>
<path fill-rule="evenodd" clip-rule="evenodd" d="M714.615 535.848C719.839 535.224 727.543 535.107 729.58 533.839C731.641 532.556 728.108 530.136 727.027 528.214C721.605 528.56 716.196 528.907 708.085 529.423C710.884 532.174 712.748 534.011 714.615 535.848Z" fill="white"/>
<path fill-rule="evenodd" clip-rule="evenodd" d="M504.303 665.745C509.393 664.977 516.964 664.656 518.872 663.31C520.687 662.026 516.605 659.67 515.117 657.786C509.764 658.281 504.411 658.775 496.372 659.517C499.765 662.18 502.032 663.962 504.303 665.745Z" fill="white"/>
<path fill-rule="evenodd" clip-rule="evenodd" d="M476.277 689.487C477.911 688.461 474.781 686.483 473.776 684.931C469.283 685.232 463.712 685.095 460.663 685.987C458.424 686.641 459.489 688.651 459.086 690.056C460.618 691.051 462.151 692.046 463.684 693.039C468.048 691.888 473.837 691.022 476.277 689.487Z" fill="white"/>
<path fill-rule="evenodd" clip-rule="evenodd" d="M416.402 716.408C421.609 716.859 427.329 716.322 432.851 716.175C430.903 714.376 429.915 712.33 426.551 710.898C425.203 710.327 418.588 711.114 411.973 711.378C413.893 713.707 414.534 716.248 416.402 716.408Z" fill="white"/>
<path fill-rule="evenodd" clip-rule="evenodd" d="M632.168 587.642C634.754 588.185 643.289 586.835 645.443 585.537C648.69 583.58 648.657 580.934 650.021 578.58C646.552 578.759 643.075 578.937 639.606 579.116C635.871 580.263 629.808 581.323 628.961 582.574C627.8 584.278 629.155 587.007 632.168 587.642Z" fill="white"/>
<path fill-rule="evenodd" clip-rule="evenodd" d="M544.501 634.392C543.441 636.258 544.836 638.241 545.433 641.103C552.54 639.565 560.382 638.446 560.269 637.782C559.938 635.917 556.695 634.134 553.617 632.607C553.166 632.384 544.929 633.63 544.501 634.392Z" fill="white"/>
<path fill-rule="evenodd" clip-rule="evenodd" d="M588.621 614.335C595.761 612.887 603.61 611.869 603.546 611.198C603.38 609.335 600.315 607.509 597.362 605.956C596.906 605.713 588.565 606.853 588.125 607.578C586.992 609.474 588.222 611.491 588.621 614.335Z" fill="white"/>
<path fill-rule="evenodd" clip-rule="evenodd" d="M680.003 554.208C678.672 553.736 672.161 554.905 665.526 555.575C668.382 557.676 669.991 560.061 672.109 560.178C677.304 560.46 682.733 559.692 688.066 559.348C685.533 557.585 683.818 555.565 680.003 554.208Z" fill="white"/>
<path fill-rule="evenodd" clip-rule="evenodd" d="M756.468 504.117C755.762 505.646 757 507.37 757.501 509.02C761.925 509.019 769.464 509.515 770.138 508.911C771.529 507.656 769.271 505.819 768.214 503.584C762.502 503.813 756.67 503.679 756.468 504.117Z" fill="white"/>
<path fill-rule="evenodd" clip-rule="evenodd" d="M806.436 475.811C805.347 475.401 799.712 476.367 793.476 476.951C797.074 479.377 798.647 481.545 802.665 482.654C804.504 483.165 811.148 481.596 815.621 480.969C812.684 479.212 810.329 477.28 806.436 475.811Z" fill="white"/>
<path fill-rule="evenodd" clip-rule="evenodd" d="M849.608 451.572C846.268 451.956 841.654 452.024 839.96 452.81C838.378 453.547 839.899 455.041 840.198 457.276C847.607 456.688 851.935 456.34 856.259 455.995L849.608 451.572Z" fill="white"/>
<path fill-rule="evenodd" clip-rule="evenodd" d="M730.842 554.424C732.113 554.875 738.083 553.33 741.923 552.687C740.426 551.122 739.527 549.361 737.086 548.102C736.316 547.704 731.443 548.64 726.05 549.223C727.87 551.479 728.136 553.47 730.842 554.424Z" fill="white"/>
<path fill-rule="evenodd" clip-rule="evenodd" d="M520.457 684.317C522.107 684.696 527.689 682.838 531.493 681.991C529.408 680.484 527.823 678.783 524.89 677.602C524.124 677.289 519.207 678.585 513.939 679.561C516.448 681.593 517.323 683.595 520.457 684.317Z" fill="white"/>
<path fill-rule="evenodd" clip-rule="evenodd" d="M473.716 710.355C478.81 709.708 484.586 709.409 488.676 708.246C490.346 707.772 488.382 705.424 487.882 703.083C481.19 703.681 473.913 703.828 473.437 704.47C472.066 706.324 473.425 708.382 473.716 710.355Z" fill="white"/>
<path fill-rule="evenodd" clip-rule="evenodd" d="M556.921 653.168C555.832 654.154 558.833 656.648 561.769 657.163C564.803 657.696 571.922 657.079 573.527 656.162C575.064 655.286 571.817 653.374 570.143 651.25C564.178 652.036 557.99 652.202 556.921 653.168Z" fill="white"/>
<path fill-rule="evenodd" clip-rule="evenodd" d="M640.288 601.958C637.472 603.266 638.795 605.752 637.952 609.177C646.383 607.653 653.353 607.183 655.502 605.789C657.777 604.312 655.47 601.954 655.16 599.983C650.033 600.591 643.051 600.676 640.288 601.958Z" fill="white"/>
<path fill-rule="evenodd" clip-rule="evenodd" d="M685.061 580.67C690.131 579.988 695.915 579.649 699.921 578.451C701.546 577.966 699.291 575.607 698.529 573.253C692.019 573.942 684.871 574.169 684.395 574.843C683.117 576.686 684.645 578.714 685.061 580.67Z" fill="white"/>
<path fill-rule="evenodd" clip-rule="evenodd" d="M614.005 631.228C614.025 629.712 611.923 628.072 610.661 626.481C606.591 626.723 599.342 626.656 599.096 627.267C598.536 628.645 601.448 630.361 603.65 632.676C608.83 631.995 613.997 631.764 614.005 631.228Z" fill="white"/>
<path fill-rule="evenodd" clip-rule="evenodd" d="M766.399 524.43C764.874 525.326 768.117 527.225 769.783 529.343C775.757 528.555 781.956 528.387 783.017 527.417C784.094 526.428 781.065 523.955 778.084 523.414C775.135 522.881 767.956 523.515 766.399 524.43Z" fill="white"/>
<path fill-rule="evenodd" clip-rule="evenodd" d="M823.148 497.064C822.482 496.573 815.823 497.583 809.195 498.134C811.918 500.344 813.124 502.045 815.867 503.159C816.839 503.551 824.051 502.479 824.172 502.133C824.777 500.39 824.979 498.413 823.148 497.064Z" fill="white"/>
<path fill-rule="evenodd" clip-rule="evenodd" d="M865.065 470.002C860.071 470.851 853.137 471.259 850.633 472.671C848.229 474.026 850.423 476.423 850.717 479.782C858.716 477.88 865.488 477.1 867.328 475.6C869.155 474.111 866.021 471.898 865.065 470.002Z" fill="white"/>
<path fill-rule="evenodd" clip-rule="evenodd" d="M743.028 574.736C746.339 575.411 752.237 574.49 757 574.265C756.101 572.568 756.661 570.217 753.894 569.361C751.083 568.491 744.98 569.101 736.836 569.032C739.575 571.788 739.938 574.108 743.028 574.736Z" fill="white"/>
<path fill-rule="evenodd" clip-rule="evenodd" d="M659.589 626.327C662.949 626.935 668.741 625.907 673.468 625.594C672.335 623.925 672.585 621.577 669.685 620.78C666.74 619.97 660.674 620.696 652.615 620.784C655.716 623.457 656.382 625.744 659.589 626.327Z" fill="white"/>
<path fill-rule="evenodd" clip-rule="evenodd" d="M566.836 673.493C569.683 676.418 570.171 679.051 573.882 679.994C576.428 680.643 587.068 679.142 587.738 678.238C589.218 676.237 588.605 672.969 585.273 672.159C581.889 671.342 574.213 672.86 566.836 673.493Z" fill="white"/>
<path fill-rule="evenodd" clip-rule="evenodd" d="M615.259 655.403C621.693 653.991 626.017 653.042 630.345 652.092C629.131 650.478 629.215 647.998 626.331 647.498C623.617 647.028 617.768 648.649 613.295 649.35C613.855 651.08 614.416 652.809 615.259 655.403Z" fill="white"/>
<path fill-rule="evenodd" clip-rule="evenodd" d="M532.877 704.656C536.297 705.172 541.94 703.986 546.611 703.545C545.127 701.924 544.905 699.617 541.815 698.871C538.818 698.146 532.861 699.027 524.781 699.334C528.415 701.905 529.521 704.146 532.877 704.656Z" fill="white"/>
<path fill-rule="evenodd" clip-rule="evenodd" d="M489.427 731.37C492.831 731.89 498.47 730.7 503.133 730.259C501.66 728.635 501.447 726.327 498.353 725.581C495.352 724.857 489.394 725.736 481.319 726.04C484.957 728.618 486.067 730.857 489.427 731.37Z" fill="white"/>
<path fill-rule="evenodd" clip-rule="evenodd" d="M714.599 594.351C707.847 595.391 703.349 596.085 698.848 596.781C699.372 598.502 698.348 601.111 700.848 601.708C703.519 602.343 709.525 601.077 714.071 600.643C714.224 598.84 714.373 597.037 714.599 594.351Z" fill="white"/>
<path fill-rule="evenodd" clip-rule="evenodd" d="M782.251 545.536C780.403 546.474 782.15 549.951 784.195 550.081C788.41 550.35 793.892 549.145 798.857 548.544C798.192 546.664 797.53 544.782 796.723 542.491C791.117 543.582 785.058 544.113 782.251 545.536Z" fill="white"/>
<path fill-rule="evenodd" clip-rule="evenodd" d="M836.947 517.668C833.966 516.916 827.964 517.749 819.905 517.988C823.349 520.581 824.317 522.841 827.641 523.379C831.029 523.93 836.733 522.792 841.42 522.39C840.052 520.751 839.984 518.43 836.947 517.668Z" fill="white"/>
<path fill-rule="evenodd" clip-rule="evenodd" d="M867.771 492.981C869.328 494.389 869.869 496.474 872.741 497.011C875.508 497.528 882.292 496.905 884.382 495.945C886.939 494.774 886.447 492.729 887.835 489.929C875.593 491.791 871.684 492.385 867.771 492.981Z" fill="white"/>
<path fill-rule="evenodd" clip-rule="evenodd" d="M920.382 466.071C917.252 465.38 911.294 466.325 903.356 466.707C907.208 469.241 908.479 471.46 911.919 471.951C915.328 472.438 920.91 471.187 925.545 470.696C923.939 469.089 923.552 466.77 920.382 466.071Z" fill="white"/>
<path fill-rule="evenodd" clip-rule="evenodd" d="M717.374 622.901C722.477 622.137 730.068 621.82 731.976 620.477C733.799 619.192 729.709 616.832 728.216 614.946C722.868 615.445 717.519 615.945 709.46 616.696C712.848 619.352 715.107 621.128 717.374 622.901Z" fill="white"/>
<path fill-rule="evenodd" clip-rule="evenodd" d="M673.622 646.972C678.95 647.199 684.419 646.627 689.841 646.372C688.401 644.768 687.654 642.009 685.38 641.803C680.547 641.365 674.916 642.257 667.014 642.775C670.173 644.87 671.714 646.889 673.622 646.972Z" fill="white"/>
<path fill-rule="evenodd" clip-rule="evenodd" d="M646.661 672.89C648.924 671.794 646.729 669.494 646.366 666.863C639.699 667.807 632.995 668.032 631.176 669.207C629.284 670.42 632.14 672.552 632.926 674.284C637.686 673.87 644.414 673.983 646.661 672.89Z" fill="white"/>
<path fill-rule="evenodd" clip-rule="evenodd" d="M590.759 694.126C590.573 695.831 592.635 697.598 593.8 699.339C598.032 698.887 604.304 698.874 606.018 697.88C608.624 696.361 608.079 694.162 608.874 692.252C605.57 692.307 602.263 692.362 598.959 692.416C596.075 692.983 590.828 693.481 590.759 694.126Z" fill="white"/>
<path fill-rule="evenodd" clip-rule="evenodd" d="M546.385 727.785C553.686 726.536 561.616 725.729 561.673 725.063C561.834 723.209 559.224 721.288 556.51 719.694C555.993 719.391 547.482 720.291 546.994 720.952C545.603 722.845 546.446 724.9 546.385 727.785Z" fill="white"/>
<path fill-rule="evenodd" clip-rule="evenodd" d="M773.183 595.078C773.002 593.213 769.952 591.384 767.004 589.827C766.556 589.588 758.21 590.723 757.775 591.45C756.637 593.341 757.863 595.357 758.275 598.21C765.431 596.759 773.248 595.742 773.183 595.078Z" fill="white"/>
<path fill-rule="evenodd" clip-rule="evenodd" d="M859.942 541.85C861.467 540.959 858.204 539.055 856.522 536.933C850.56 537.724 844.376 537.896 843.328 538.864C842.255 539.857 845.268 542.337 848.229 542.863C851.221 543.396 858.369 542.767 859.942 541.85Z" fill="white"/>
<path fill-rule="evenodd" clip-rule="evenodd" d="M816.831 568.241C816.545 566.38 813.241 564.599 810.179 563.058C809.76 562.844 801.523 564.074 801.108 564.829C800.079 566.705 801.483 568.693 802.112 571.576C809.167 570.034 816.936 568.932 816.831 568.241Z" fill="white"/>
<path fill-rule="evenodd" clip-rule="evenodd" d="M898.959 512.587C893.776 512.419 888.149 513.207 883.627 514.11C882.546 514.326 884.479 517.378 886.136 517.554C891.416 518.117 897.217 517.938 905.756 518.104C902.65 515.469 900.867 512.648 898.959 512.587Z" fill="white"/>
<path fill-rule="evenodd" clip-rule="evenodd" d="M941.865 485.733C936.69 486.293 929.675 486.306 926.86 487.565C923.948 488.863 925.113 491.371 924.044 494.801C932.563 493.35 939.55 492.944 941.768 491.57C944.14 490.098 942.018 487.717 941.865 485.733Z" fill="white"/>
<path fill-rule="evenodd" clip-rule="evenodd" d="M983.762 465.708C984.093 463.862 981.677 461.898 979.059 460.296C978.502 459.958 969.955 460.734 969.431 461.37C967.91 463.232 968.58 465.28 968.297 468.253C975.683 467.087 983.641 466.379 983.762 465.708Z" fill="white"/>
<path fill-rule="evenodd" clip-rule="evenodd" d="M687.001 667.555C689.901 668.132 695.464 667.023 699.836 666.67C698.977 665.075 699.36 663.103 696.855 662.013C695.036 661.222 689.389 661.598 685.444 661.453C682.616 662.003 679.789 662.552 676.961 663.102C680.216 664.646 682.669 666.692 687.001 667.555Z" fill="white"/>
<path fill-rule="evenodd" clip-rule="evenodd" d="M657.527 692.664C659.798 691.194 657.499 688.849 657.197 686.888C652.062 687.491 645.055 687.566 642.296 688.844C639.477 690.151 640.816 692.641 639.977 696.08C648.452 694.534 655.377 694.058 657.527 692.664Z" fill="white"/>
<path fill-rule="evenodd" clip-rule="evenodd" d="M606.998 719.841C607.93 720.203 615.086 719.041 615.211 718.648C615.755 716.919 615.796 714.936 613.815 713.645C613.053 713.151 606.397 714.259 599.867 714.882C602.795 717.071 604.171 718.742 606.998 719.841Z" fill="white"/>
<path fill-rule="evenodd" clip-rule="evenodd" d="M835.377 611.443C837.023 612.027 844.086 610.833 848.697 610.444C846.518 608.655 845.074 606.689 841.783 605.172C840.637 604.644 834.938 605.222 828.29 605.358C831.086 608.017 831.836 610.188 835.377 611.443Z" fill="white"/>
<path fill-rule="evenodd" clip-rule="evenodd" d="M806.077 636.63C808.36 635.156 806.061 632.8 805.763 630.83C800.624 631.44 793.638 631.523 790.854 632.805C788.035 634.106 789.366 636.593 788.527 640.018C796.965 638.494 803.927 638.024 806.077 636.63Z" fill="white"/>
<path fill-rule="evenodd" clip-rule="evenodd" d="M749.377 662.492C754.576 662.773 760.005 662.007 765.338 661.665C762.797 659.902 761.066 657.885 757.254 656.518C755.943 656.049 749.429 657.213 742.814 657.882C745.666 659.984 747.275 662.379 749.377 662.492Z" fill="white"/>
<path fill-rule="evenodd" clip-rule="evenodd" d="M705.689 689.189C710.92 689.017 716.152 688.847 721.384 688.674C720.944 686.835 720.504 684.992 719.758 681.895C713.09 683.205 708.028 683.608 706.379 684.677C704.531 685.869 705.786 687.658 705.689 689.189Z" fill="white"/>
<path fill-rule="evenodd" clip-rule="evenodd" d="M666.123 709.499C665.925 711.221 667.962 713.007 669.108 714.766C673.351 714.303 679.668 714.278 681.346 713.276C683.903 711.746 683.25 709.545 683.952 707.631C680.753 707.679 677.554 707.729 674.348 707.778C671.455 708.349 666.196 708.853 666.123 709.499Z" fill="white"/>
<path fill-rule="evenodd" clip-rule="evenodd" d="M884.922 578.388C883.809 577.894 878.061 578.561 871.503 578.807C874.487 581.394 875.451 583.551 879.094 584.787C880.744 585.348 887.738 584.083 892.304 583.647C889.972 581.861 888.335 579.903 884.922 578.388Z" fill="white"/>
<path fill-rule="evenodd" clip-rule="evenodd" d="M915.231 559.585C916.731 560.592 918.232 561.595 919.736 562.601C924.173 561.406 930.03 560.493 932.555 558.913C934.229 557.864 932.475 555.032 929.833 554.493C926.828 553.88 920.043 554.479 916.949 555.405C914.67 556.09 915.687 558.143 915.231 559.585Z" fill="white"/>
<path fill-rule="evenodd" clip-rule="evenodd" d="M1017.06 506.989C1019.44 505.518 1017.31 503.136 1017.15 501.152C1011.98 501.713 1004.99 501.725 1002.15 502.985C999.235 504.272 1000.4 506.776 999.32 510.219C1007.85 508.767 1014.84 508.363 1017.06 506.989Z" fill="white"/>
<path fill-rule="evenodd" clip-rule="evenodd" d="M973.259 525.23C966.881 526.797 961.98 527.393 960.52 528.529C958.988 529.719 960.762 531.43 961.081 532.912C966.208 532.586 971.338 532.26 976.461 531.935C975.59 530.107 974.719 528.278 973.259 525.23Z" fill="white"/>
<path fill-rule="evenodd" clip-rule="evenodd" d="M1052.92 475.443C1051.76 474.913 1046.09 475.483 1039.45 475.605C1042.26 478.278 1043.02 480.44 1046.54 481.719C1048.13 482.293 1055.23 481.101 1059.82 480.709C1057.65 478.925 1056.2 476.96 1052.92 475.443Z" fill="white"/>
<path fill-rule="evenodd" clip-rule="evenodd" d="M826.31 588.873C827.601 587.438 827.109 585.885 827.371 584.381C824.071 584.671 818.674 584.69 817.912 585.307C816.363 586.556 817.327 588.129 817.117 592.456C822.054 590.594 825.463 589.819 826.31 588.873Z" fill="white"/>
<path fill-rule="evenodd" clip-rule="evenodd" d="M953.8 506.005C949.666 505.816 944.951 506.451 938.327 506.902C940.86 509.119 942.337 511.624 943.874 511.534C948.153 511.284 952.679 510.075 956.531 508.926C957.152 508.74 955.442 506.079 953.8 506.005Z" fill="white"/>
<path fill-rule="evenodd" clip-rule="evenodd" d="M993.523 481.102C992.975 480.574 986.122 481.34 979.45 481.633C981.576 483.907 982.314 485.685 984.807 486.875C985.807 487.353 993.197 486.585 993.342 486.308C994.266 484.545 995.016 482.549 993.523 481.102Z" fill="white"/>
<path fill-rule="evenodd" clip-rule="evenodd" d="M913.936 535.093C915.239 534.605 911.705 532.341 909.568 529.991C903.719 531.085 897.055 531.733 896.781 532.503C896.124 534.347 898.475 536.248 899.617 538.128C904.53 537.168 910.209 536.491 913.936 535.093Z" fill="white"/>
<path fill-rule="evenodd" clip-rule="evenodd" d="M869.344 554.822C861.507 556.874 854.807 557.773 853.129 559.308C851.488 560.814 854.949 562.972 856.171 564.842C861.092 563.893 867.965 563.344 870.377 561.874C872.616 560.51 870.091 558.161 869.344 554.822Z" fill="white"/>
<path fill-rule="evenodd" clip-rule="evenodd" d="M727.805 636.265C729.673 638.592 730.435 641.152 731.956 641.118C736.163 641.023 740.91 640.007 744.891 638.965C745.706 638.752 744.859 635.987 743.459 635.884C739.365 635.582 734.606 636.029 727.805 636.265Z" fill="white"/>
<path fill-rule="evenodd" clip-rule="evenodd" d="M775.172 616.929C776.095 617.243 783.09 615.863 783.183 615.418C783.521 613.695 783.199 611.729 780.988 610.515C780.129 610.046 773.591 611.343 767.036 612.157C770.444 614.293 772.147 615.902 775.172 616.929Z" fill="white"/>
<path fill-rule="evenodd" clip-rule="evenodd" d="M763.539 683.23C765.648 683.736 771.868 682.083 776.237 681.403C774.147 679.838 773.046 677.853 769.617 676.858C767.403 676.217 761.788 677.034 754.169 677.339C758.247 680.117 759.679 682.312 763.539 683.23Z" fill="white"/>
<path fill-rule="evenodd" clip-rule="evenodd" d="M721.392 710.211C725.768 709.296 732.016 708.707 733.976 707.372C735.848 706.098 733.25 704.045 732.613 702.334C728.108 703.006 723.606 703.677 716.846 704.683C718.79 707.045 720.093 708.628 721.392 710.211Z" fill="white"/>
<path fill-rule="evenodd" clip-rule="evenodd" d="M903.477 597.426C896.007 598.448 888.064 598.973 887.798 599.683C887.125 601.499 889.238 603.535 891.683 605.162C892.288 605.567 900.968 605.002 901.468 604.442C903.154 602.573 902.811 600.504 903.477 597.426Z" fill="white"/>
<path fill-rule="evenodd" clip-rule="evenodd" d="M1113.25 467.416C1106.06 468.797 1098.22 469.727 1098.23 470.407C1098.26 472.266 1101.18 474.129 1104.04 475.699C1104.5 475.958 1112.94 474.903 1113.4 474.194C1114.63 472.306 1113.51 470.274 1113.25 467.416Z" fill="white"/>
<path fill-rule="evenodd" clip-rule="evenodd" d="M1071.55 499.943C1073.5 498.798 1070.7 496.622 1069.67 494.103C1062.97 495.327 1056.27 495.807 1054.81 497.028C1053.3 498.289 1056.89 500.275 1058.25 501.941C1062.88 501.317 1069.51 501.129 1071.55 499.943Z" fill="white"/>
<path fill-rule="evenodd" clip-rule="evenodd" d="M1014.09 528.507C1021.39 527.258 1029.33 526.451 1029.38 525.786C1029.55 523.931 1026.94 522.009 1024.22 520.419C1023.7 520.113 1015.2 521.009 1014.7 521.679C1013.3 523.542 1014.15 525.575 1014.09 528.507Z" fill="white"/>
<path fill-rule="evenodd" clip-rule="evenodd" d="M988.078 551.23C989.183 550.705 985.622 548.038 982.552 547.487C979.72 546.982 971.786 547.719 971.193 548.41C969.729 550.124 971.181 552.123 971.673 555.432C979.567 553.527 984.976 552.694 988.078 551.23Z" fill="white"/>
<path fill-rule="evenodd" clip-rule="evenodd" d="M944.951 572.851C940.449 573.238 935.944 573.624 929.183 574.204C930.115 576.804 930.724 578.522 931.337 580.238C935.823 579.577 942.115 579.348 944.293 578.135C946.568 576.865 944.898 574.654 944.951 572.851Z" fill="white"/>
<path fill-rule="evenodd" clip-rule="evenodd" d="M803.572 651.411C802.181 653.301 803.024 655.356 802.971 658.24C810.272 656.992 818.194 656.187 818.255 655.522C818.42 653.665 815.802 651.743 813.096 650.149C812.579 649.847 804.06 650.747 803.572 651.411Z" fill="white"/>
<path fill-rule="evenodd" clip-rule="evenodd" d="M851.427 630.001C854.134 630.434 860.103 629.991 861.059 629.28C862.015 628.566 859.377 626.57 856.78 626.018C854.267 625.481 849.806 626.066 844.57 626.199C847.454 627.905 848.777 629.578 851.427 630.001Z" fill="white"/>
<path fill-rule="evenodd" clip-rule="evenodd" d="M781.811 704.751C786.034 705.332 792.113 704.102 797.373 703.665C794.702 701.919 793.17 699.467 789.047 698.632C785.102 697.837 778.463 698.728 769.133 698.986C774.938 701.775 777.475 704.15 781.811 704.751Z" fill="white"/>
<path fill-rule="evenodd" clip-rule="evenodd" d="M878.17 649.605C879.937 648.686 877.666 645.29 875.665 645.169C871.236 644.895 863.653 645.462 861.459 646.664C859.232 647.883 861.927 650.273 862.612 652.65C869.482 651.406 875.589 650.95 878.17 649.605Z" fill="white"/>
<path fill-rule="evenodd" clip-rule="evenodd" d="M838.298 670.563C830.279 671.346 824.934 671.865 819.594 672.386C820.965 674.282 820.743 677.044 824.14 677.836C827.681 678.661 834.688 677.594 840.186 677.355C839.645 675.412 839.105 673.465 838.298 670.563Z" fill="white"/>
<path fill-rule="evenodd" clip-rule="evenodd" d="M917.829 620.731C914.138 619.764 907.176 620.298 897.548 620.08C902.057 623.041 903.55 625.497 907.539 626.236C911.702 627.012 918.268 626.141 923.782 625.989C921.931 624.174 921.515 621.703 917.829 620.731Z" fill="white"/>
<path fill-rule="evenodd" clip-rule="evenodd" d="M1128.4 490.875C1124.77 490.231 1118.13 491.679 1112.81 492.21C1114.22 494.11 1115.62 496.011 1117.73 498.86C1125.2 497.659 1130.23 496.851 1135.25 496.045C1133.09 494.238 1132.19 491.549 1128.4 490.875Z" fill="white"/>
<path fill-rule="evenodd" clip-rule="evenodd" d="M1087.49 520.986C1089.97 519.468 1088.48 517.135 1088.9 513.307C1081.78 514.824 1074.45 515.54 1072.39 517.061C1070.27 518.623 1073.27 520.972 1074.03 522.979C1078.7 522.351 1085.56 522.175 1087.49 520.986Z" fill="white"/>
<path fill-rule="evenodd" clip-rule="evenodd" d="M1035.87 548.214C1040.08 548.862 1046.32 547.749 1051.67 547.407C1049.28 545.638 1048.11 543.181 1044.13 542.292C1040.32 541.441 1033.57 542.215 1024.1 542.318C1029.46 545.16 1031.65 547.565 1035.87 548.214Z" fill="white"/>
<path fill-rule="evenodd" clip-rule="evenodd" d="M1008.61 565.542C994.996 568.224 990.664 569.076 986.331 569.931C987.554 571.542 987.493 573.998 990.373 574.523C993.156 575.034 1000.55 574.036 1003.07 572.818C1006.15 571.326 1006.27 568.915 1008.61 565.542Z" fill="white"/>
<path fill-rule="evenodd" clip-rule="evenodd" d="M960.783 593.909C957.019 592.998 950.158 593.65 940.659 593.589C945.548 596.483 947.383 598.921 951.485 599.621C955.68 600.337 962.102 599.341 967.547 599.095C965.417 597.303 964.623 594.84 960.783 593.909Z" fill="white"/>
<path fill-rule="evenodd" clip-rule="evenodd" d="M837.128 698.283C838.677 698.879 845.881 697.775 850.52 697.442C848.515 695.647 847.269 693.675 844.106 692.143C842.957 691.586 837.265 692.07 830.553 692.086C833.151 694.809 833.716 696.974 837.128 698.283Z" fill="white"/>
<path fill-rule="evenodd" clip-rule="evenodd" d="M878.876 666.82C877.492 668.689 878.347 670.724 878.307 673.671C885.592 672.415 893.494 671.598 893.542 670.94C893.683 669.081 891.094 667.162 888.383 665.571C887.859 665.263 879.368 666.16 878.876 666.82Z" fill="white"/>
<path fill-rule="evenodd" clip-rule="evenodd" d="M929.288 640.868C925.864 640.179 920.68 640.619 914.436 640.544C918.587 642.493 920.826 644.343 924.198 644.905C927.687 645.486 932.273 644.812 936.371 644.686C934.084 643.367 932.596 641.537 929.288 640.868Z" fill="white"/>
<path fill-rule="evenodd" clip-rule="evenodd" d="M1143.7 511.823C1141.52 511.188 1136 512.165 1129.86 512.572C1131.29 514.681 1131.09 516.886 1133.57 517.368C1136.16 517.862 1141.35 516.686 1145.41 516.241C1144.97 514.702 1145.96 512.479 1143.7 511.823Z" fill="white"/>
<path fill-rule="evenodd" clip-rule="evenodd" d="M980.543 641.175C982.294 641.791 989.179 640.63 993.745 640.272C992.567 638.645 992.648 636.627 989.804 635.517C987.727 634.708 981.802 635.094 973.936 634.821C976.723 637.798 977.179 639.99 980.543 641.175Z" fill="white"/>
<path fill-rule="evenodd" clip-rule="evenodd" d="M934.532 667.381C938.9 666.461 945.132 665.865 947.092 664.532C948.964 663.257 946.374 661.209 945.745 659.502C941.24 660.17 936.738 660.84 929.954 661.847C931.91 664.215 933.221 665.798 934.532 667.381Z" fill="white"/>
<path fill-rule="evenodd" clip-rule="evenodd" d="M894.478 692.223C895.482 692.697 902.787 691.937 902.924 691.668C903.852 689.9 904.643 687.901 903.174 686.446C902.646 685.922 895.765 686.688 889.045 686.987C891.215 689.264 891.989 691.031 894.478 692.223Z" fill="white"/>
<path fill-rule="evenodd" clip-rule="evenodd" d="M1208.7 512.593L1208.31 509.066C1205.9 507.918 1203.88 505.982 1200.98 505.809C1197 505.573 1190.33 506.26 1188.6 507.327C1187.08 508.259 1189.52 511 1192.44 511.619C1196.85 512.55 1203.19 512.327 1208.7 512.593Z" fill="white"/>
<path fill-rule="evenodd" clip-rule="evenodd" d="M1243.22 478.784C1239.09 478.455 1234.29 478.844 1227.5 479.01C1229.21 481.37 1229.76 483.952 1231.3 483.937C1235.46 483.902 1240.28 482.936 1244.24 481.918C1245.16 481.684 1244.53 478.89 1243.22 478.784Z" fill="white"/>
<path fill-rule="evenodd" clip-rule="evenodd" d="M1157.56 535.187C1159.49 533.7 1156.53 531.45 1155.72 529.535C1150.69 530.332 1143.7 530.671 1141.19 532.052C1138.69 533.43 1140.68 535.856 1140.71 539.181C1148.82 537.37 1155.65 536.661 1157.56 535.187Z" fill="white"/>
<path fill-rule="evenodd" clip-rule="evenodd" d="M1112.86 556.392C1112.07 555.937 1105.55 557.198 1098.95 558.006C1102.35 560.154 1104.06 561.763 1107.07 562.81C1107.96 563.115 1114.96 561.742 1115.06 561.286C1115.42 559.572 1115.03 557.63 1112.86 556.392Z" fill="white"/>
<path fill-rule="evenodd" clip-rule="evenodd" d="M1020.34 610.744C1019 611.195 1019.81 613.579 1019.52 616.109C1025.56 614.187 1029.87 613.093 1033.25 611.583C1034.31 611.111 1033.43 608.536 1032.5 608.612C1028.58 608.918 1023.94 609.537 1020.34 610.744Z" fill="white"/>
<path fill-rule="evenodd" clip-rule="evenodd" d="M1063.49 589.497C1064.4 589.817 1071.42 588.478 1071.52 588.043C1071.91 586.323 1071.65 584.365 1069.51 583.127C1068.69 582.657 1062.2 583.889 1055.56 584.664C1058.89 586.834 1060.52 588.454 1063.49 589.497Z" fill="white"/>
<path fill-rule="evenodd" clip-rule="evenodd" d="M1092.19 541.947C1093.89 542.514 1100.85 541.243 1105.43 540.804C1103.1 539.02 1101.48 537.062 1098.06 535.558C1096.93 535.06 1091.17 535.735 1084.59 535.986C1087.58 538.563 1088.53 540.73 1092.19 541.947Z" fill="white"/>
<path fill-rule="evenodd" clip-rule="evenodd" d="M1045.93 570.642C1053.2 569.398 1061.1 568.608 1061.18 567.926C1061.4 566.076 1058.82 564.148 1056.11 562.561C1055.58 562.253 1046.99 563.155 1046.47 563.836C1045.05 565.689 1045.96 567.724 1045.93 570.642Z" fill="white"/>
<path fill-rule="evenodd" clip-rule="evenodd" d="M1019.19 593.796C1021.47 592.323 1019.17 589.965 1018.87 587.994C1013.74 588.601 1006.72 588.683 1003.97 589.966C1001.15 591.287 1002.49 593.781 1001.66 597.187C1010.07 595.663 1017.02 595.191 1019.19 593.796Z" fill="white"/>
<path fill-rule="evenodd" clip-rule="evenodd" d="M976.304 612.343C969.31 614.15 964.126 615.129 960.541 616.624C959.451 617.08 962.67 620.003 964.042 619.979C969.221 619.89 975.275 619.456 979.248 618.3C980.83 617.839 977.837 615.152 976.304 612.343Z" fill="white"/>
<path fill-rule="evenodd" clip-rule="evenodd" d="M1185.18 484.712C1180.23 484.252 1174.53 485.056 1166.79 485.476C1169.62 487.592 1170.97 489.664 1172.76 489.756C1178.15 490.028 1183.71 489.525 1189.2 489.328C1187.91 487.708 1187.33 484.91 1185.18 484.712Z" fill="white"/>
<path fill-rule="evenodd" clip-rule="evenodd" d="M993.511 661.589C998.493 662.13 1004.35 661.405 1009.84 661.229C1007.69 659.436 1006.47 657.398 1002.95 655.978C1001.58 655.429 994.988 656.279 980.878 656.993C986.63 659.185 989.538 661.159 993.511 661.589Z" fill="white"/>
<path fill-rule="evenodd" clip-rule="evenodd" d="M957.431 687.33C959.351 687.83 965.885 686.181 970.326 685.507C967.265 683.763 964.772 681.84 960.762 680.394C959.665 679.996 954.054 681.032 947.847 681.695C951.602 684.086 953.324 686.264 957.431 687.33Z" fill="white"/>
<path fill-rule="evenodd" clip-rule="evenodd" d="M1095.01 608.87C1096.94 607.379 1094.01 605.132 1093.2 603.217C1088.16 604.014 1081.23 604.359 1078.63 605.746C1076.14 607.08 1078.14 609.497 1078.19 612.861C1086.29 611.049 1093.11 610.342 1095.01 608.87Z" fill="white"/>
<path fill-rule="evenodd" clip-rule="evenodd" d="M1047.63 629.495C1043.85 630.146 1038.78 630.467 1036.66 631.538C1034.64 632.562 1035.69 634.366 1035.13 637.111C1043.32 636.007 1048.16 635.355 1053 634.701C1051.21 632.968 1049.41 631.229 1047.63 629.495Z" fill="white"/>
<path fill-rule="evenodd" clip-rule="evenodd" d="M1130.19 577.758C1129.05 577.232 1123.36 577.81 1116.69 577.946C1119.49 580.602 1120.24 582.773 1123.78 584.029C1125.43 584.61 1132.49 583.418 1137.1 583.027C1134.93 581.24 1133.48 579.277 1130.19 577.758Z" fill="white"/>
<path fill-rule="evenodd" clip-rule="evenodd" d="M1165.6 552.384C1165.41 554.095 1167.46 555.868 1168.63 557.615C1172.86 557.159 1179.17 557.139 1180.86 556.14C1183.43 554.616 1182.82 552.414 1183.56 550.499C1180.32 550.553 1177.09 550.608 1173.86 550.664C1170.95 551.232 1165.67 551.737 1165.6 552.384Z" fill="white"/>
<path fill-rule="evenodd" clip-rule="evenodd" d="M1213.69 526.212C1210.68 525.212 1204.35 525.319 1196.21 524.677C1201.43 529.296 1202.66 531.762 1204.67 531.91C1209.95 532.295 1215.57 531.667 1221.05 531.441C1218.72 529.656 1217.55 527.486 1213.69 526.212Z" fill="white"/>
<path fill-rule="evenodd" clip-rule="evenodd" d="M1260.38 500.098C1255.9 500.729 1250.29 500.983 1247.32 502.123C1245.37 502.872 1247.22 504.893 1247.49 507.633C1255.58 506.341 1261.73 505.958 1264.63 504.651C1266.15 503.969 1261.98 501.667 1260.38 500.098Z" fill="white"/>
<path fill-rule="evenodd" clip-rule="evenodd" d="M1220.52 552.982C1225.04 552.09 1231.5 551.549 1233.54 550.201C1235.51 548.896 1234.6 545.981 1231.97 545.189C1228.77 544.221 1222.46 544.736 1214.1 544.525C1218.02 549.691 1219.27 551.336 1220.52 552.982Z" fill="white"/>
<path fill-rule="evenodd" clip-rule="evenodd" d="M1051.2 655.658C1053.11 656.217 1059.67 654.816 1064.13 654.3C1062.51 652.701 1062.02 650.694 1058.9 649.642C1056.75 648.918 1050.98 649.517 1043.21 649.535C1046.65 652.414 1047.59 654.6 1051.2 655.658Z" fill="white"/>
<path fill-rule="evenodd" clip-rule="evenodd" d="M1260.04 520.707C1258.23 522.391 1259.22 524.433 1258.98 527.792C1267.19 526.118 1272.7 525.451 1276.03 524.087C1277.28 523.569 1274.54 520.817 1271.72 520.226C1268.85 519.628 1260.74 520.063 1260.04 520.707Z" fill="white"/>
<path fill-rule="evenodd" clip-rule="evenodd" d="M1175.71 572.591C1175.67 574.464 1178.33 576.365 1181.07 577.962C1181.56 578.246 1190.01 577.3 1190.51 576.618C1191.86 574.756 1190.92 572.733 1190.87 569.805C1183.62 571.088 1175.71 571.951 1175.71 572.591Z" fill="white"/>
<path fill-rule="evenodd" clip-rule="evenodd" d="M1092.22 623.822C1093.69 626.195 1093.63 628.201 1096.13 629.239C1097.3 629.725 1103.4 628.336 1107.27 627.795C1106.05 626.199 1105.48 624.412 1103.27 623.118C1102.5 622.666 1097.66 623.436 1092.22 623.822Z" fill="white"/>
<path fill-rule="evenodd" clip-rule="evenodd" d="M1136.73 604.491C1139.51 604.877 1146.49 603.81 1148.01 602.757C1149.53 601.705 1147.77 599.125 1145.21 598.608C1142.55 598.073 1137.2 599.215 1131.33 599.79C1133.55 601.915 1134 604.115 1136.73 604.491Z" fill="white"/>
<path fill-rule="evenodd" clip-rule="evenodd" d="M1314.15 493.332C1313.38 492.908 1308.52 493.755 1303.11 494.236C1304.74 496.547 1304.86 498.535 1307.45 499.551C1308.63 500.015 1314.7 498.552 1318.55 497.963C1317.2 496.383 1316.47 494.61 1314.15 493.332Z" fill="white"/>
<path fill-rule="evenodd" clip-rule="evenodd" d="M1279.31 547.219C1283.45 548.056 1290.14 547.305 1295.71 547.245C1294.14 545.413 1294.11 542.932 1290.58 541.927C1286.96 540.897 1279.92 541.313 1270.14 540.93C1274.28 543.971 1275.44 546.438 1279.31 547.219Z" fill="white"/>
<path fill-rule="evenodd" clip-rule="evenodd" d="M1256.53 571.32C1253.86 569.573 1252.33 567.137 1248.19 566.283C1244.35 565.49 1237.73 566.382 1228.29 566.644C1234.1 569.431 1236.63 571.807 1240.96 572.402C1245.19 572.986 1251.27 571.754 1256.53 571.32Z" fill="white"/>
<path fill-rule="evenodd" clip-rule="evenodd" d="M1195.71 598.775C1199.88 599.581 1206.5 598.763 1212.05 598.654C1210.33 596.834 1210.1 594.359 1206.5 593.376C1202.82 592.376 1195.83 592.841 1186.16 592.531C1190.49 595.553 1191.8 598.021 1195.71 598.775Z" fill="white"/>
<path fill-rule="evenodd" clip-rule="evenodd" d="M1151.89 625.412C1156.71 624.509 1162.52 624.006 1165.97 622.539C1167.8 621.763 1166.98 618.136 1164.76 617.884C1161.1 617.466 1155.34 618.742 1149.6 619.403C1150.46 621.652 1151.17 623.532 1151.89 625.412Z" fill="white"/>
<path fill-rule="evenodd" clip-rule="evenodd" d="M1321.06 514.043C1320.9 516.046 1320.72 518.048 1320.55 520.053C1326.72 518.777 1332.88 517.496 1339.05 516.211C1333.05 515.488 1327.07 514.764 1321.06 514.043Z" fill="white"/>
<path fill-rule="evenodd" clip-rule="evenodd" d="M1028.72 682.461C1028.19 682.618 1027.67 682.774 1027.14 682.929C1027.86 682.956 1028.57 682.976 1029.32 683.009C1029.1 682.811 1028.93 682.654 1028.72 682.461Z" fill="white"/>
<path fill-rule="evenodd" clip-rule="evenodd" d="M34.5287 356.332C31.3706 357.617 28.8607 361.228 30.5353 362.547C32.463 364.068 39.6016 365.105 44.0626 364.84C61.7169 363.793 79.2927 362.342 96.7218 360.652C104.713 359.877 107.495 361.299 107.361 364.537C107.14 370.009 105.933 375.481 106.149 380.945C106.268 383.986 108.63 386.997 109.628 390.047C111.271 395.05 111.983 400.14 114.433 405.05C115.361 406.907 120.025 408.363 122.986 410C125.238 408.542 128.521 407.227 129.57 405.603C135.476 396.454 140.832 387.229 146.405 378.034C147.076 376.933 147.784 375.829 148.725 374.776C153.361 369.574 154.224 369.797 163.769 373.207C175.417 377.367 188.164 380.873 200.51 384.608C205.728 386.187 210.83 388.029 216.581 388.974C219.75 389.496 225.469 388.973 227.638 387.89C229.843 386.789 230.707 384.092 229.351 382.666C223.855 376.876 217.348 371.289 211.084 365.659C204.299 359.565 197.515 353.471 190.471 347.442C183.257 341.27 189.725 335.759 194.827 330.45C201.651 323.351 210.44 316.659 217.468 309.596C219.002 308.053 217.981 305.217 215.704 303.845C213.901 302.759 207.773 302.263 204.603 302.805C197.088 304.087 190.161 306.119 183.044 307.892C177.577 309.257 173.739 309.005 172.04 305.88C166.46 295.627 160.775 285.387 155.145 275.139C154.972 274.825 155.08 274.477 154.89 274.167C152.825 270.783 152.554 266.075 142.907 266.001C133.723 265.93 133.101 270.377 131.359 273.706C129.301 277.634 127 281.535 124.323 286.309C124.323 290.885 124.591 296.209 124.241 301.525C123.914 306.503 119.523 307.557 109.943 305.264C91.5234 300.854 73.2081 296.344 54.5442 292.167C51.4053 291.464 45.9796 291.657 43.0339 292.502C40.9618 293.097 40.2308 295.591 40.8385 297.064C41.5867 298.873 43.9393 300.642 46.3196 302.188C60.1401 311.172 74.2941 320.045 88.0699 329.043C93.23 332.413 93.2258 334.788 84.1234 337.691C66.6327 343.27 50.519 349.819 34.5287 356.332Z" fill="white"/>
<path d="M143.913 560.681C143.913 560.681 136.816 560.335 132.271 561.031C127.722 561.728 122.979 561.137 123.738 559.017L139.806 549.127C139.806 549.127 145.405 545.562 146.832 540.239C149.464 537.856 142.994 533.725 141.243 531.696C138.862 528.943 135.509 526.521 133.022 523.799C129.159 519.572 125.489 515.268 122.192 510.865C121.552 510.012 122.631 508.403 123.672 507.474C124.042 507.144 127.012 507.505 128.179 508.059C134.139 510.891 139.865 513.918 145.745 516.817C149.182 518.51 152.664 520.184 156.309 521.693C159.05 522.825 161.814 523.325 162.814 520.438C163.73 517.798 164.887 515.192 165.903 512.564C166.502 511.013 167.233 509.468 167.552 507.892C168.342 503.983 168.72 500.034 169.758 496.156C169.994 495.272 172.255 493.972 173.537 494C175.233 494.039 177.847 494.984 178.387 495.911C180.707 499.9 182.773 503.976 184.256 508.11C186.585 514.613 188.431 521.183 190.344 527.74C190.857 529.498 191.847 530.38 194.888 529.713C200.999 528.371 207.162 527.113 213.245 525.727C216.428 525.004 219.631 524.237 222.565 523.204C225.266 522.254 227.809 519.841 230.73 522.195C231.809 523.065 229.304 527.023 229.304 527.023L223.738 532.054C223.738 532.054 211.799 540.213 205.375 543.988C201.976 545.985 202.182 547.743 204.256 549.872L218.857 566.186C219.347 567.94 219.773 569.77 219.487 571.516C219.167 573.436 217.101 574.441 213.888 573.545C211.149 572.781 208.537 571.838 205.875 570.967C198.149 567.592 190.278 564.336 182.753 560.796C178.426 558.762 177.225 558.891 175.446 562.213C173.974 564.961 172.017 567.603 170.418 570.326C167.083 576.003 163.781 581.689 160.654 587.415C160.342 587.99 154.974 589 154.974 589L153.24 584.187C152.385 579.942 152.293 574.432 152.745 570.459C152.745 570.459 151.565 565.594 151.316 563.712C150.989 561.239 143.913 560.681 143.913 560.681Z" fill="white"/>
</g>
<defs>
<linearGradient id="paint0_linear_2_1033" x1="720" y1="0" x2="720" y2="840" gradientUnits="userSpaceOnUse">
<stop stop-color="white" stop-opacity="0"/>
<stop offset="1" stop-color="#FFF3DA"/>
</linearGradient>
<clipPath id="clip0_2_1033">
<rect width="1440" height="840" fill="white"/>
</clipPath>
</defs>
</svg>
