<svg width="105" height="23" viewBox="0 0 105 23" fill="none" xmlns="http://www.w3.org/2000/svg">
<path fill-rule="evenodd" clip-rule="evenodd" d="M7.003 17.2612C9.28304 17.2612 11.0539 15.4534 11.0539 12.7446V2.22852H13.5008V19.2708H11.0822V17.659C9.94027 18.8794 8.36508 19.5633 6.72294 19.5516C3.2067 19.5516 0.499512 16.9014 0.499512 12.8821V2.22852H2.99171V12.7593C2.99171 15.4826 4.68901 17.2612 7.003 17.2612ZM22.307 6.59878C20.7125 6.60016 19.1848 7.26052 18.0637 8.43289V2.22852H15.7016V19.2708H18.0354V17.697C19.166 18.8797 20.7044 19.5499 22.3126 19.5604C24.5835 19.6103 26.7027 18.3861 27.8523 16.3604C29.0019 14.3347 29.0019 11.8245 27.8523 9.79878C26.7027 7.77309 24.5835 6.54889 22.3126 6.59878H22.307ZM41.9137 13.0664C41.9137 9.36601 39.3677 6.59878 35.9222 6.59878C34.2779 6.61032 32.706 7.29947 31.5548 8.51352C30.4036 9.72757 29.7681 11.3662 29.7893 13.0664C29.7893 16.7639 32.5474 19.5604 36.1457 19.5604C38.1854 19.6002 40.1164 18.6116 41.3224 16.9101L39.6082 15.6113C38.8099 16.7635 37.5161 17.4378 36.1457 17.4162C34.1585 17.4065 32.4759 15.8978 32.1853 13.865H41.9193L41.9137 13.0664ZM48.5529 9.04718C47.0055 9.04718 45.9079 10.2992 45.9079 12.221V19.2708H43.5459V6.86205H45.8797V8.37731C46.4659 7.35459 47.5423 6.74095 48.6915 6.77429H49.5402V9.04718H48.5529ZM35.8939 8.75471C34.1202 8.75471 32.6577 10.036 32.2362 11.9286H39.5233C39.1272 10.036 37.6675 8.75471 35.8939 8.75471ZM18.2826 14.7364C18.9312 16.3432 20.4535 17.3865 22.1373 17.3782V17.3665C23.2341 17.3696 24.2869 16.9208 25.063 16.1194C25.8391 15.318 26.2745 14.2299 26.273 13.0957C26.2787 11.3545 25.2678 9.78183 23.713 9.11332C22.1582 8.44481 20.3669 8.8126 19.1771 10.0447C17.9872 11.2767 17.634 13.1295 18.2826 14.7364ZM67.0223 2.22852H55.4589V19.2538H67.0223V16.3335H58.5824V12.1166H66.7875V9.2956H58.5824V5.1488H67.0223V2.22852ZM104.499 15.4019C104.499 17.8082 102.502 19.5603 98.9568 19.5603C95.1288 19.5603 93.2445 17.8169 92.7946 15.1945H95.8786C96.2718 16.5904 97.2847 16.9963 99.0559 16.9963C100.465 16.9963 101.336 16.5028 101.336 15.7173C101.336 15.2237 101.028 14.9025 99.8736 14.6689L96.948 13.9709C94.2743 13.3898 93.0351 12.1983 93.0351 10.3673C93.0351 7.7186 95.2872 6.35191 98.4957 6.35191C102.208 6.35191 104.038 8.08655 104.205 10.7148H101.138C100.855 9.31891 99.7717 8.91299 98.3089 8.91299C96.9594 8.91299 96.2266 9.37732 96.2266 10.1337C96.2266 10.7177 96.7047 11.0098 98.2241 11.3018L100.841 11.8537C103.317 12.4086 104.499 13.6877 104.499 15.4019ZM91.9034 19.2421H88.5846C86.5022 19.2421 85.3479 17.9046 85.3479 16.2167V9.52923H83.0137V6.67903H85.3592V3.10169H88.4431V6.67903H91.9034V9.52923H88.4431V15.4019C88.4431 16.0707 88.893 16.3919 89.5975 16.3919H91.9034V19.2421ZM78.6056 7.81792V6.68485L81.681 6.67901V19.2362H78.6056V18.1002C77.5205 19.049 76.1429 19.5667 74.7209 19.5604C72.4039 19.6107 70.2417 18.3636 69.0689 16.3005C67.8961 14.2373 67.8961 11.6808 69.0689 9.61769C70.2417 7.55456 72.4039 6.30747 74.7209 6.35778C76.1427 6.35294 77.5197 6.87054 78.6056 7.81792ZM74.9755 16.8036C73.4667 16.8214 72.0969 15.8968 71.5078 14.463C70.9187 13.0291 71.227 11.3701 72.2882 10.2629C73.3495 9.15574 74.9535 8.81981 76.3489 9.41246C77.7443 10.0051 78.6547 11.409 78.6537 12.9664C78.6627 13.9803 78.2785 14.9559 77.5865 15.6756C76.8945 16.3953 75.9523 16.7994 74.9699 16.7978L74.9755 16.8036Z" fill="black"/>
</svg>
